<svg width="78" height="98" viewBox="0 0 78 98" fill="none" xmlns="http://www.w3.org/2000/svg">
<g filter="url(#filter0_d_222_413)">
<path d="M73.1026 40.3134C68.8183 32.7065 60.0807 28.5174 48.4997 28.5174C45.9081 28.5174 43.8036 29.2932 42.1738 30.0858C45.3613 21.1317 53.8992 14.692 63.935 14.692C64.783 14.692 65.4711 14.0039 65.4711 13.1559C65.4711 12.308 64.783 11.6199 63.935 11.6199C55.6106 11.6199 48.1971 15.537 43.3982 21.6095C43.2093 21.2578 43.0142 20.8938 42.985 20.84C42.2752 10.6691 34.3795 2.75796 24.267 2.03742C24.0935 2.0021 23.5788 1.77479 23.2393 1.62581C22.3667 1.24019 21.6002 0.912959 20.8936 0.910031C20.8736 0.910031 20.8537 0.905455 20.8337 0.905455C20.8215 0.905455 20.8092 0.902344 20.7984 0.902344C20.6985 0.905455 20.6125 0.945353 20.5204 0.966766C20.4298 0.986715 20.3392 0.99129 20.2532 1.02661C19.8875 1.18181 19.5958 1.47354 19.4406 1.84068C19.4053 1.92523 19.4007 2.01418 19.3808 2.10184C19.3594 2.19701 19.3193 2.28303 19.3162 2.38296C19.3162 2.39522 19.3193 2.40748 19.3193 2.41828C19.3193 2.43969 19.3239 2.45983 19.3239 2.48124C19.3301 3.19409 19.6542 3.9452 20.0396 4.81161C20.1871 5.14799 20.413 5.65642 20.4421 5.76861C21.1579 15.9517 29.0692 23.8583 39.1202 24.5512C39.3244 24.6096 39.9421 24.9414 40.3506 25.1595C40.5365 25.2609 40.6978 25.3438 40.8667 25.4315C39.8989 27.2273 39.1615 29.1567 38.6317 31.1706C38.4888 31.0831 38.3414 30.994 38.2124 30.914C36.6763 29.9601 34.3566 28.5176 31.6023 28.5176C19.1763 28.5176 9.90886 32.8018 5.50782 40.5794C0.481602 49.4629 2.20197 61.8259 10.3529 75.3932C18.9538 89.7087 26.6837 93.0973 32.074 93.0973C32.6254 93.0973 33.154 93.062 33.6547 92.999C35.9942 92.704 37.9974 91.7378 39.2832 90.7147C40.5276 91.7071 42.4478 92.6441 44.7042 92.9622C50.1314 93.721 58.611 91.2969 68.2473 75.3994C76.476 61.8243 78.1994 49.3629 73.1026 40.3134ZM23.769 7.52741L37.4838 21.2422C30.4667 19.9487 25.0626 14.5462 23.769 7.52741ZM25.9412 5.35535C32.9583 6.64874 38.3625 12.0545 39.656 19.0702L25.9412 5.35535ZM28.5297 37.7343C20.0594 37.7343 13.1682 44.6255 13.1682 53.0958C13.1682 53.9437 12.4815 54.6318 11.6322 54.6318C10.7842 54.6318 10.0961 53.9437 10.0961 53.0958C10.0961 42.9311 18.3667 34.662 28.5298 34.662C29.3794 34.662 30.0659 35.3502 30.0659 36.1981C30.0659 37.046 29.379 37.7343 28.5297 37.7343ZM45.9358 41.5763C44.5655 43.9451 42.017 45.4151 39.2827 45.4151C36.5513 45.4151 34.0013 43.9449 32.6327 41.5777C32.2072 40.8435 32.4592 39.9049 33.1935 39.4794C33.9278 39.0554 34.8663 39.3043 35.2918 40.0402C36.1136 41.4597 37.6436 42.3429 39.2827 42.3429C40.9233 42.3429 42.4533 41.4597 43.2767 40.0371C43.7007 39.3028 44.6393 39.0508 45.375 39.4763C46.1093 39.9018 46.3596 40.842 45.9358 41.5763Z" fill="white"/>
</g>
<defs>
<filter id="filter0_d_222_413" x="0.682861" y="0.902344" width="77.293" height="96.1948" filterUnits="userSpaceOnUse" color-interpolation-filters="sRGB">
<feFlood flood-opacity="0" result="BackgroundImageFix"/>
<feColorMatrix in="SourceAlpha" type="matrix" values="0 0 0 0 0 0 0 0 0 0 0 0 0 0 0 0 0 0 127 0" result="hardAlpha"/>
<feOffset dy="2"/>
<feGaussianBlur stdDeviation="1"/>
<feComposite in2="hardAlpha" operator="out"/>
<feColorMatrix type="matrix" values="0 0 0 0 0 0 0 0 0 0 0 0 0 0 0 0 0 0 0.25 0"/>
<feBlend mode="normal" in2="BackgroundImageFix" result="effect1_dropShadow_222_413"/>
<feBlend mode="normal" in="SourceGraphic" in2="effect1_dropShadow_222_413" result="shape"/>
</filter>
</defs>
</svg>
