<svg width="85" height="85" viewBox="0 0 85 85" fill="none" xmlns="http://www.w3.org/2000/svg">
<g filter="url(#filter0_d_222_426)">
<path d="M67.9785 38.1342C66.1177 45.2619 62.2385 52.1372 57.2239 57.1519C52.0831 62.2926 46.2485 65.4149 40.3823 66.1719C40.2877 66.1719 40.1615 66.2034 40.0669 66.2034C38.8054 66.2034 37.7331 65.2888 37.5754 63.9957C37.3862 62.608 38.3638 61.3465 39.7515 61.1572C44.5138 60.5265 49.3392 57.9088 53.66 53.5565C58.0123 49.2042 61.1977 43.6849 62.8377 37.7557C64.4777 31.9211 63.5946 25.8026 68.2308 21.1665L70.3754 19.0219C71.6685 17.7288 73.5923 17.1611 75.3269 17.7288C76.0523 17.9496 76.8092 18.0442 77.6292 17.9811C80.2469 17.7288 82.3915 15.6157 82.6754 12.998C83.0538 9.56032 80.3731 6.65878 77.03 6.65878C76.5254 6.65878 76.1154 6.3434 76.1154 5.68109C76.1154 2.33801 73.2138 -0.342758 69.7762 0.0357039C67.1585 0.31955 65.0454 2.46417 64.7931 5.08186C64.6985 5.87032 64.7931 6.65878 65.0139 7.38417C65.55 9.11878 65.0138 11.0426 63.7208 12.3357L61.6392 14.4488C59.0531 17.0349 55.6154 18.5488 51.9569 18.6749C44.6715 18.9903 35.4623 22.8065 29.1546 29.1142C28.0508 30.218 27.1046 31.3219 26.2215 32.4572C25.9377 32.8357 25.5908 33.1196 25.1492 33.2772C11.5562 38.9542 2 52.3895 2 68.0642V69.4203C2 75.6965 7.07769 80.7742 13.3538 80.7742H71.3846C77.6608 80.7742 82.7385 75.6965 82.7385 69.4203V68.0642C82.7385 55.8903 76.9354 45.0411 67.9785 38.1342ZM31.0154 42.2342L30.5738 42.8965C30.1954 43.4326 29.5962 43.748 28.9969 43.748C28.65 43.748 28.2715 43.6534 27.9562 43.4326C27.0731 42.8649 26.8523 41.6665 27.42 40.8149L27.8615 40.1526C28.4292 39.2696 29.6277 39.0488 30.4792 39.6165C31.3623 40.1842 31.5831 41.3511 31.0154 42.2342ZM34.8 36.8411C34.4215 37.3457 33.8538 37.598 33.2862 37.598C32.8762 37.598 32.4977 37.4719 32.1508 37.2196C31.3308 36.5888 31.1415 35.3903 31.7723 34.5703C37.5754 26.938 46.6585 24.7934 47.0369 24.6988C48.0462 24.478 49.0869 25.1088 49.3077 26.118C49.5285 27.1272 48.8977 28.1365 47.8885 28.3888C47.8569 28.3888 45.8069 28.8934 43.1577 30.1865C40.54 31.4795 37.2915 33.5926 34.8 36.8411Z" fill="white"/>
</g>
<defs>
<filter id="filter0_d_222_426" x="0" y="0" width="84.7385" height="84.7742" filterUnits="userSpaceOnUse" color-interpolation-filters="sRGB">
<feFlood flood-opacity="0" result="BackgroundImageFix"/>
<feColorMatrix in="SourceAlpha" type="matrix" values="0 0 0 0 0 0 0 0 0 0 0 0 0 0 0 0 0 0 127 0" result="hardAlpha"/>
<feOffset dy="2"/>
<feGaussianBlur stdDeviation="1"/>
<feComposite in2="hardAlpha" operator="out"/>
<feColorMatrix type="matrix" values="0 0 0 0 0 0 0 0 0 0 0 0 0 0 0 0 0 0 0.25 0"/>
<feBlend mode="normal" in2="BackgroundImageFix" result="effect1_dropShadow_222_426"/>
<feBlend mode="normal" in="SourceGraphic" in2="effect1_dropShadow_222_426" result="shape"/>
</filter>
</defs>
</svg>
