<svg width="92" height="92" viewBox="0 0 92 92" fill="none" xmlns="http://www.w3.org/2000/svg">
<g clip-path="url(#clip0_435_166)">
<g filter="url(#filter0_d_435_166)">
<path d="M25.1382 9.86328C9.87147 9.86328 0 44.6504 0 56.9988C0 70.8602 11.2768 82.137 25.1382 82.137C38.9215 82.137 50.279 71.0365 50.279 56.9988C50.2792 44.7894 40.463 9.86328 25.1382 9.86328ZM17.7486 50.602C17.2273 53.1986 16.9281 55.5295 16.9281 56.9976C16.9281 58.7885 15.4763 60.2404 13.6853 60.2404C11.8944 60.2404 10.4425 58.7885 10.4425 56.9976C10.4425 55.0647 10.7703 52.4114 11.39 49.3251C11.7426 47.5694 13.4501 46.4316 15.2076 46.7843C16.9635 47.137 18.1011 48.8462 17.7486 50.602ZM27.5392 26.5429C26.7996 27.3567 24.1609 30.6153 21.2572 38.3877C20.631 40.0633 18.7649 40.9175 17.0843 40.2906C15.4067 39.6637 14.5547 37.7956 15.1816 36.1177C18.2844 27.8128 21.2485 23.8208 22.7394 22.1807C23.9439 20.8555 25.9948 20.7575 27.3202 21.9618C28.6459 23.1668 28.7435 25.2175 27.5392 26.5429Z" fill="white"/>
</g>
<g filter="url(#filter1_d_435_166)">
<path d="M53.5857 32.8114C52.7776 32.6592 52.1054 33.4295 52.3615 34.2108C55.0976 42.5682 56.7647 51.1301 56.7647 56.9989C56.7647 65.9583 53.0531 74.2558 46.7139 80.1397C45.9633 80.8365 46.5256 82.0909 47.546 82.0036C61.6649 80.7959 91.9999 71.2836 91.9999 56.9987C91.9997 44.0195 67.3436 35.4014 53.5857 32.8114ZM79.9005 59.1783C78.695 60.5046 76.6438 60.6011 75.3197 59.3973C74.5057 58.6577 71.2464 56.019 63.4746 53.1153C61.797 52.4884 60.9449 50.6203 61.5719 48.9424C62.1986 47.2647 64.0668 46.4133 65.7444 47.0397C74.049 50.1426 78.0409 53.1065 79.6815 54.5975C81.007 55.8022 81.1051 57.8529 79.9005 59.1783Z" fill="white"/>
</g>
</g>
<defs>
<filter id="filter0_d_435_166" x="-2" y="9.86328" width="54.2791" height="76.2737" filterUnits="userSpaceOnUse" color-interpolation-filters="sRGB">
<feFlood flood-opacity="0" result="BackgroundImageFix"/>
<feColorMatrix in="SourceAlpha" type="matrix" values="0 0 0 0 0 0 0 0 0 0 0 0 0 0 0 0 0 0 127 0" result="hardAlpha"/>
<feOffset dy="2"/>
<feGaussianBlur stdDeviation="1"/>
<feComposite in2="hardAlpha" operator="out"/>
<feColorMatrix type="matrix" values="0 0 0 0 0 0 0 0 0 0 0 0 0 0 0 0 0 0 0.25 0"/>
<feBlend mode="normal" in2="BackgroundImageFix" result="effect1_dropShadow_435_166"/>
<feBlend mode="normal" in="SourceGraphic" in2="effect1_dropShadow_435_166" result="shape"/>
</filter>
<filter id="filter1_d_435_166" x="44.3687" y="32.792" width="49.6313" height="53.2158" filterUnits="userSpaceOnUse" color-interpolation-filters="sRGB">
<feFlood flood-opacity="0" result="BackgroundImageFix"/>
<feColorMatrix in="SourceAlpha" type="matrix" values="0 0 0 0 0 0 0 0 0 0 0 0 0 0 0 0 0 0 127 0" result="hardAlpha"/>
<feOffset dy="2"/>
<feGaussianBlur stdDeviation="1"/>
<feComposite in2="hardAlpha" operator="out"/>
<feColorMatrix type="matrix" values="0 0 0 0 0 0 0 0 0 0 0 0 0 0 0 0 0 0 0.25 0"/>
<feBlend mode="normal" in2="BackgroundImageFix" result="effect1_dropShadow_435_166"/>
<feBlend mode="normal" in="SourceGraphic" in2="effect1_dropShadow_435_166" result="shape"/>
</filter>
<clipPath id="clip0_435_166">
<rect width="92" height="92" fill="white"/>
</clipPath>
</defs>
</svg>
