<svg width="94" height="94" viewBox="0 0 94 94" fill="none" xmlns="http://www.w3.org/2000/svg">
<g clip-path="url(#clip0_222_429)">
<g filter="url(#filter0_d_222_429)">
<path d="M86.1597 48.8865L93.0333 31.1302C93.1853 30.7335 93.0587 30.286 92.7238 30.0301C92.3861 29.7712 91.9219 29.7685 91.5814 30.0188L73.7377 43.1807C69.8972 42.7277 65.7443 33.5526 47.4617 29.0003L52.8047 28.2379C53.6572 28.1169 54.4057 27.6188 54.8501 26.8789C55.2918 26.1417 55.3763 25.2443 55.0837 24.4367L52.3967 17.0483C52.0675 16.145 51.3078 15.4671 50.3738 15.2447C49.4398 15.0223 48.4577 15.2841 47.7572 15.9425L35.5266 27.4557C15.7389 27.8887 0.902832 43.8164 0.902832 48.8865C1.57521 53.1378 9.70657 62.9094 22.0159 67.6587C23.3017 65.8636 24.3398 64.1304 25.17 62.4788C27.5924 57.648 28.2733 53.4979 28.2733 50.6422C28.2733 49.4914 28.1607 48.5518 28.0172 47.8933C27.7865 46.8044 28.4787 45.7353 29.5674 45.5045C30.6563 45.271 31.7254 45.966 31.9589 47.052C32.1671 48.0339 32.2994 49.2325 32.2994 50.6422C32.2994 54.1255 31.4751 58.8917 28.7684 64.2853C28.0087 65.8018 27.0915 67.369 26.0084 68.97C30.24 70.1235 34.8683 70.6441 39.7807 70.177L43.4271 77.2812C43.7957 78.0015 44.4513 78.5305 45.2334 78.7387C46.0156 78.9441 46.8484 78.8118 47.5293 78.3672L50.3119 76.5469C51.08 76.0461 51.5554 75.2104 51.6033 74.2989C51.6455 73.3872 51.2543 72.5067 50.5425 71.9326L46.8146 68.9305C65.6487 64.44 69.8549 55.0512 73.7377 54.5926L91.5814 67.7545C91.9219 68.005 92.3861 68.0021 92.7238 67.746C93.0585 67.49 93.1853 67.0398 93.0333 66.646L86.1597 48.8865ZM14.664 50.2313C12.9955 50.2313 11.6423 48.8752 11.6423 47.2096C11.6423 45.5411 12.9957 44.1878 14.664 44.1878C16.3324 44.1878 17.6858 45.5412 17.6858 47.2096C17.6858 48.8752 16.3324 50.2313 14.664 50.2313Z" fill="white"/>
</g>
</g>
<defs>
<filter id="filter0_d_222_429" x="-1.09717" y="15.167" width="96.1941" height="67.6663" filterUnits="userSpaceOnUse" color-interpolation-filters="sRGB">
<feFlood flood-opacity="0" result="BackgroundImageFix"/>
<feColorMatrix in="SourceAlpha" type="matrix" values="0 0 0 0 0 0 0 0 0 0 0 0 0 0 0 0 0 0 127 0" result="hardAlpha"/>
<feOffset dy="2"/>
<feGaussianBlur stdDeviation="1"/>
<feComposite in2="hardAlpha" operator="out"/>
<feColorMatrix type="matrix" values="0 0 0 0 0 0 0 0 0 0 0 0 0 0 0 0 0 0 0.25 0"/>
<feBlend mode="normal" in2="BackgroundImageFix" result="effect1_dropShadow_222_429"/>
<feBlend mode="normal" in="SourceGraphic" in2="effect1_dropShadow_222_429" result="shape"/>
</filter>
<clipPath id="clip0_222_429">
<rect width="92.1951" height="92.1951" fill="white" transform="translate(0.902344 0.902344)"/>
</clipPath>
</defs>
</svg>
