<svg width="94" height="94" viewBox="0 0 94 94" fill="none" xmlns="http://www.w3.org/2000/svg">
<g clip-path="url(#clip0_222_417)">
<g filter="url(#filter0_d_222_417)">
<path d="M93.0802 46.4722C92.8004 37.7302 85.0893 31.1768 74.2794 30.508C52.5154 29.16 54.5601 18.3813 36.5255 17.233C35.5095 17.168 34.5076 17.1365 33.5252 17.1365C15.1053 17.1365 2.71491 28.2717 1.0952 41.8811C0.99652 42.7078 0.94412 43.5241 0.920891 44.3322H0.902344L0.902344 53.8442H0.958165C1.53763 65.8955 10.578 75.3145 25.2766 75.7243C33.9421 75.966 58.0561 76.6394 65.7114 76.853C78.2492 77.2023 90.3307 68.7971 92.6957 58.0799C92.8524 57.3705 92.9512 56.6727 93.0139 55.9841H93.0975V46.4722H93.0802ZM88.0512 49.5236C86.2201 57.8244 76.5364 64.5764 66.4671 64.5764C66.2593 64.5764 66.0515 64.5728 65.8437 64.5682L55.7154 64.2847L25.409 63.4395C18.7686 63.2537 13.3833 60.9837 9.83375 56.8746C6.58495 53.1115 5.1579 47.9862 5.8175 42.4431C7.25732 30.3432 18.6513 21.8924 33.5254 21.8924C34.41 21.8924 35.3181 21.9216 36.2237 21.9796C43.519 22.444 46.6889 24.5886 50.703 27.3057C55.6644 30.6625 61.2889 34.4686 73.9857 35.2546C79.3512 35.5867 83.8506 37.6652 86.3307 40.9547C88.158 43.38 88.7537 46.3432 88.0512 49.5236Z" fill="white"/>
<path d="M61.9146 43.5042L43.7222 42.2037C41.747 42.0622 39.9485 41.016 38.8514 39.3684L33.9432 32.0068C33.3964 31.187 32.2898 30.9653 31.4702 31.5122C30.6503 32.059 30.4287 33.1656 30.9755 33.9852L33.2303 37.3676C34.216 38.8469 34.5425 40.6697 34.1314 42.3998C33.7203 44.1299 32.6091 45.6103 31.0625 46.4881L24.0494 50.4684C23.1924 50.9549 22.8915 52.0429 23.3781 52.8996C23.8646 53.7566 24.9526 54.0575 25.8094 53.5709L38.3205 46.4707C39.4189 45.846 40.6776 45.5626 41.9374 45.6521L61.6612 47.0616C62.6435 47.1313 63.4957 46.3918 63.5667 45.4093C63.6366 44.4274 62.8981 43.5739 61.9146 43.5042Z" fill="white"/>
</g>
</g>
<defs>
<filter id="filter0_d_222_417" x="-1.09766" y="17.1365" width="96.1951" height="63.7271" filterUnits="userSpaceOnUse" color-interpolation-filters="sRGB">
<feFlood flood-opacity="0" result="BackgroundImageFix"/>
<feColorMatrix in="SourceAlpha" type="matrix" values="0 0 0 0 0 0 0 0 0 0 0 0 0 0 0 0 0 0 127 0" result="hardAlpha"/>
<feOffset dy="2"/>
<feGaussianBlur stdDeviation="1"/>
<feComposite in2="hardAlpha" operator="out"/>
<feColorMatrix type="matrix" values="0 0 0 0 0 0 0 0 0 0 0 0 0 0 0 0 0 0 0.25 0"/>
<feBlend mode="normal" in2="BackgroundImageFix" result="effect1_dropShadow_222_417"/>
<feBlend mode="normal" in="SourceGraphic" in2="effect1_dropShadow_222_417" result="shape"/>
</filter>
<clipPath id="clip0_222_417">
<rect width="92.1951" height="92.1951" fill="white" transform="translate(0.902344 0.902344)"/>
</clipPath>
</defs>
</svg>
