<svg width="32" height="32" viewBox="0 0 32 32" fill="none" xmlns="http://www.w3.org/2000/svg">
<path d="M5.34975 21.0156L7.60241 14.2576C8.62376 11.1936 9.13444 9.66155 10.3428 9.3763C11.5511 9.09105 12.693 10.233 14.9768 12.5168L19.4822 17.0221C21.766 19.3059 22.9079 20.4478 22.6226 21.6562C22.3374 22.8645 20.8054 23.3752 17.7413 24.3965L10.9833 26.6492C7.2961 27.8783 5.45249 28.4928 4.47931 27.5196C3.50614 26.5465 4.12068 24.7028 5.34975 21.0156Z" stroke="url(#paint0_linear_1030_708)" stroke-width="2" stroke-linecap="round"/>
<path d="M5.34975 21.0156L7.60241 14.2576C8.62376 11.1936 9.13444 9.66155 10.3428 9.3763C11.5511 9.09105 12.693 10.233 14.9768 12.5168L19.4822 17.0221C21.766 19.3059 22.9079 20.4478 22.6226 21.6562C22.3374 22.8645 20.8054 23.3752 17.7413 24.3965L10.9833 26.6492C7.2961 27.8783 5.45249 28.4928 4.47931 27.5196C3.50614 26.5465 4.12068 24.7028 5.34975 21.0156Z" stroke="url(#paint1_radial_1030_708)" stroke-opacity="0.3" stroke-width="2" stroke-linecap="round"/>
<path d="M16.3138 24.4617C16.3138 24.4617 15.3029 21.4202 15.3029 19.4072C15.3029 17.3943 16.3138 14.3528 16.3138 14.3528M10.7539 25.9781C10.7539 25.9781 9.90012 22.3089 9.74299 19.9127C9.48338 15.9537 10.7539 9.80371 10.7539 9.80371" stroke="url(#paint2_linear_1030_708)" stroke-width="2" stroke-linecap="round"/>
<path d="M16.3138 24.4617C16.3138 24.4617 15.3029 21.4202 15.3029 19.4072C15.3029 17.3943 16.3138 14.3528 16.3138 14.3528M10.7539 25.9781C10.7539 25.9781 9.90012 22.3089 9.74299 19.9127C9.48338 15.9537 10.7539 9.80371 10.7539 9.80371" stroke="url(#paint3_radial_1030_708)" stroke-opacity="0.3" stroke-width="2" stroke-linecap="round"/>
<path d="M19.3457 13.3415L19.5377 12.3816C19.7315 11.4124 20.4298 10.6214 21.3675 10.3088C22.3052 9.99626 23.0035 9.20524 23.1973 8.23604L23.3893 7.27612" stroke="url(#paint4_linear_1030_708)" stroke-width="2" stroke-linecap="round"/>
<path d="M19.3457 13.3415L19.5377 12.3816C19.7315 11.4124 20.4298 10.6214 21.3675 10.3088C22.3052 9.99626 23.0035 9.20524 23.1973 8.23604L23.3893 7.27612" stroke="url(#paint5_radial_1030_708)" stroke-opacity="0.3" stroke-width="2" stroke-linecap="round"/>
<path d="M23.4258 16.338L23.7096 16.5019C24.5857 17.0077 25.6873 16.8962 26.4442 16.2249C27.1297 15.6171 28.1059 15.4629 28.9453 15.83L29.334 15.9999" stroke="url(#paint6_linear_1030_708)" stroke-width="2" stroke-linecap="round"/>
<path d="M23.4258 16.338L23.7096 16.5019C24.5857 17.0077 25.6873 16.8962 26.4442 16.2249C27.1297 15.6171 28.1059 15.4629 28.9453 15.83L29.334 15.9999" stroke="url(#paint7_radial_1030_708)" stroke-opacity="0.3" stroke-width="2" stroke-linecap="round"/>
<path d="M14.0467 4C13.5967 4.73608 13.7094 5.68459 14.3195 6.29463L14.45 6.42514C14.9742 6.94935 15.1675 7.71945 14.953 8.42909" stroke="url(#paint8_linear_1030_708)" stroke-width="2" stroke-linecap="round"/>
<path d="M14.0467 4C13.5967 4.73608 13.7094 5.68459 14.3195 6.29463L14.45 6.42514C14.9742 6.94935 15.1675 7.71945 14.953 8.42909" stroke="url(#paint9_radial_1030_708)" stroke-opacity="0.3" stroke-width="2" stroke-linecap="round"/>
<path d="M18.081 5.86181C18.3491 5.59373 18.4832 5.45969 18.6381 5.41056C18.7692 5.36901 18.91 5.36901 19.0411 5.41056C19.196 5.45969 19.3301 5.59373 19.5982 5.86181C19.8662 6.12988 20.0003 6.26392 20.0494 6.4189C20.091 6.54999 20.091 6.69073 20.0494 6.82182C20.0003 6.9768 19.8662 7.11084 19.5982 7.37891C19.3301 7.64699 19.196 7.78103 19.0411 7.83016C18.91 7.87171 18.7692 7.87171 18.6381 7.83016C18.4832 7.78103 18.3491 7.64699 18.081 7.37891C17.813 7.11084 17.6789 6.9768 17.6298 6.82182C17.5882 6.69073 17.5882 6.54999 17.6298 6.4189C17.6789 6.26392 17.813 6.12988 18.081 5.86181Z" fill="url(#paint10_linear_1030_708)"/>
<path d="M18.081 5.86181C18.3491 5.59373 18.4832 5.45969 18.6381 5.41056C18.7692 5.36901 18.91 5.36901 19.0411 5.41056C19.196 5.45969 19.3301 5.59373 19.5982 5.86181C19.8662 6.12988 20.0003 6.26392 20.0494 6.4189C20.091 6.54999 20.091 6.69073 20.0494 6.82182C20.0003 6.9768 19.8662 7.11084 19.5982 7.37891C19.3301 7.64699 19.196 7.78103 19.0411 7.83016C18.91 7.87171 18.7692 7.87171 18.6381 7.83016C18.4832 7.78103 18.3491 7.64699 18.081 7.37891C17.813 7.11084 17.6789 6.9768 17.6298 6.82182C17.5882 6.69073 17.5882 6.54999 17.6298 6.4189C17.6789 6.26392 17.813 6.12988 18.081 5.86181Z" fill="url(#paint11_radial_1030_708)" fill-opacity="0.3"/>
<path d="M25.9573 9.95755C26.2845 9.63036 26.4481 9.46677 26.6326 9.39566C26.8486 9.31245 27.0878 9.31245 27.3038 9.39566C27.4883 9.46677 27.6519 9.63036 27.9791 9.95755C28.3063 10.2847 28.4699 10.4483 28.541 10.6329C28.6242 10.8489 28.6242 11.088 28.541 11.304C28.4699 11.4886 28.3063 11.6522 27.9791 11.9793C27.6519 12.3065 27.4883 12.4701 27.3038 12.5412C27.0878 12.6245 26.8486 12.6245 26.6326 12.5412C26.4481 12.4701 26.2845 12.3065 25.9573 11.9793C25.6301 11.6522 25.4665 11.4886 25.3954 11.304C25.3122 11.088 25.3122 10.8489 25.3954 10.6329C25.4665 10.4483 25.6301 10.2847 25.9573 9.95755Z" fill="url(#paint12_linear_1030_708)"/>
<path d="M25.9573 9.95755C26.2845 9.63036 26.4481 9.46677 26.6326 9.39566C26.8486 9.31245 27.0878 9.31245 27.3038 9.39566C27.4883 9.46677 27.6519 9.63036 27.9791 9.95755C28.3063 10.2847 28.4699 10.4483 28.541 10.6329C28.6242 10.8489 28.6242 11.088 28.541 11.304C28.4699 11.4886 28.3063 11.6522 27.9791 11.9793C27.6519 12.3065 27.4883 12.4701 27.3038 12.5412C27.0878 12.6245 26.8486 12.6245 26.6326 12.5412C26.4481 12.4701 26.2845 12.3065 25.9573 11.9793C25.6301 11.6522 25.4665 11.4886 25.3954 11.304C25.3122 11.088 25.3122 10.8489 25.3954 10.6329C25.4665 10.4483 25.6301 10.2847 25.9573 9.95755Z" fill="url(#paint13_radial_1030_708)" fill-opacity="0.3"/>
<path d="M9.23681 5.25439C9.5161 4.9751 9.96893 4.9751 10.2482 5.25439C10.5275 5.53368 10.5275 5.9865 10.2482 6.2658C9.96893 6.54509 9.5161 6.54509 9.23681 6.2658C8.95752 5.9865 8.95752 5.53368 9.23681 5.25439Z" fill="url(#paint14_linear_1030_708)"/>
<path d="M9.23681 5.25439C9.5161 4.9751 9.96893 4.9751 10.2482 5.25439C10.5275 5.53368 10.5275 5.9865 10.2482 6.2658C9.96893 6.54509 9.5161 6.54509 9.23681 6.2658C8.95752 5.9865 8.95752 5.53368 9.23681 5.25439Z" fill="url(#paint15_radial_1030_708)" fill-opacity="0.3"/>
<path d="M25.4106 20.4177C25.6899 20.1384 26.1428 20.1384 26.422 20.4177C26.7013 20.697 26.7013 21.1498 26.422 21.4291C26.1428 21.7084 25.6899 21.7084 25.4106 21.4291C25.1313 21.1498 25.1313 20.697 25.4106 20.4177Z" fill="url(#paint16_linear_1030_708)"/>
<path d="M25.4106 20.4177C25.6899 20.1384 26.1428 20.1384 26.422 20.4177C26.7013 20.697 26.7013 21.1498 26.422 21.4291C26.1428 21.7084 25.6899 21.7084 25.4106 21.4291C25.1313 21.1498 25.1313 20.697 25.4106 20.4177Z" fill="url(#paint17_radial_1030_708)" fill-opacity="0.3"/>
<path d="M23.3337 12.9886C23.613 12.7093 24.0658 12.7093 24.3451 12.9886C24.6244 13.2679 24.6244 13.7207 24.3451 14C24.0658 14.2793 23.613 14.2793 23.3337 14C23.0544 13.7207 23.0544 13.2679 23.3337 12.9886Z" fill="url(#paint18_linear_1030_708)"/>
<path d="M23.3337 12.9886C23.613 12.7093 24.0658 12.7093 24.3451 12.9886C24.6244 13.2679 24.6244 13.7207 24.3451 14C24.0658 14.2793 23.613 14.2793 23.3337 14C23.0544 13.7207 23.0544 13.2679 23.3337 12.9886Z" fill="url(#paint19_radial_1030_708)" fill-opacity="0.3"/>
<defs>
<linearGradient id="paint0_linear_1030_708" x1="7.91473" y1="9.33325" x2="24.5627" y2="11.2148" gradientUnits="userSpaceOnUse">
<stop stop-color="#0081AA"/>
<stop offset="1" stop-color="#711CC6"/>
</linearGradient>
<radialGradient id="paint1_radial_1030_708" cx="0" cy="0" r="1" gradientUnits="userSpaceOnUse" gradientTransform="translate(13.3324 9.33325) rotate(90) scale(18.6667)">
<stop stop-color="white"/>
<stop offset="0.730539" stop-color="white" stop-opacity="0"/>
</radialGradient>
<linearGradient id="paint2_linear_1030_708" x1="11.0937" y1="9.80371" x2="17.0477" y2="10.0785" gradientUnits="userSpaceOnUse">
<stop stop-color="#0081AA"/>
<stop offset="1" stop-color="#711CC6"/>
</linearGradient>
<radialGradient id="paint3_radial_1030_708" cx="0" cy="0" r="1" gradientUnits="userSpaceOnUse" gradientTransform="translate(13.0109 9.80371) rotate(90) scale(16.1744 6.60582)">
<stop stop-color="white"/>
<stop offset="0.730539" stop-color="white" stop-opacity="0"/>
</radialGradient>
<linearGradient id="paint4_linear_1030_708" x1="20.1939" y1="7.27612" x2="23.8257" y2="7.54976" gradientUnits="userSpaceOnUse">
<stop stop-color="#0081AA"/>
<stop offset="1" stop-color="#711CC6"/>
</linearGradient>
<radialGradient id="paint5_radial_1030_708" cx="0" cy="0" r="1" gradientUnits="userSpaceOnUse" gradientTransform="translate(21.3675 7.27612) rotate(90) scale(6.06539 4.0436)">
<stop stop-color="white"/>
<stop offset="0.730539" stop-color="white" stop-opacity="0"/>
</radialGradient>
<linearGradient id="paint6_linear_1030_708" x1="24.6651" y1="15.6331" x2="28.7135" y2="17.9167" gradientUnits="userSpaceOnUse">
<stop stop-color="#0081AA"/>
<stop offset="1" stop-color="#711CC6"/>
</linearGradient>
<radialGradient id="paint7_radial_1030_708" cx="0" cy="0" r="1" gradientUnits="userSpaceOnUse" gradientTransform="translate(26.3799 15.6331) rotate(90) scale(1.18374 5.90817)">
<stop stop-color="white"/>
<stop offset="0.730539" stop-color="white" stop-opacity="0"/>
</radialGradient>
<linearGradient id="paint8_linear_1030_708" x1="14.0382" y1="4" x2="15.181" y2="4.03694" gradientUnits="userSpaceOnUse">
<stop stop-color="#0081AA"/>
<stop offset="1" stop-color="#711CC6"/>
</linearGradient>
<radialGradient id="paint9_radial_1030_708" cx="0" cy="0" r="1" gradientUnits="userSpaceOnUse" gradientTransform="translate(14.4058 4) rotate(90) scale(4.42909 1.26662)">
<stop stop-color="white"/>
<stop offset="0.730539" stop-color="white" stop-opacity="0"/>
</radialGradient>
<linearGradient id="paint10_linear_1030_708" x1="18.1193" y1="5.37939" x2="20.3328" y2="5.62957" gradientUnits="userSpaceOnUse">
<stop stop-color="#0081AA"/>
<stop offset="1" stop-color="#711CC6"/>
</linearGradient>
<radialGradient id="paint11_radial_1030_708" cx="0" cy="0" r="1" gradientUnits="userSpaceOnUse" gradientTransform="translate(18.8396 5.37939) rotate(90) scale(2.48193)">
<stop stop-color="white"/>
<stop offset="0.730539" stop-color="white" stop-opacity="0"/>
</radialGradient>
<linearGradient id="paint12_linear_1030_708" x1="26.019" y1="9.33325" x2="28.9358" y2="9.6629" gradientUnits="userSpaceOnUse">
<stop stop-color="#0081AA"/>
<stop offset="1" stop-color="#711CC6"/>
</linearGradient>
<radialGradient id="paint13_radial_1030_708" cx="0" cy="0" r="1" gradientUnits="userSpaceOnUse" gradientTransform="translate(26.9682 9.33325) rotate(90) scale(3.2704)">
<stop stop-color="white"/>
<stop offset="0.730539" stop-color="white" stop-opacity="0"/>
</radialGradient>
<linearGradient id="paint14_linear_1030_708" x1="9.32739" y1="5.04492" x2="10.603" y2="5.1891" gradientUnits="userSpaceOnUse">
<stop stop-color="#0081AA"/>
<stop offset="1" stop-color="#711CC6"/>
</linearGradient>
<radialGradient id="paint15_radial_1030_708" cx="0" cy="0" r="1" gradientUnits="userSpaceOnUse" gradientTransform="translate(9.74252 5.04492) rotate(90) scale(1.43034)">
<stop stop-color="white"/>
<stop offset="0.730539" stop-color="white" stop-opacity="0"/>
</radialGradient>
<linearGradient id="paint16_linear_1030_708" x1="25.5012" y1="20.2083" x2="26.7769" y2="20.3524" gradientUnits="userSpaceOnUse">
<stop stop-color="#0081AA"/>
<stop offset="1" stop-color="#711CC6"/>
</linearGradient>
<radialGradient id="paint17_radial_1030_708" cx="0" cy="0" r="1" gradientUnits="userSpaceOnUse" gradientTransform="translate(25.9163 20.2083) rotate(90) scale(1.43034)">
<stop stop-color="white"/>
<stop offset="0.730539" stop-color="white" stop-opacity="0"/>
</radialGradient>
<linearGradient id="paint18_linear_1030_708" x1="23.4241" y1="12.7793" x2="24.6997" y2="12.9235" gradientUnits="userSpaceOnUse">
<stop stop-color="#0081AA"/>
<stop offset="1" stop-color="#711CC6"/>
</linearGradient>
<radialGradient id="paint19_radial_1030_708" cx="0" cy="0" r="1" gradientUnits="userSpaceOnUse" gradientTransform="translate(23.8392 12.7793) rotate(90) scale(1.43034)">
<stop stop-color="white"/>
<stop offset="0.730539" stop-color="white" stop-opacity="0"/>
</radialGradient>
</defs>
</svg>
