<svg width="64" height="74" viewBox="0 0 64 74" fill="none" xmlns="http://www.w3.org/2000/svg">
<g clip-path="url(#clip0_224_1500)">
<path d="M38.1971 11.3787C37.4181 11.3787 36.825 11.9644 36.825 12.802C36.825 13.6412 37.4181 14.2663 38.1971 14.2663C39.0025 14.2663 39.5692 13.6806 39.5692 12.802C39.5692 11.9911 38.976 11.3787 38.1971 11.3787ZM38.1971 11.3787C37.4181 11.3787 36.825 11.9644 36.825 12.802C36.825 13.6412 37.4181 14.2663 38.1971 14.2663C39.0025 14.2663 39.5692 13.6806 39.5692 12.802C39.5692 11.9911 38.976 11.3787 38.1971 11.3787ZM33.3549 11.3913H32.9319V12.643H33.3284C33.6312 12.643 34.1073 12.5627 34.1073 12.0179C34.1073 11.8573 34.1073 11.3913 33.3549 11.3913ZM33.3549 11.3913H32.9319V12.643H33.3284C33.6312 12.643 34.1073 12.5627 34.1073 12.0179C34.1073 11.8573 34.1073 11.3913 33.3549 11.3913ZM41.7467 25.4592H41.3112V26.6841C41.4689 26.7093 41.575 26.7093 41.7202 26.7093C42.0105 26.7093 42.4851 26.6306 42.4851 26.0574C42.4851 25.9252 42.4851 25.4592 41.7467 25.4592ZM41.7467 25.4592H41.3112V26.6841C41.4689 26.7093 41.575 26.7093 41.7202 26.7093C42.0105 26.7093 42.4851 26.6306 42.4851 26.0574C42.4851 25.9252 42.4851 25.4592 41.7467 25.4592ZM17.0068 18.3929C16.1889 18.3929 15.6347 18.9771 15.6347 19.8163C15.6347 20.668 16.2279 21.2931 17.0068 21.2931C17.8123 21.2931 18.3399 20.6948 18.3399 19.8163C18.3399 19.018 17.7858 18.3929 17.0068 18.3929ZM17.0068 18.3929C16.1889 18.3929 15.6347 18.9771 15.6347 19.8163C15.6347 20.668 16.2279 21.2931 17.0068 21.2931C17.8123 21.2931 18.3399 20.6948 18.3399 19.8163C18.3399 19.018 17.7858 18.3929 17.0068 18.3929ZM38.7247 18.3929C37.9598 18.3929 37.3666 18.9771 37.3666 19.8163C37.3666 20.668 37.9598 21.2931 38.7247 21.2931C39.5426 21.2931 40.0968 20.6948 40.0968 19.8163C40.0968 19.018 39.5161 18.3929 38.7247 18.3929ZM38.7247 18.3929C37.9598 18.3929 37.3666 18.9771 37.3666 19.8163C37.3666 20.668 37.9598 21.2931 38.7247 21.2931C39.5426 21.2931 40.0968 20.6948 40.0968 19.8163C40.0968 19.018 39.5161 18.3929 38.7247 18.3929ZM26.5865 25.4592H26.2166V26.6306H26.6131C26.9955 26.6306 27.3639 26.4038 27.3639 26.0307C27.3639 25.7914 27.2859 25.4592 26.5865 25.4592ZM26.5865 25.4592H26.2166V26.6306H26.6131C26.9955 26.6306 27.3639 26.4038 27.3639 26.0307C27.3639 25.7914 27.2859 25.4592 26.5865 25.4592ZM31.6659 25.4056C30.887 25.4056 30.3204 26.0307 30.3204 26.8699C30.3204 27.6807 30.887 28.3074 31.6659 28.3074C32.4714 28.3074 33.038 27.7075 33.038 26.8699C33.038 26.0307 32.4449 25.4056 31.6659 25.4056ZM31.6659 25.4056C30.887 25.4056 30.3204 26.0307 30.3204 26.8699C30.3204 27.6807 30.887 28.3074 31.6659 28.3074C32.4714 28.3074 33.038 27.7075 33.038 26.8699C33.038 26.0307 32.4449 25.4056 31.6659 25.4056ZM33.3549 11.3913H32.9319V12.643H33.3284C33.6312 12.643 34.1073 12.5627 34.1073 12.0179C34.1073 11.8573 34.1073 11.3913 33.3549 11.3913ZM38.1971 11.3787C37.4181 11.3787 36.825 11.9644 36.825 12.802C36.825 13.6412 37.4181 14.2663 38.1971 14.2663C39.0025 14.2663 39.5692 13.6806 39.5692 12.802C39.5692 11.9911 38.976 11.3787 38.1971 11.3787ZM33.3549 11.3913H32.9319V12.643H33.3284C33.6312 12.643 34.1073 12.5627 34.1073 12.0179C34.1073 11.8573 34.1073 11.3913 33.3549 11.3913ZM38.1971 11.3787C37.4181 11.3787 36.825 11.9644 36.825 12.802C36.825 13.6412 37.4181 14.2663 38.1971 14.2663C39.0025 14.2663 39.5692 13.6806 39.5692 12.802C39.5692 11.9911 38.976 11.3787 38.1971 11.3787ZM33.3549 11.3913H32.9319V12.643H33.3284C33.6312 12.643 34.1073 12.5627 34.1073 12.0179C34.1073 11.8573 34.1073 11.3913 33.3549 11.3913ZM38.1971 11.3787C37.4181 11.3787 36.825 11.9644 36.825 12.802C36.825 13.6412 37.4181 14.2663 38.1971 14.2663C39.0025 14.2663 39.5692 13.6806 39.5692 12.802C39.5692 11.9911 38.976 11.3787 38.1971 11.3787ZM33.3549 11.3913H32.9319V12.643H33.3284C33.6312 12.643 34.1073 12.5627 34.1073 12.0179C34.1073 11.8573 34.1073 11.3913 33.3549 11.3913ZM38.1971 11.3787C37.4181 11.3787 36.825 11.9644 36.825 12.802C36.825 13.6412 37.4181 14.2663 38.1971 14.2663C39.0025 14.2663 39.5692 13.6806 39.5692 12.802C39.5692 11.9911 38.976 11.3787 38.1971 11.3787ZM33.3549 11.3913H32.9319V12.643H33.3284C33.6312 12.643 34.1073 12.5627 34.1073 12.0179C34.1073 11.8573 34.1073 11.3913 33.3549 11.3913ZM38.1971 11.3787C37.4181 11.3787 36.825 11.9644 36.825 12.802C36.825 13.6412 37.4181 14.2663 38.1971 14.2663C39.0025 14.2663 39.5692 13.6806 39.5692 12.802C39.5692 11.9911 38.976 11.3787 38.1971 11.3787ZM33.3549 11.3913H32.9319V12.643H33.3284C33.6312 12.643 34.1073 12.5627 34.1073 12.0179C34.1073 11.8573 34.1073 11.3913 33.3549 11.3913ZM38.1971 11.3787C37.4181 11.3787 36.825 11.9644 36.825 12.802C36.825 13.6412 37.4181 14.2663 38.1971 14.2663C39.0025 14.2663 39.5692 13.6806 39.5692 12.802C39.5692 11.9911 38.976 11.3787 38.1971 11.3787ZM33.3549 11.3913H32.9319V12.643H33.3284C33.6312 12.643 34.1073 12.5627 34.1073 12.0179C34.1073 11.8573 34.1073 11.3913 33.3549 11.3913ZM38.1971 11.3787C37.4181 11.3787 36.825 11.9644 36.825 12.802C36.825 13.6412 37.4181 14.2663 38.1971 14.2663C39.0025 14.2663 39.5692 13.6806 39.5692 12.802C39.5692 11.9911 38.976 11.3787 38.1971 11.3787ZM38.7247 18.3929C37.9598 18.3929 37.3666 18.9771 37.3666 19.8163C37.3666 20.668 37.9598 21.2931 38.7247 21.2931C39.5426 21.2931 40.0968 20.6948 40.0968 19.8163C40.0968 19.018 39.5161 18.3929 38.7247 18.3929ZM33.3549 11.3913H32.9319V12.643H33.3284C33.6312 12.643 34.1073 12.5627 34.1073 12.0179C34.1073 11.8573 34.1073 11.3913 33.3549 11.3913ZM38.1971 11.3787C37.4181 11.3787 36.825 11.9644 36.825 12.802C36.825 13.6412 37.4181 14.2663 38.1971 14.2663C39.0025 14.2663 39.5692 13.6806 39.5692 12.802C39.5692 11.9911 38.976 11.3787 38.1971 11.3787ZM38.7247 18.3929C37.9598 18.3929 37.3666 18.9771 37.3666 19.8163C37.3666 20.668 37.9598 21.2931 38.7247 21.2931C39.5426 21.2931 40.0968 20.6948 40.0968 19.8163C40.0968 19.018 39.5161 18.3929 38.7247 18.3929ZM33.3549 11.3913H32.9319V12.643H33.3284C33.6312 12.643 34.1073 12.5627 34.1073 12.0179C34.1073 11.8573 34.1073 11.3913 33.3549 11.3913ZM38.1971 11.3787C37.4181 11.3787 36.825 11.9644 36.825 12.802C36.825 13.6412 37.4181 14.2663 38.1971 14.2663C39.0025 14.2663 39.5692 13.6806 39.5692 12.802C39.5692 11.9911 38.976 11.3787 38.1971 11.3787ZM38.7247 18.3929C37.9598 18.3929 37.3666 18.9771 37.3666 19.8163C37.3666 20.668 37.9598 21.2931 38.7247 21.2931C39.5426 21.2931 40.0968 20.6948 40.0968 19.8163C40.0968 19.018 39.5161 18.3929 38.7247 18.3929ZM33.3549 11.3913H32.9319V12.643H33.3284C33.6312 12.643 34.1073 12.5627 34.1073 12.0179C34.1073 11.8573 34.1073 11.3913 33.3549 11.3913ZM38.1971 11.3787C37.4181 11.3787 36.825 11.9644 36.825 12.802C36.825 13.6412 37.4181 14.2663 38.1971 14.2663C39.0025 14.2663 39.5692 13.6806 39.5692 12.802C39.5692 11.9911 38.976 11.3787 38.1971 11.3787ZM38.7247 18.3929C37.9598 18.3929 37.3666 18.9771 37.3666 19.8163C37.3666 20.668 37.9598 21.2931 38.7247 21.2931C39.5426 21.2931 40.0968 20.6948 40.0968 19.8163C40.0968 19.018 39.5161 18.3929 38.7247 18.3929ZM17.0068 18.3929C16.1889 18.3929 15.6347 18.9771 15.6347 19.8163C15.6347 20.668 16.2279 21.2931 17.0068 21.2931C17.8123 21.2931 18.3399 20.6948 18.3399 19.8163C18.3399 19.018 17.7858 18.3929 17.0068 18.3929ZM33.3549 11.3913H32.9319V12.643H33.3284C33.6312 12.643 34.1073 12.5627 34.1073 12.0179C34.1073 11.8573 34.1073 11.3913 33.3549 11.3913ZM38.1971 11.3787C37.4181 11.3787 36.825 11.9644 36.825 12.802C36.825 13.6412 37.4181 14.2663 38.1971 14.2663C39.0025 14.2663 39.5692 13.6806 39.5692 12.802C39.5692 11.9911 38.976 11.3787 38.1971 11.3787ZM38.7247 18.3929C37.9598 18.3929 37.3666 18.9771 37.3666 19.8163C37.3666 20.668 37.9598 21.2931 38.7247 21.2931C39.5426 21.2931 40.0968 20.6948 40.0968 19.8163C40.0968 19.018 39.5161 18.3929 38.7247 18.3929ZM17.0068 18.3929C16.1889 18.3929 15.6347 18.9771 15.6347 19.8163C15.6347 20.668 16.2279 21.2931 17.0068 21.2931C17.8123 21.2931 18.3399 20.6948 18.3399 19.8163C18.3399 19.018 17.7858 18.3929 17.0068 18.3929ZM33.3549 11.3913H32.9319V12.643H33.3284C33.6312 12.643 34.1073 12.5627 34.1073 12.0179C34.1073 11.8573 34.1073 11.3913 33.3549 11.3913ZM38.1971 11.3787C37.4181 11.3787 36.825 11.9644 36.825 12.802C36.825 13.6412 37.4181 14.2663 38.1971 14.2663C39.0025 14.2663 39.5692 13.6806 39.5692 12.802C39.5692 11.9911 38.976 11.3787 38.1971 11.3787ZM38.7247 18.3929C37.9598 18.3929 37.3666 18.9771 37.3666 19.8163C37.3666 20.668 37.9598 21.2931 38.7247 21.2931C39.5426 21.2931 40.0968 20.6948 40.0968 19.8163C40.0968 19.018 39.5161 18.3929 38.7247 18.3929ZM17.0068 18.3929C16.1889 18.3929 15.6347 18.9771 15.6347 19.8163C15.6347 20.668 16.2279 21.2931 17.0068 21.2931C17.8123 21.2931 18.3399 20.6948 18.3399 19.8163C18.3399 19.018 17.7858 18.3929 17.0068 18.3929ZM33.3549 11.3913H32.9319V12.643H33.3284C33.6312 12.643 34.1073 12.5627 34.1073 12.0179C34.1073 11.8573 34.1073 11.3913 33.3549 11.3913ZM38.1971 11.3787C37.4181 11.3787 36.825 11.9644 36.825 12.802C36.825 13.6412 37.4181 14.2663 38.1971 14.2663C39.0025 14.2663 39.5692 13.6806 39.5692 12.802C39.5692 11.9911 38.976 11.3787 38.1971 11.3787ZM38.7247 18.3929C37.9598 18.3929 37.3666 18.9771 37.3666 19.8163C37.3666 20.668 37.9598 21.2931 38.7247 21.2931C39.5426 21.2931 40.0968 20.6948 40.0968 19.8163C40.0968 19.018 39.5161 18.3929 38.7247 18.3929ZM17.0068 18.3929C16.1889 18.3929 15.6347 18.9771 15.6347 19.8163C15.6347 20.668 16.2279 21.2931 17.0068 21.2931C17.8123 21.2931 18.3399 20.6948 18.3399 19.8163C18.3399 19.018 17.7858 18.3929 17.0068 18.3929ZM33.3549 11.3913H32.9319V12.643H33.3284C33.6312 12.643 34.1073 12.5627 34.1073 12.0179C34.1073 11.8573 34.1073 11.3913 33.3549 11.3913ZM38.1971 11.3787C37.4181 11.3787 36.825 11.9644 36.825 12.802C36.825 13.6412 37.4181 14.2663 38.1971 14.2663C39.0025 14.2663 39.5692 13.6806 39.5692 12.802C39.5692 11.9911 38.976 11.3787 38.1971 11.3787ZM38.7247 18.3929C37.9598 18.3929 37.3666 18.9771 37.3666 19.8163C37.3666 20.668 37.9598 21.2931 38.7247 21.2931C39.5426 21.2931 40.0968 20.6948 40.0968 19.8163C40.0968 19.018 39.5161 18.3929 38.7247 18.3929ZM17.0068 18.3929C16.1889 18.3929 15.6347 18.9771 15.6347 19.8163C15.6347 20.668 16.2279 21.2931 17.0068 21.2931C17.8123 21.2931 18.3399 20.6948 18.3399 19.8163C18.3399 19.018 17.7858 18.3929 17.0068 18.3929ZM26.5865 25.4592H26.2166V26.6306H26.6131C26.9955 26.6306 27.3639 26.4038 27.3639 26.0307C27.3639 25.7914 27.2859 25.4592 26.5865 25.4592ZM31.6659 25.4056C30.887 25.4056 30.3204 26.0307 30.3204 26.8699C30.3204 27.6807 30.887 28.3074 31.6659 28.3074C32.4714 28.3074 33.038 27.7075 33.038 26.8699C33.038 26.0307 32.4449 25.4056 31.6659 25.4056ZM33.3549 11.3913H32.9319V12.643H33.3284C33.6312 12.643 34.1073 12.5627 34.1073 12.0179C34.1073 11.8573 34.1073 11.3913 33.3549 11.3913ZM38.1971 11.3787C37.4181 11.3787 36.825 11.9644 36.825 12.802C36.825 13.6412 37.4181 14.2663 38.1971 14.2663C39.0025 14.2663 39.5692 13.6806 39.5692 12.802C39.5692 11.9911 38.976 11.3787 38.1971 11.3787ZM38.7247 18.3929C37.9598 18.3929 37.3666 18.9771 37.3666 19.8163C37.3666 20.668 37.9598 21.2931 38.7247 21.2931C39.5426 21.2931 40.0968 20.6948 40.0968 19.8163C40.0968 19.018 39.5161 18.3929 38.7247 18.3929ZM17.0068 18.3929C16.1889 18.3929 15.6347 18.9771 15.6347 19.8163C15.6347 20.668 16.2279 21.2931 17.0068 21.2931C17.8123 21.2931 18.3399 20.6948 18.3399 19.8163C18.3399 19.018 17.7858 18.3929 17.0068 18.3929ZM26.5865 25.4592H26.2166V26.6306H26.6131C26.9955 26.6306 27.3639 26.4038 27.3639 26.0307C27.3639 25.7914 27.2859 25.4592 26.5865 25.4592ZM31.6659 25.4056C30.887 25.4056 30.3204 26.0307 30.3204 26.8699C30.3204 27.6807 30.887 28.3074 31.6659 28.3074C32.4714 28.3074 33.038 27.7075 33.038 26.8699C33.038 26.0307 32.4449 25.4056 31.6659 25.4056ZM33.3549 11.3913H32.9319V12.643H33.3284C33.6312 12.643 34.1073 12.5627 34.1073 12.0179C34.1073 11.8573 34.1073 11.3913 33.3549 11.3913ZM38.1971 11.3787C37.4181 11.3787 36.825 11.9644 36.825 12.802C36.825 13.6412 37.4181 14.2663 38.1971 14.2663C39.0025 14.2663 39.5692 13.6806 39.5692 12.802C39.5692 11.9911 38.976 11.3787 38.1971 11.3787ZM38.7247 18.3929C37.9598 18.3929 37.3666 18.9771 37.3666 19.8163C37.3666 20.668 37.9598 21.2931 38.7247 21.2931C39.5426 21.2931 40.0968 20.6948 40.0968 19.8163C40.0968 19.018 39.5161 18.3929 38.7247 18.3929ZM17.0068 21.2931C17.8123 21.2931 18.3399 20.6948 18.3399 19.8163C18.3399 19.018 17.7858 18.3929 17.0068 18.3929C16.1889 18.3929 15.6347 18.9771 15.6347 19.8163C15.6347 20.668 16.2279 21.2931 17.0068 21.2931ZM26.5865 25.4592H26.2166V26.6306H26.6131C26.9955 26.6306 27.3639 26.4038 27.3639 26.0307C27.3639 25.7914 27.2859 25.4592 26.5865 25.4592ZM31.6659 25.4056C30.887 25.4056 30.3204 26.0307 30.3204 26.8699C30.3204 27.6807 30.887 28.3074 31.6659 28.3074C32.4714 28.3074 33.038 27.7075 33.038 26.8699C33.038 26.0307 32.4449 25.4056 31.6659 25.4056ZM34.1073 12.0179C34.1073 11.8573 34.1073 11.3913 33.3549 11.3913H32.9319V12.643H33.3284C33.6312 12.643 34.1073 12.5627 34.1073 12.0179ZM38.1971 14.2663C39.0025 14.2663 39.5692 13.6806 39.5692 12.802C39.5692 11.9911 38.976 11.3787 38.1971 11.3787C37.4181 11.3787 36.825 11.9644 36.825 12.802C36.825 13.6412 37.4181 14.2663 38.1971 14.2663ZM38.7247 18.3929C37.9598 18.3929 37.3666 18.9771 37.3666 19.8163C37.3666 20.668 37.9598 21.2931 38.7247 21.2931C39.5426 21.2931 40.0968 20.6948 40.0968 19.8163C40.0968 19.018 39.5161 18.3929 38.7247 18.3929ZM42.4851 26.0574C42.4851 25.9252 42.4851 25.4592 41.7467 25.4592H41.3112V26.6841C41.4689 26.7093 41.575 26.7093 41.7202 26.7093C42.0105 26.7093 42.4851 26.6306 42.4851 26.0574ZM57.9621 45.4754C57.9091 46.2736 57.5001 47.9772 57.422 48.0827C56.089 52.1417 52.263 55.0969 47.7502 55.0969C42.1151 55.0969 37.5243 50.4916 37.5243 44.77C37.5243 39.0862 42.1151 34.4824 47.7502 34.4824C52.1038 34.4824 55.8377 37.2503 57.3159 41.1235H50.8503C50.0199 40.4182 48.9366 39.9789 47.7502 39.9789C45.1247 39.9789 42.9737 42.1217 42.9737 44.77C42.9737 47.4576 45.1247 49.6005 47.7502 49.6005C48.9631 49.6005 50.0449 49.1612 50.8769 48.4291H46.6014C46.1924 48.4291 45.8755 48.1094 45.8755 47.6969V44.104C45.8755 43.7183 46.1924 43.3986 46.6014 43.3986H57.3159C57.7249 43.3986 58.0418 43.7183 58.0418 44.104L57.9621 45.4754ZM35.2156 27.1627V24.62H36.0726V27.0557C36.0726 27.5217 36.2053 28.3074 37.0888 28.3074C37.8146 28.3074 37.9723 27.6555 37.9723 27.1092V24.62H38.8433V27.1895C38.8433 28.627 37.9208 29.145 37.0888 29.145C35.9415 29.145 35.2156 28.3877 35.2156 27.1627ZM36.3895 38.7933C36.3895 39.1932 36.0726 39.4987 35.6636 39.4987H27.5231V46.9648C27.5231 47.3521 27.2328 47.6702 26.8363 47.6702H22.1659C21.7569 47.6702 21.44 47.3521 21.44 46.9648V35.1878C21.44 34.802 21.7569 34.4824 22.1659 34.4824H35.6636C36.0726 34.4824 36.3895 34.802 36.3895 35.1878V38.7933ZM36.3895 54.4451C36.3895 54.5774 36.3364 54.7112 36.2833 54.8309C36.1522 55.0434 35.9415 55.1772 35.6636 55.1772H22.1659C21.7569 55.1772 21.44 54.8576 21.44 54.4451V50.838C21.44 50.4649 21.7569 50.1468 22.1659 50.1468H30.2939V42.6933C30.2939 42.2808 30.5967 41.9879 30.9932 41.9879H35.6636C36.0726 41.9879 36.3895 42.2808 36.3895 42.6933V54.4451ZM20.0148 26.8699C20.0148 25.5394 20.9264 24.568 22.1924 24.568C22.7465 24.568 23.2086 24.7003 23.577 24.9931L23.6972 25.1002L23.2882 25.8323L23.129 25.6717C22.9448 25.5127 22.5889 25.4056 22.2314 25.4056C21.4275 25.4056 20.8999 25.9787 20.8999 26.8699C20.8999 27.7343 21.4275 28.3074 22.272 28.3074C22.5623 28.3074 22.9182 28.2003 23.129 28.0539V27.4949H22.0207V26.6306H23.961V28.4664L23.9079 28.5199C23.4724 28.9592 22.7465 29.145 22.2314 29.145C20.8734 29.145 20.0148 28.2538 20.0148 26.8699ZM19.9368 38.7807C19.9368 39.1932 19.6324 39.4987 19.2375 39.4987H11.0954V42.3075H19.2375C19.6324 42.3075 19.9368 42.6397 19.9368 43.0129V46.62C19.9368 47.0183 19.6324 47.3254 19.2375 47.3254H11.0954V50.1326H19.2375C19.6324 50.1326 19.9368 50.4649 19.9368 50.8522V54.4451C19.9368 54.8576 19.6324 55.1772 19.2375 55.1772H5.69912C5.64605 55.1772 5.60702 55.1505 5.55395 55.1505C5.52741 55.1505 5.50088 55.1237 5.47434 55.1237C5.18556 55.0434 4.9998 54.7773 4.9998 54.4451V35.1878C4.9998 34.802 5.31668 34.4824 5.69912 34.4824H19.2375C19.6324 34.4824 19.9368 34.802 19.9368 35.1878V38.7807ZM12.0585 20.1752C11.5184 19.9359 10.8316 19.6572 10.8316 18.7913C10.8316 18.0592 11.4123 17.5537 12.2443 17.5537C12.7579 17.5537 13.2464 17.7128 13.5102 18.0324L13.6164 18.1394L13.1278 18.818L12.9701 18.659C12.7844 18.4717 12.5737 18.3929 12.2708 18.3929C11.9274 18.3929 11.7417 18.552 11.7417 18.7913C11.7417 19.1235 12.007 19.2573 12.494 19.4431C13.0217 19.6572 13.721 19.9627 13.721 20.8271C13.721 21.586 13.0747 22.1323 12.1912 22.1323C11.6901 22.1323 11.0174 21.8788 10.766 21.4269L10.6864 21.3073L11.2281 20.6948L11.3592 20.8806C11.584 21.1467 11.954 21.2931 12.2178 21.2931C12.5206 21.2931 12.8109 21.1467 12.8109 20.8271C12.8109 20.509 12.5471 20.3626 12.0585 20.1752ZM17.0068 17.5537C18.2868 17.5537 19.2624 18.4984 19.2624 19.8163C19.2624 21.1467 18.2868 22.1323 17.0068 22.1323C15.6878 22.1323 14.7512 21.1467 14.7512 19.8163C14.7512 18.5252 15.7143 17.5537 17.0068 17.5537ZM20.5955 17.6073H21.4665V21.227H23.4724V22.0788H20.5955V17.6073ZM23.2617 10.5537H25.9138V11.418H24.1186V12.3769H25.728V13.2145H24.1186V14.186H25.9793V15.0519H23.2617V10.5537ZM27.2859 20.0697V17.6073H28.1694V20.1752C28.1694 21.6127 27.2593 22.1323 26.4008 22.1323C25.2535 22.1323 24.5541 21.3734 24.5541 20.1217V17.6073H25.4111V20.043C25.4111 20.509 25.5438 21.2931 26.4008 21.2931C27.1532 21.2931 27.2859 20.6413 27.2859 20.0697ZM28.9218 29.0914H27.8525L26.5865 27.4682H26.2166V29.0914H25.3596V24.62H26.6131C28.0382 24.62 28.2615 25.4859 28.2615 26.0307C28.2615 26.6306 27.9056 27.0557 27.5091 27.2682L28.9218 29.0914ZM26.8098 10.5537H27.826L28.9077 12.0714L29.977 10.5537H31.0197L29.4619 12.7768L31.0728 15.0519H30.03L28.9077 13.4822L27.7729 15.0519H26.7317L28.3676 12.7768L26.8098 10.5537ZM32.9319 17.6073V18.4449H31.5083V22.0788H30.6498V18.4449H29.2246V17.6073H32.9319ZM33.9216 26.8699C33.9216 28.1735 32.9584 29.145 31.6659 29.145C30.3735 29.145 29.4103 28.2003 29.4103 26.8699C29.4103 25.5394 30.3735 24.568 31.6659 24.568C32.985 24.568 33.9216 25.5394 33.9216 26.8699ZM35.0299 22.0646H34.1323V17.6057H35.0299V22.0646ZM32.0749 10.5537H33.3019C34.8332 10.5537 34.9908 11.5912 34.9908 12.0179C34.9908 12.75 34.4898 13.4822 33.3549 13.4822H32.9319V15.0519H32.0749V10.5537ZM38.1971 10.5001C39.5161 10.5001 40.4527 11.4857 40.4527 12.802C40.4527 14.1072 39.4771 15.1054 38.1971 15.1054C36.878 15.1054 35.9415 14.134 35.9415 12.802C35.9415 11.5125 36.9046 10.5001 38.1971 10.5001ZM38.7247 22.1323C37.4181 22.1323 36.4816 21.1467 36.4816 19.8163C36.4816 18.5252 37.4447 17.5537 38.7247 17.5537C40.0437 17.5537 40.9943 18.4984 40.9943 19.8163C40.9943 21.1467 40.0172 22.1323 38.7247 22.1323ZM43.3826 26.0842C43.3826 26.8163 42.8675 27.5485 41.7467 27.5485H41.3112V29.0914H40.4527V24.62H41.6812C43.2109 24.62 43.3826 25.6182 43.3826 26.0842ZM42.3274 17.6073H43.0002L45.2558 20.4681V17.6073H46.0878V22.0788H45.415L43.1579 19.2038V22.0788H42.3274V17.6073ZM48.832 20.202C48.2903 19.9894 47.591 19.6966 47.591 18.818C47.591 18.0859 48.1858 17.5805 49.0162 17.5805C49.5313 17.5805 50.0059 17.7663 50.2837 18.0592L50.3883 18.1662L49.9013 18.8448L49.742 18.6842C49.5578 18.4984 49.3456 18.4181 49.0427 18.4181C48.6993 18.4181 48.5151 18.5787 48.5151 18.818C48.5151 19.1503 48.7789 19.2841 49.2675 19.4699C49.7951 19.7092 50.4944 19.9894 50.4944 20.8538C50.4944 21.6127 49.8482 22.1858 48.9631 22.1858C48.4496 22.1858 47.7893 21.9056 47.5395 21.4537L47.4599 21.3466L48 20.7216L48.1327 20.9074C48.3434 21.2002 48.7259 21.3073 48.9897 21.3073C49.28 21.3073 49.5844 21.1734 49.5844 20.8806C49.5844 20.5484 49.28 20.4146 48.832 20.202ZM31.5083 0L0 18.3394V55.0434L31.5083 73.3828L63.015 55.0434V18.3394L31.5083 0ZM38.7247 18.3929C37.9598 18.3929 37.3666 18.9771 37.3666 19.8163C37.3666 20.668 37.9598 21.2931 38.7247 21.2931C39.5426 21.2931 40.0968 20.6948 40.0968 19.8163C40.0968 19.018 39.5161 18.3929 38.7247 18.3929ZM38.1971 11.3787C37.4181 11.3787 36.825 11.9644 36.825 12.802C36.825 13.6412 37.4181 14.2663 38.1971 14.2663C39.0025 14.2663 39.5692 13.6806 39.5692 12.802C39.5692 11.9911 38.976 11.3787 38.1971 11.3787ZM33.3549 11.3913H32.9319V12.643H33.3284C33.6312 12.643 34.1073 12.5627 34.1073 12.0179C34.1073 11.8573 34.1073 11.3913 33.3549 11.3913ZM31.6659 25.4056C30.887 25.4056 30.3204 26.0307 30.3204 26.8699C30.3204 27.6807 30.887 28.3074 31.6659 28.3074C32.4714 28.3074 33.038 27.7075 33.038 26.8699C33.038 26.0307 32.4449 25.4056 31.6659 25.4056ZM26.5865 25.4592H26.2166V26.6306H26.6131C26.9955 26.6306 27.3639 26.4038 27.3639 26.0307C27.3639 25.7914 27.2859 25.4592 26.5865 25.4592ZM17.0068 18.3929C16.1889 18.3929 15.6347 18.9771 15.6347 19.8163C15.6347 20.668 16.2279 21.2931 17.0068 21.2931C17.8123 21.2931 18.3399 20.6948 18.3399 19.8163C18.3399 19.018 17.7858 18.3929 17.0068 18.3929ZM38.7247 18.3929C37.9598 18.3929 37.3666 18.9771 37.3666 19.8163C37.3666 20.668 37.9598 21.2931 38.7247 21.2931C39.5426 21.2931 40.0968 20.6948 40.0968 19.8163C40.0968 19.018 39.5161 18.3929 38.7247 18.3929ZM38.1971 11.3787C37.4181 11.3787 36.825 11.9644 36.825 12.802C36.825 13.6412 37.4181 14.2663 38.1971 14.2663C39.0025 14.2663 39.5692 13.6806 39.5692 12.802C39.5692 11.9911 38.976 11.3787 38.1971 11.3787ZM33.3549 11.3913H32.9319V12.643H33.3284C33.6312 12.643 34.1073 12.5627 34.1073 12.0179C34.1073 11.8573 34.1073 11.3913 33.3549 11.3913ZM31.6659 25.4056C30.887 25.4056 30.3204 26.0307 30.3204 26.8699C30.3204 27.6807 30.887 28.3074 31.6659 28.3074C32.4714 28.3074 33.038 27.7075 33.038 26.8699C33.038 26.0307 32.4449 25.4056 31.6659 25.4056ZM26.5865 25.4592H26.2166V26.6306H26.6131C26.9955 26.6306 27.3639 26.4038 27.3639 26.0307C27.3639 25.7914 27.2859 25.4592 26.5865 25.4592ZM17.0068 18.3929C16.1889 18.3929 15.6347 18.9771 15.6347 19.8163C15.6347 20.668 16.2279 21.2931 17.0068 21.2931C17.8123 21.2931 18.3399 20.6948 18.3399 19.8163C18.3399 19.018 17.7858 18.3929 17.0068 18.3929ZM38.7247 18.3929C37.9598 18.3929 37.3666 18.9771 37.3666 19.8163C37.3666 20.668 37.9598 21.2931 38.7247 21.2931C39.5426 21.2931 40.0968 20.6948 40.0968 19.8163C40.0968 19.018 39.5161 18.3929 38.7247 18.3929ZM38.1971 11.3787C37.4181 11.3787 36.825 11.9644 36.825 12.802C36.825 13.6412 37.4181 14.2663 38.1971 14.2663C39.0025 14.2663 39.5692 13.6806 39.5692 12.802C39.5692 11.9911 38.976 11.3787 38.1971 11.3787ZM33.3549 11.3913H32.9319V12.643H33.3284C33.6312 12.643 34.1073 12.5627 34.1073 12.0179C34.1073 11.8573 34.1073 11.3913 33.3549 11.3913ZM26.5865 25.4592H26.2166V26.6306H26.6131C26.9955 26.6306 27.3639 26.4038 27.3639 26.0307C27.3639 25.7914 27.2859 25.4592 26.5865 25.4592ZM17.0068 18.3929C16.1889 18.3929 15.6347 18.9771 15.6347 19.8163C15.6347 20.668 16.2279 21.2931 17.0068 21.2931C17.8123 21.2931 18.3399 20.6948 18.3399 19.8163C18.3399 19.018 17.7858 18.3929 17.0068 18.3929ZM38.7247 18.3929C37.9598 18.3929 37.3666 18.9771 37.3666 19.8163C37.3666 20.668 37.9598 21.2931 38.7247 21.2931C39.5426 21.2931 40.0968 20.6948 40.0968 19.8163C40.0968 19.018 39.5161 18.3929 38.7247 18.3929ZM38.1971 11.3787C37.4181 11.3787 36.825 11.9644 36.825 12.802C36.825 13.6412 37.4181 14.2663 38.1971 14.2663C39.0025 14.2663 39.5692 13.6806 39.5692 12.802C39.5692 11.9911 38.976 11.3787 38.1971 11.3787ZM33.3549 11.3913H32.9319V12.643H33.3284C33.6312 12.643 34.1073 12.5627 34.1073 12.0179C34.1073 11.8573 34.1073 11.3913 33.3549 11.3913ZM26.5865 25.4592H26.2166V26.6306H26.6131C26.9955 26.6306 27.3639 26.4038 27.3639 26.0307C27.3639 25.7914 27.2859 25.4592 26.5865 25.4592ZM17.0068 18.3929C16.1889 18.3929 15.6347 18.9771 15.6347 19.8163C15.6347 20.668 16.2279 21.2931 17.0068 21.2931C17.8123 21.2931 18.3399 20.6948 18.3399 19.8163C18.3399 19.018 17.7858 18.3929 17.0068 18.3929ZM38.7247 18.3929C37.9598 18.3929 37.3666 18.9771 37.3666 19.8163C37.3666 20.668 37.9598 21.2931 38.7247 21.2931C39.5426 21.2931 40.0968 20.6948 40.0968 19.8163C40.0968 19.018 39.5161 18.3929 38.7247 18.3929ZM38.1971 11.3787C37.4181 11.3787 36.825 11.9644 36.825 12.802C36.825 13.6412 37.4181 14.2663 38.1971 14.2663C39.0025 14.2663 39.5692 13.6806 39.5692 12.802C39.5692 11.9911 38.976 11.3787 38.1971 11.3787ZM33.3549 11.3913H32.9319V12.643H33.3284C33.6312 12.643 34.1073 12.5627 34.1073 12.0179C34.1073 11.8573 34.1073 11.3913 33.3549 11.3913ZM17.0068 18.3929C16.1889 18.3929 15.6347 18.9771 15.6347 19.8163C15.6347 20.668 16.2279 21.2931 17.0068 21.2931C17.8123 21.2931 18.3399 20.6948 18.3399 19.8163C18.3399 19.018 17.7858 18.3929 17.0068 18.3929ZM38.7247 18.3929C37.9598 18.3929 37.3666 18.9771 37.3666 19.8163C37.3666 20.668 37.9598 21.2931 38.7247 21.2931C39.5426 21.2931 40.0968 20.6948 40.0968 19.8163C40.0968 19.018 39.5161 18.3929 38.7247 18.3929ZM38.1971 11.3787C37.4181 11.3787 36.825 11.9644 36.825 12.802C36.825 13.6412 37.4181 14.2663 38.1971 14.2663C39.0025 14.2663 39.5692 13.6806 39.5692 12.802C39.5692 11.9911 38.976 11.3787 38.1971 11.3787ZM33.3549 11.3913H32.9319V12.643H33.3284C33.6312 12.643 34.1073 12.5627 34.1073 12.0179C34.1073 11.8573 34.1073 11.3913 33.3549 11.3913ZM17.0068 18.3929C16.1889 18.3929 15.6347 18.9771 15.6347 19.8163C15.6347 20.668 16.2279 21.2931 17.0068 21.2931C17.8123 21.2931 18.3399 20.6948 18.3399 19.8163C18.3399 19.018 17.7858 18.3929 17.0068 18.3929ZM38.7247 18.3929C37.9598 18.3929 37.3666 18.9771 37.3666 19.8163C37.3666 20.668 37.9598 21.2931 38.7247 21.2931C39.5426 21.2931 40.0968 20.6948 40.0968 19.8163C40.0968 19.018 39.5161 18.3929 38.7247 18.3929ZM38.1971 11.3787C37.4181 11.3787 36.825 11.9644 36.825 12.802C36.825 13.6412 37.4181 14.2663 38.1971 14.2663C39.0025 14.2663 39.5692 13.6806 39.5692 12.802C39.5692 11.9911 38.976 11.3787 38.1971 11.3787ZM33.3549 11.3913H32.9319V12.643H33.3284C33.6312 12.643 34.1073 12.5627 34.1073 12.0179C34.1073 11.8573 34.1073 11.3913 33.3549 11.3913ZM38.7247 18.3929C37.9598 18.3929 37.3666 18.9771 37.3666 19.8163C37.3666 20.668 37.9598 21.2931 38.7247 21.2931C39.5426 21.2931 40.0968 20.6948 40.0968 19.8163C40.0968 19.018 39.5161 18.3929 38.7247 18.3929ZM38.1971 11.3787C37.4181 11.3787 36.825 11.9644 36.825 12.802C36.825 13.6412 37.4181 14.2663 38.1971 14.2663C39.0025 14.2663 39.5692 13.6806 39.5692 12.802C39.5692 11.9911 38.976 11.3787 38.1971 11.3787ZM33.3549 11.3913H32.9319V12.643H33.3284C33.6312 12.643 34.1073 12.5627 34.1073 12.0179C34.1073 11.8573 34.1073 11.3913 33.3549 11.3913ZM38.7247 18.3929C37.9598 18.3929 37.3666 18.9771 37.3666 19.8163C37.3666 20.668 37.9598 21.2931 38.7247 21.2931C39.5426 21.2931 40.0968 20.6948 40.0968 19.8163C40.0968 19.018 39.5161 18.3929 38.7247 18.3929ZM38.1971 11.3787C37.4181 11.3787 36.825 11.9644 36.825 12.802C36.825 13.6412 37.4181 14.2663 38.1971 14.2663C39.0025 14.2663 39.5692 13.6806 39.5692 12.802C39.5692 11.9911 38.976 11.3787 38.1971 11.3787ZM33.3549 11.3913H32.9319V12.643H33.3284C33.6312 12.643 34.1073 12.5627 34.1073 12.0179C34.1073 11.8573 34.1073 11.3913 33.3549 11.3913ZM38.7247 18.3929C37.9598 18.3929 37.3666 18.9771 37.3666 19.8163C37.3666 20.668 37.9598 21.2931 38.7247 21.2931C39.5426 21.2931 40.0968 20.6948 40.0968 19.8163C40.0968 19.018 39.5161 18.3929 38.7247 18.3929ZM38.1971 11.3787C37.4181 11.3787 36.825 11.9644 36.825 12.802C36.825 13.6412 37.4181 14.2663 38.1971 14.2663C39.0025 14.2663 39.5692 13.6806 39.5692 12.802C39.5692 11.9911 38.976 11.3787 38.1971 11.3787ZM33.3549 11.3913H32.9319V12.643H33.3284C33.6312 12.643 34.1073 12.5627 34.1073 12.0179C34.1073 11.8573 34.1073 11.3913 33.3549 11.3913ZM38.7247 18.3929C37.9598 18.3929 37.3666 18.9771 37.3666 19.8163C37.3666 20.668 37.9598 21.2931 38.7247 21.2931C39.5426 21.2931 40.0968 20.6948 40.0968 19.8163C40.0968 19.018 39.5161 18.3929 38.7247 18.3929ZM38.1971 11.3787C37.4181 11.3787 36.825 11.9644 36.825 12.802C36.825 13.6412 37.4181 14.2663 38.1971 14.2663C39.0025 14.2663 39.5692 13.6806 39.5692 12.802C39.5692 11.9911 38.976 11.3787 38.1971 11.3787ZM33.3549 11.3913H32.9319V12.643H33.3284C33.6312 12.643 34.1073 12.5627 34.1073 12.0179C34.1073 11.8573 34.1073 11.3913 33.3549 11.3913ZM38.7247 18.3929C37.9598 18.3929 37.3666 18.9771 37.3666 19.8163C37.3666 20.668 37.9598 21.2931 38.7247 21.2931C39.5426 21.2931 40.0968 20.6948 40.0968 19.8163C40.0968 19.018 39.5161 18.3929 38.7247 18.3929ZM38.1971 11.3787C37.4181 11.3787 36.825 11.9644 36.825 12.802C36.825 13.6412 37.4181 14.2663 38.1971 14.2663C39.0025 14.2663 39.5692 13.6806 39.5692 12.802C39.5692 11.9911 38.976 11.3787 38.1971 11.3787ZM33.3549 11.3913H32.9319V12.643H33.3284C33.6312 12.643 34.1073 12.5627 34.1073 12.0179C34.1073 11.8573 34.1073 11.3913 33.3549 11.3913ZM38.1971 11.3787C37.4181 11.3787 36.825 11.9644 36.825 12.802C36.825 13.6412 37.4181 14.2663 38.1971 14.2663C39.0025 14.2663 39.5692 13.6806 39.5692 12.802C39.5692 11.9911 38.976 11.3787 38.1971 11.3787ZM33.3549 11.3913H32.9319V12.643H33.3284C33.6312 12.643 34.1073 12.5627 34.1073 12.0179C34.1073 11.8573 34.1073 11.3913 33.3549 11.3913ZM38.1971 11.3787C37.4181 11.3787 36.825 11.9644 36.825 12.802C36.825 13.6412 37.4181 14.2663 38.1971 14.2663C39.0025 14.2663 39.5692 13.6806 39.5692 12.802C39.5692 11.9911 38.976 11.3787 38.1971 11.3787ZM33.3549 11.3913H32.9319V12.643H33.3284C33.6312 12.643 34.1073 12.5627 34.1073 12.0179C34.1073 11.8573 34.1073 11.3913 33.3549 11.3913ZM38.1971 11.3787C37.4181 11.3787 36.825 11.9644 36.825 12.802C36.825 13.6412 37.4181 14.2663 38.1971 14.2663C39.0025 14.2663 39.5692 13.6806 39.5692 12.802C39.5692 11.9911 38.976 11.3787 38.1971 11.3787ZM33.3549 11.3913H32.9319V12.643H33.3284C33.6312 12.643 34.1073 12.5627 34.1073 12.0179C34.1073 11.8573 34.1073 11.3913 33.3549 11.3913ZM38.1971 11.3787C37.4181 11.3787 36.825 11.9644 36.825 12.802C36.825 13.6412 37.4181 14.2663 38.1971 14.2663C39.0025 14.2663 39.5692 13.6806 39.5692 12.802C39.5692 11.9911 38.976 11.3787 38.1971 11.3787ZM33.3549 11.3913H32.9319V12.643H33.3284C33.6312 12.643 34.1073 12.5627 34.1073 12.0179C34.1073 11.8573 34.1073 11.3913 33.3549 11.3913ZM38.1971 11.3787C37.4181 11.3787 36.825 11.9644 36.825 12.802C36.825 13.6412 37.4181 14.2663 38.1971 14.2663C39.0025 14.2663 39.5692 13.6806 39.5692 12.802C39.5692 11.9911 38.976 11.3787 38.1971 11.3787ZM38.1971 11.3787C37.4181 11.3787 36.825 11.9644 36.825 12.802C36.825 13.6412 37.4181 14.2663 38.1971 14.2663C39.0025 14.2663 39.5692 13.6806 39.5692 12.802C39.5692 11.9911 38.976 11.3787 38.1971 11.3787Z" fill="white"/>
</g>
<defs>
<clipPath id="clip0_224_1500">
<rect width="64" height="74" fill="white"/>
</clipPath>
</defs>
</svg>
