<svg width="42" height="42" viewBox="0 0 42 42" fill="none" xmlns="http://www.w3.org/2000/svg">
<path d="M22.3125 5.90625H19.6875C16.065 5.90625 13.125 8.84625 13.125 12.4688V13.125C13.125 13.8469 13.7156 14.4375 14.4375 14.4375H15.75C16.4719 14.4375 17.0625 13.8469 17.0625 13.125V12.4622C17.0625 11.0184 18.2372 9.84375 19.6809 9.83719L22.3059 9.83062C23.7563 9.83062 24.9375 11.0053 24.9375 12.4556V15.0872C24.9375 16.5375 23.7628 17.7122 22.3191 17.7122L18.3684 17.7188C15.4678 17.7253 13.125 20.0747 13.125 22.9688V33.4688C13.125 34.9191 14.2997 36.0938 15.75 36.0938H26.25C27.7003 36.0938 28.875 34.9191 28.875 33.4688V12.4688C28.875 8.84625 25.935 5.90625 22.3125 5.90625ZM18.7228 21.5775C19.3069 20.8491 20.3634 20.8097 21 21.4594C21.6366 20.8097 22.6931 20.8491 23.2772 21.5775C23.7956 22.2206 23.6841 23.1722 23.1066 23.7628L21.4725 25.4428C21.21 25.7053 20.79 25.7053 20.5275 25.4428L18.8934 23.7628C18.3159 23.1722 18.2044 22.2206 18.7228 21.5775ZM24.2812 33.4688H17.7188C17.3578 33.4688 17.0625 33.1734 17.0625 32.8125C17.0625 32.4516 17.3578 32.1562 17.7188 32.1562H24.2812C24.6422 32.1562 24.9375 32.4516 24.9375 32.8125C24.9375 33.1734 24.6422 33.4688 24.2812 33.4688ZM24.2812 30.1875H17.7188C17.3578 30.1875 17.0625 29.8922 17.0625 29.5312C17.0625 29.1703 17.3578 28.875 17.7188 28.875H24.2812C24.6422 28.875 24.9375 29.1703 24.9375 29.5312C24.9375 29.8922 24.6422 30.1875 24.2812 30.1875Z" fill="url(#paint0_linear_286_1599)"/>
<path d="M22.3125 5.90625H19.6875C16.065 5.90625 13.125 8.84625 13.125 12.4688V13.125C13.125 13.8469 13.7156 14.4375 14.4375 14.4375H15.75C16.4719 14.4375 17.0625 13.8469 17.0625 13.125V12.4622C17.0625 11.0184 18.2372 9.84375 19.6809 9.83719L22.3059 9.83062C23.7563 9.83062 24.9375 11.0053 24.9375 12.4556V15.0872C24.9375 16.5375 23.7628 17.7122 22.3191 17.7122L18.3684 17.7188C15.4678 17.7253 13.125 20.0747 13.125 22.9688V33.4688C13.125 34.9191 14.2997 36.0938 15.75 36.0938H26.25C27.7003 36.0938 28.875 34.9191 28.875 33.4688V12.4688C28.875 8.84625 25.935 5.90625 22.3125 5.90625ZM18.7228 21.5775C19.3069 20.8491 20.3634 20.8097 21 21.4594C21.6366 20.8097 22.6931 20.8491 23.2772 21.5775C23.7956 22.2206 23.6841 23.1722 23.1066 23.7628L21.4725 25.4428C21.21 25.7053 20.79 25.7053 20.5275 25.4428L18.8934 23.7628C18.3159 23.1722 18.2044 22.2206 18.7228 21.5775ZM24.2812 33.4688H17.7188C17.3578 33.4688 17.0625 33.1734 17.0625 32.8125C17.0625 32.4516 17.3578 32.1562 17.7188 32.1562H24.2812C24.6422 32.1562 24.9375 32.4516 24.9375 32.8125C24.9375 33.1734 24.6422 33.4688 24.2812 33.4688ZM24.2812 30.1875H17.7188C17.3578 30.1875 17.0625 29.8922 17.0625 29.5312C17.0625 29.1703 17.3578 28.875 17.7188 28.875H24.2812C24.6422 28.875 24.9375 29.1703 24.9375 29.5312C24.9375 29.8922 24.6422 30.1875 24.2812 30.1875Z" fill="url(#paint1_radial_286_1599)" fill-opacity="0.3"/>
<defs>
<linearGradient id="paint0_linear_286_1599" x1="16.4289" y1="5.90624" x2="30.6058" y2="6.74221" gradientUnits="userSpaceOnUse">
<stop stop-color="#0081AA"/>
<stop offset="1" stop-color="#711CC6"/>
</linearGradient>
<radialGradient id="paint1_radial_286_1599" cx="0" cy="0" r="1" gradientUnits="userSpaceOnUse" gradientTransform="translate(21 5.90625) rotate(90) scale(30.1875 15.75)">
<stop stop-color="white"/>
<stop offset="0.730539" stop-color="white" stop-opacity="0"/>
</radialGradient>
</defs>
</svg>
