<svg width="20" height="20" viewBox="0 0 20 20" fill="none" xmlns="http://www.w3.org/2000/svg">
<path d="M8.36458 4.43006L8.90542 5.39917C9.39347 6.27367 9.1976 7.42085 8.42902 8.18958C8.4289 8.18969 8.42895 8.18965 8.42883 8.18977C8.425 8.19361 7.49989 9.1257 9.18701 10.8128C10.8531 12.4789 11.7829 11.5975 11.8095 11.5716C11.8103 11.5708 11.8105 11.5706 11.8113 11.5698C12.5801 10.8021 13.7266 10.6066 14.6007 11.0944L15.5698 11.6353C16.8904 12.3723 17.0464 14.2243 15.8856 15.3851C15.1881 16.0826 14.3336 16.6253 13.389 16.6611C11.7989 16.7214 9.09848 16.319 6.38967 13.6102C3.68086 10.9014 3.27843 8.20094 3.33871 6.61082C3.37452 5.66625 3.91725 4.81178 4.61476 4.11428C5.77555 2.95349 7.62756 3.10945 8.36458 4.43006Z" fill="url(#paint0_linear_222_945)"/>
<path d="M8.36458 4.43006L8.90542 5.39917C9.39347 6.27367 9.1976 7.42085 8.42902 8.18958C8.4289 8.18969 8.42895 8.18965 8.42883 8.18977C8.425 8.19361 7.49989 9.1257 9.18701 10.8128C10.8531 12.4789 11.7829 11.5975 11.8095 11.5716C11.8103 11.5708 11.8105 11.5706 11.8113 11.5698C12.5801 10.8021 13.7266 10.6066 14.6007 11.0944L15.5698 11.6353C16.8904 12.3723 17.0464 14.2243 15.8856 15.3851C15.1881 16.0826 14.3336 16.6253 13.389 16.6611C11.7989 16.7214 9.09848 16.319 6.38967 13.6102C3.68086 10.9014 3.27843 8.20094 3.33871 6.61082C3.37452 5.66625 3.91725 4.81178 4.61476 4.11428C5.77555 2.95349 7.62756 3.10945 8.36458 4.43006Z" fill="url(#paint1_radial_222_945)" fill-opacity="0.3"/>
<path d="M11.0497 1.56685C11.1048 1.22611 11.4269 0.994965 11.7677 1.05013C11.7888 1.05417 11.8566 1.06685 11.8922 1.07477C11.9633 1.09061 12.0625 1.11499 12.1862 1.15101C12.4335 1.22304 12.779 1.34171 13.1937 1.53183C14.0239 1.91246 15.1287 2.57829 16.2752 3.72479C17.4217 4.87129 18.0876 5.97614 18.4682 6.80637C18.6583 7.22105 18.777 7.56655 18.849 7.81387C18.885 7.93754 18.9094 8.03673 18.9253 8.10784C18.9332 8.14339 18.939 8.17194 18.943 8.19304L18.9478 8.21903C19.003 8.55977 18.7739 8.89521 18.4332 8.95037C18.0934 9.00538 17.7733 8.77535 17.7168 8.43621C17.7151 8.4271 17.7103 8.40264 17.7051 8.37956C17.6949 8.33341 17.6771 8.26022 17.6489 8.16343C17.5925 7.96982 17.4945 7.68204 17.3319 7.32731C17.0071 6.61872 16.4229 5.64023 15.3913 4.60868C14.3598 3.57713 13.3813 2.99296 12.6727 2.6681C12.318 2.50547 12.0302 2.40753 11.8366 2.35114C11.7398 2.32294 11.6181 2.29502 11.572 2.28474C11.2328 2.22822 10.9946 1.90662 11.0497 1.56685Z" fill="url(#paint2_linear_222_945)"/>
<path d="M11.0497 1.56685C11.1048 1.22611 11.4269 0.994965 11.7677 1.05013C11.7888 1.05417 11.8566 1.06685 11.8922 1.07477C11.9633 1.09061 12.0625 1.11499 12.1862 1.15101C12.4335 1.22304 12.779 1.34171 13.1937 1.53183C14.0239 1.91246 15.1287 2.57829 16.2752 3.72479C17.4217 4.87129 18.0876 5.97614 18.4682 6.80637C18.6583 7.22105 18.777 7.56655 18.849 7.81387C18.885 7.93754 18.9094 8.03673 18.9253 8.10784C18.9332 8.14339 18.939 8.17194 18.943 8.19304L18.9478 8.21903C19.003 8.55977 18.7739 8.89521 18.4332 8.95037C18.0934 9.00538 17.7733 8.77535 17.7168 8.43621C17.7151 8.4271 17.7103 8.40264 17.7051 8.37956C17.6949 8.33341 17.6771 8.26022 17.6489 8.16343C17.5925 7.96982 17.4945 7.68204 17.3319 7.32731C17.0071 6.61872 16.4229 5.64023 15.3913 4.60868C14.3598 3.57713 13.3813 2.99296 12.6727 2.6681C12.318 2.50547 12.0302 2.40753 11.8366 2.35114C11.7398 2.32294 11.6181 2.29502 11.572 2.28474C11.2328 2.22822 10.9946 1.90662 11.0497 1.56685Z" fill="url(#paint3_radial_222_945)" fill-opacity="0.3"/>
<path fill-rule="evenodd" clip-rule="evenodd" d="M11.2382 4.44141C11.333 4.10951 11.679 3.91733 12.0108 4.01215L11.8391 4.61311C12.0108 4.01215 12.0108 4.01215 12.0108 4.01215L12.012 4.0125L12.0133 4.01287L12.0161 4.01368L12.0226 4.01561L12.0391 4.02074C12.0516 4.02476 12.0673 4.03 12.086 4.03663C12.1234 4.04991 12.1729 4.0688 12.2336 4.0948C12.355 4.14683 12.5209 4.22719 12.7246 4.34778C13.1325 4.58918 13.6893 4.99016 14.3435 5.6443C14.9976 6.29845 15.3986 6.85527 15.64 7.26316C15.7606 7.46692 15.841 7.6328 15.893 7.75421C15.919 7.81488 15.9379 7.86434 15.9512 7.90177C15.9578 7.92048 15.963 7.93617 15.967 7.94874L15.9722 7.96522L15.9741 7.97168L15.9749 7.97446C15.9752 7.97531 15.9749 7.97589 15.974 7.97615C15.9655 7.97883 15.8988 7.99889 15.3747 8.14864C15.7066 8.05381 16.0717 8.30225 15.8439 8.56159C15.7675 8.6486 15.666 8.71541 15.5464 8.74959C15.2173 8.84362 14.8744 8.65548 14.7762 8.32877L14.7731 8.31978C14.7687 8.30726 14.7595 8.28261 14.7441 8.24661C14.7132 8.17466 14.6573 8.05697 14.5643 7.89981C14.3785 7.58586 14.0429 7.11148 13.4596 6.52819C12.8763 5.94489 12.4019 5.60931 12.088 5.4235C11.9308 5.33049 11.8131 5.27457 11.7412 5.24374C11.7052 5.22831 11.6805 5.21911 11.668 5.21467L11.659 5.21159C11.3323 5.11336 11.1442 4.77048 11.2382 4.44141Z" fill="url(#paint4_linear_222_945)"/>
<path fill-rule="evenodd" clip-rule="evenodd" d="M11.2382 4.44141C11.333 4.10951 11.679 3.91733 12.0108 4.01215L11.8391 4.61311C12.0108 4.01215 12.0108 4.01215 12.0108 4.01215L12.012 4.0125L12.0133 4.01287L12.0161 4.01368L12.0226 4.01561L12.0391 4.02074C12.0516 4.02476 12.0673 4.03 12.086 4.03663C12.1234 4.04991 12.1729 4.0688 12.2336 4.0948C12.355 4.14683 12.5209 4.22719 12.7246 4.34778C13.1325 4.58918 13.6893 4.99016 14.3435 5.6443C14.9976 6.29845 15.3986 6.85527 15.64 7.26316C15.7606 7.46692 15.841 7.6328 15.893 7.75421C15.919 7.81488 15.9379 7.86434 15.9512 7.90177C15.9578 7.92048 15.963 7.93617 15.967 7.94874L15.9722 7.96522L15.9741 7.97168L15.9749 7.97446C15.9752 7.97531 15.9749 7.97589 15.974 7.97615C15.9655 7.97883 15.8988 7.99889 15.3747 8.14864C15.7066 8.05381 16.0717 8.30225 15.8439 8.56159C15.7675 8.6486 15.666 8.71541 15.5464 8.74959C15.2173 8.84362 14.8744 8.65548 14.7762 8.32877L14.7731 8.31978C14.7687 8.30726 14.7595 8.28261 14.7441 8.24661C14.7132 8.17466 14.6573 8.05697 14.5643 7.89981C14.3785 7.58586 14.0429 7.11148 13.4596 6.52819C12.8763 5.94489 12.4019 5.60931 12.088 5.4235C11.9308 5.33049 11.8131 5.27457 11.7412 5.24374C11.7052 5.22831 11.6805 5.21911 11.668 5.21467L11.659 5.21159C11.3323 5.11336 11.1442 4.77048 11.2382 4.44141Z" fill="url(#paint5_radial_222_945)" fill-opacity="0.3"/>
<defs>
<linearGradient id="paint0_linear_222_945" x1="6.13019" y1="3.33325" x2="18.0216" y2="4.67722" gradientUnits="userSpaceOnUse">
<stop stop-color="#0081AA"/>
<stop offset="1" stop-color="#711CC6"/>
</linearGradient>
<radialGradient id="paint1_radial_222_945" cx="0" cy="0" r="1" gradientUnits="userSpaceOnUse" gradientTransform="translate(9.99992 3.33325) rotate(90) scale(13.3333 13.3333)">
<stop stop-color="white"/>
<stop offset="0.730539" stop-color="white" stop-opacity="0"/>
</radialGradient>
<linearGradient id="paint2_linear_222_945" x1="12.7019" y1="1.04199" x2="19.7603" y2="1.8395" gradientUnits="userSpaceOnUse">
<stop stop-color="#0081AA"/>
<stop offset="1" stop-color="#711CC6"/>
</linearGradient>
<radialGradient id="paint3_radial_222_945" cx="0" cy="0" r="1" gradientUnits="userSpaceOnUse" gradientTransform="translate(14.9989 1.04199) rotate(90) scale(7.9165 7.91424)">
<stop stop-color="white"/>
<stop offset="0.730539" stop-color="white" stop-opacity="0"/>
</radialGradient>
<linearGradient id="paint4_linear_222_945" x1="12.7019" y1="1.04199" x2="19.7603" y2="1.8395" gradientUnits="userSpaceOnUse">
<stop stop-color="#0081AA"/>
<stop offset="1" stop-color="#711CC6"/>
</linearGradient>
<radialGradient id="paint5_radial_222_945" cx="0" cy="0" r="1" gradientUnits="userSpaceOnUse" gradientTransform="translate(14.9989 1.04199) rotate(90) scale(7.9165 7.91424)">
<stop stop-color="white"/>
<stop offset="0.730539" stop-color="white" stop-opacity="0"/>
</radialGradient>
</defs>
</svg>
