<svg width="20" height="20" viewBox="0 0 20 20" fill="none" xmlns="http://www.w3.org/2000/svg">
<path fill-rule="evenodd" clip-rule="evenodd" d="M2.64306 4.30956C1.66675 5.28587 1.66675 6.85722 1.66675 9.99992C1.66675 13.1426 1.66675 14.714 2.64306 15.6903C3.61937 16.6666 5.19072 16.6666 8.33341 16.6666H11.6667C14.8094 16.6666 16.3808 16.6666 17.3571 15.6903C18.3334 14.714 18.3334 13.1426 18.3334 9.99992C18.3334 6.85722 18.3334 5.28587 17.3571 4.30956C16.3808 3.33325 14.8094 3.33325 11.6667 3.33325H8.33341C5.19072 3.33325 3.61937 3.33325 2.64306 4.30956ZM15.4802 6.26647C15.7012 6.53164 15.6654 6.92575 15.4002 7.14672L13.5698 8.67206C12.8312 9.28761 12.2325 9.78652 11.7041 10.1264C11.1537 10.4804 10.6176 10.704 10.0001 10.704C9.38252 10.704 8.84648 10.4804 8.29606 10.1264C7.76768 9.78652 7.16901 9.28761 6.43038 8.67207L4.59997 7.14672C4.33479 6.92575 4.29897 6.53164 4.51994 6.26647C4.74092 6.0013 5.13502 5.96547 5.4002 6.18645L7.19928 7.68568C7.97674 8.33357 8.51652 8.78193 8.97223 9.07503C9.41337 9.35874 9.71252 9.45398 10.0001 9.45398C10.2876 9.45398 10.5868 9.35874 11.0279 9.07503C11.4836 8.78193 12.0234 8.33357 12.8009 7.68568L14.6 6.18645C14.8651 5.96547 15.2592 6.0013 15.4802 6.26647Z" fill="url(#paint0_linear_222_948)"/>
<path fill-rule="evenodd" clip-rule="evenodd" d="M2.64306 4.30956C1.66675 5.28587 1.66675 6.85722 1.66675 9.99992C1.66675 13.1426 1.66675 14.714 2.64306 15.6903C3.61937 16.6666 5.19072 16.6666 8.33341 16.6666H11.6667C14.8094 16.6666 16.3808 16.6666 17.3571 15.6903C18.3334 14.714 18.3334 13.1426 18.3334 9.99992C18.3334 6.85722 18.3334 5.28587 17.3571 4.30956C16.3808 3.33325 14.8094 3.33325 11.6667 3.33325H8.33341C5.19072 3.33325 3.61937 3.33325 2.64306 4.30956ZM15.4802 6.26647C15.7012 6.53164 15.6654 6.92575 15.4002 7.14672L13.5698 8.67206C12.8312 9.28761 12.2325 9.78652 11.7041 10.1264C11.1537 10.4804 10.6176 10.704 10.0001 10.704C9.38252 10.704 8.84648 10.4804 8.29606 10.1264C7.76768 9.78652 7.16901 9.28761 6.43038 8.67207L4.59997 7.14672C4.33479 6.92575 4.29897 6.53164 4.51994 6.26647C4.74092 6.0013 5.13502 5.96547 5.4002 6.18645L7.19928 7.68568C7.97674 8.33357 8.51652 8.78193 8.97223 9.07503C9.41337 9.35874 9.71252 9.45398 10.0001 9.45398C10.2876 9.45398 10.5868 9.35874 11.0279 9.07503C11.4836 8.78193 12.0234 8.33357 12.8009 7.68568L14.6 6.18645C14.8651 5.96547 15.2592 6.0013 15.4802 6.26647Z" fill="url(#paint1_radial_222_948)" fill-opacity="0.3"/>
<defs>
<linearGradient id="paint0_linear_222_948" x1="5.16292" y1="3.33325" x2="19.9225" y2="5.41841" gradientUnits="userSpaceOnUse">
<stop stop-color="#0081AA"/>
<stop offset="1" stop-color="#711CC6"/>
</linearGradient>
<radialGradient id="paint1_radial_222_948" cx="0" cy="0" r="1" gradientUnits="userSpaceOnUse" gradientTransform="translate(10.0001 3.33325) rotate(90) scale(13.3333 16.6667)">
<stop stop-color="white"/>
<stop offset="0.730539" stop-color="white" stop-opacity="0"/>
</radialGradient>
</defs>
</svg>
