<?xml version="1.0"?>
<svg xmlns="http://www.w3.org/2000/svg" xmlns:xlink="http://www.w3.org/1999/xlink" version="1.1" xml:space="preserve">
  <defs>
    <symbol id="email" width="100%" height="100%" viewBox="0 0 22 18">
      <path fill-rule="evenodd" clip-rule="evenodd" d="M1.37868 1.71193C0.5 2.59061 0.5 4.00482 0.5 6.83325V11.1666C0.5 13.995 0.5 15.4092 1.37868 16.2879C2.25736 17.1666 3.67157 17.1666 6.5 17.1666H15.5C18.3284 17.1666 19.7426 17.1666 20.6213 16.2879C21.5 15.4092 21.5 13.995 21.5 11.1666V6.83325C21.5 4.00483 21.5 2.59061 20.6213 1.71193C19.7426 0.833252 18.3284 0.833252 15.5 0.833252H6.5C3.67157 0.833252 2.25736 0.833252 1.37868 1.71193ZM4.5547 4.66787C4.09517 4.36152 3.4743 4.48569 3.16795 4.94522C2.8616 5.40475 2.98577 6.02562 3.4453 6.33197L9.8906 10.6288C10.5624 11.0767 11.4376 11.0767 12.1094 10.6288L18.5547 6.33197C19.0142 6.02562 19.1384 5.40475 18.8321 4.94522C18.5257 4.48569 17.9048 4.36152 17.4453 4.66787L11 8.96474L4.5547 4.66787Z" fill="currentColor" />
    </symbol>
    <symbol id="phone" width="100%" height="100%" viewBox="0 0 22 22">
      <path d="M0.599998 1.9001C0.599998 1.18213 1.18203 0.600098 1.9 0.600098H4.69873C5.33422 0.600098 5.87657 1.05953 5.98105 1.68638L6.94215 7.45301C7.03597 8.01596 6.75167 8.57426 6.24122 8.82949L4.22864 9.83578C5.67982 13.4419 8.55818 16.3203 12.1643 17.7715L13.1706 15.7589C13.4258 15.2484 13.9841 14.9641 14.5471 15.0579L20.3137 16.019C20.9406 16.1235 21.4 16.6659 21.4 17.3014V20.1001C21.4 20.8181 20.818 21.4001 20.1 21.4001H17.5C8.16639 21.4001 0.599998 13.8337 0.599998 4.5001V1.9001Z" fill="currentColor" />
    </symbol>
    <symbol id="menu" width="100%" height="100%" viewBox="0 0 32 22">
      <rect y="1" width="32" height="1.5" rx="0.75" fill="currentColor"/>
      <rect y="10" width="32" height="1.5" rx="0.75" fill="currentColor"/>
      <rect y="20" width="32" height="1.5" rx="0.75" fill="currentColor"/>
    </symbol>
    <symbol id="arrow-right" width="100%" height="100%" viewBox="0 0 15 10">
      <path d="M13 5L13.7071 4.29289L14.4142 5L13.7071 5.70711L13 5ZM1 6C0.447715 6 0 5.55228 0 5C0 4.44772 0.447715 4 1 4V6ZM9.70711 0.292893L13.7071 4.29289L12.2929 5.70711L8.29289 1.70711L9.70711 0.292893ZM13.7071 5.70711L9.70711 9.70711L8.29289 8.29289L12.2929 4.29289L13.7071 5.70711ZM13 6H1V4H13V6Z" fill="currentColor" />
    </symbol>
    <symbol id="arrow-left" width="100%" height="100%" viewBox="0 0 15 10">
      <path d="M2 5L1.29289 4.29289L0.585786 5L1.29289 5.70711L2 5ZM14 6C14.5523 6 15 5.55228 15 5C15 4.44772 14.5523 4 14 4V6ZM5.29289 0.292893L1.29289 4.29289L2.70711 5.70711L6.70711 1.70711L5.29289 0.292893ZM1.29289 5.70711L5.29289 9.70711L6.70711 8.29289L2.70711 4.29289L1.29289 5.70711ZM2 6H14V4H2V6Z" fill="currentColor" />
    </symbol>
    <symbol id="gal-ochka" width="100%" height="100%" viewBox="0 0 12 10">
      <path d="M6.23497 8.79946C5.9649 9.16602 5.54433 9.3913 5.0896 9.41369C4.63487 9.43632 4.19445 9.25304 3.88975 8.91464L1.15929 5.88456C0.725328 5.40328 0.763876 4.6614 1.24515 4.22744C1.72689 3.79348 2.46831 3.83226 2.90227 4.31377L4.83407 6.45771C4.8627 6.48956 4.90425 6.50664 4.94695 6.50456C4.98988 6.50249 5.02912 6.48102 5.05475 6.44686L9.02546 1.0614C9.40979 0.539728 10.1443 0.428699 10.6662 0.813259C11.1876 1.19782 11.2984 1.93232 10.9139 2.45376L6.23497 8.79946Z" fill="currentColor" />
    </symbol>
    <symbol id="to-top" width="100%" height="100%" viewBox="0 0 10 7">
      <path opacity="0.6" d="M4.80794 1.06885L1.09346 5.52623C0.659239 6.04729 1.02976 6.83838 1.70803 6.83838L8.29197 6.83838C8.97024 6.83838 9.34076 6.04729 8.90654 5.52623L5.19206 1.06885C5.09211 0.948907 4.90789 0.948907 4.80794 1.06885Z" fill="currentColor" />
    </symbol>
    <symbol id="to-right" width="100%" height="100%" viewBox="0 0 14 14">
      <path d="M8.30205 7L4.73432 3.43227C4.44956 3.14751 4.44956 2.68583 4.73432 2.40107C5.01908 2.11631 5.48076 2.11631 5.76552 2.40107L9.84885 6.4844C10.1336 6.76916 10.1336 7.23084 9.84885 7.5156L5.76552 11.5989C5.48076 11.8837 5.01908 11.8837 4.73432 11.5989C4.44956 11.3142 4.44956 10.8525 4.73432 10.5677L8.30205 7Z" fill="currentColor" />
    </symbol>
    <symbol id="play" width="100%" height="100%" viewBox="0 0 16 18">
      <path d="M3.79135 0.713669C2.45882 -0.106354 0.743164 0.852345 0.743164 2.41699V15.583C0.743164 17.1477 2.45882 18.1064 3.79136 17.2864L14.4888 10.7033C15.7578 9.92236 15.7578 8.07767 14.4888 7.2967L3.79135 0.713669Z" fill="currentColor" />
    </symbol>
    <symbol id="cross" width="100%" height="100%" viewBox="0 0 24 24">
     <path  d="M23 1.00009L1.00009 23M1 1L22.9999 22.9999" stroke="currentColor" stroke-width="1.5" stroke-linecap="round"/>    </symbol>
    <symbol id="star" width="100%" height="100%" viewBox="0 0 24 24">
      <path d="M9.15316 5.40838C10.4198 3.13613 11.0531 2 12 2C12.9469 2 13.5802 3.13612 14.8468 5.40837L15.1745 5.99623C15.5345 6.64193 15.7144 6.96479 15.9951 7.17781C16.2757 7.39083 16.6251 7.4699 17.3241 7.62805L17.9605 7.77203C20.4201 8.32856 21.65 8.60682 21.9426 9.54773C22.2352 10.4886 21.3968 11.4691 19.7199 13.4299L19.2861 13.9372C18.8096 14.4944 18.5713 14.773 18.4641 15.1177C18.357 15.4624 18.393 15.8341 18.465 16.5776L18.5306 17.2544C18.7841 19.8706 18.9109 21.1787 18.1449 21.7602C17.3788 22.3417 16.2273 21.8115 13.9243 20.7512L13.3285 20.4768C12.6741 20.1755 12.3469 20.0248 12 20.0248C11.6531 20.0248 11.3259 20.1755 10.6715 20.4768L10.0757 20.7512C7.77268 21.8115 6.62118 22.3417 5.85515 21.7602C5.08912 21.1787 5.21588 19.8706 5.4694 17.2544L5.53498 16.5776C5.60703 15.8341 5.64305 15.4624 5.53586 15.1177C5.42868 14.773 5.19043 14.4944 4.71392 13.9372L4.2801 13.4299C2.60325 11.4691 1.76482 10.4886 2.05742 9.54773C2.35002 8.60682 3.57986 8.32856 6.03954 7.77203L6.67589 7.62805C7.37485 7.4699 7.72433 7.39083 8.00494 7.17781C8.28555 6.96479 8.46553 6.64194 8.82547 5.99623L9.15316 5.40838Z" fill="currentColor" />
    </symbol>
    <symbol id="link" width="100%" height="100%" viewBox="0 0 24 24">
      <path d="M15.7283 3.8839C17.1626 2.44401 19.2607 2.41377 20.4221 3.57974C21.5858 4.74792 21.5545 6.85916 20.1192 8.30003L17.6953 10.7333C17.403 11.0267 17.4039 11.5016 17.6974 11.7939C17.9909 12.0863 18.4657 12.0853 18.758 11.7919L21.1819 9.35863C23.0932 7.43992 23.3331 4.37659 21.4849 2.52114C19.6344 0.66349 16.5779 0.905603 14.6656 2.8253L9.81793 7.69176C7.90663 9.61047 7.66668 12.6738 9.51494 14.5293C9.80727 14.8227 10.2821 14.8237 10.5756 14.5313C10.8691 14.239 10.87 13.7641 10.5777 13.4707C9.414 12.3025 9.44534 10.1912 10.8806 8.75036L15.7283 3.8839Z" fill="currentColor" />
      <path d="M14.4849 9.47068C14.1925 9.17722 13.7177 9.1763 13.4242 9.46862C13.1307 9.76095 13.1298 10.2358 13.4221 10.5293C14.5858 11.6975 14.5545 13.8087 13.1192 15.2496L8.27153 20.1161C6.83721 21.5559 4.73913 21.5862 3.57766 20.4202C2.414 19.252 2.44534 17.1408 3.88065 15.6999L6.30449 13.2666C6.59681 12.9732 6.59589 12.4983 6.30243 12.206C6.00897 11.9136 5.5341 11.9146 5.24177 12.208L2.81793 14.6413C0.906631 16.56 0.666672 19.6234 2.51495 21.4788C4.36542 23.3365 7.42197 23.0944 9.33425 21.1747L14.1819 16.3082C16.0932 14.3894 16.3331 11.3261 14.4849 9.47068Z" fill="currentColor" />
    </symbol>
    <symbol id="snowflake" width="100%" height="100%" viewBox="0 0 20 20">
      <path fill-rule="evenodd" clip-rule="evenodd" d="M10.0001 1.04199C10.3452 1.04199 10.6251 1.32181 10.6251 1.66699V3.49144L12.0581 2.05838C12.3022 1.81431 12.6979 1.81431 12.942 2.05838C13.1861 2.30246 13.1861 2.69819 12.942 2.94227L10.6251 5.25921V8.9178L13.7934 7.08856L14.6415 3.92356C14.7308 3.59014 15.0735 3.39228 15.4069 3.48162C15.7404 3.57095 15.9382 3.91366 15.8489 4.24708L15.3243 6.20467L16.9044 5.29245C17.2033 5.11986 17.5855 5.22228 17.7581 5.52122C17.9307 5.82015 17.8283 6.20239 17.5294 6.37498L15.9493 7.28721L17.9069 7.81174C18.2404 7.90108 18.4382 8.24379 18.3489 8.57721C18.2595 8.91062 17.9168 9.10849 17.5834 9.01915L14.4184 8.17109L11.2501 10.0003L14.4186 11.8297L17.5836 10.9816C17.917 10.8923 18.2597 11.0901 18.349 11.4236C18.4384 11.757 18.2405 12.0997 17.9071 12.189L15.9495 12.7136L17.5295 13.6258C17.8285 13.7984 17.9309 14.1806 17.7583 14.4795C17.5857 14.7785 17.2035 14.8809 16.9045 14.7083L15.3245 13.7961L15.849 15.7537C15.9384 16.0871 15.7405 16.4298 15.4071 16.5191C15.0737 16.6085 14.731 16.4106 14.6416 16.0772L13.7936 12.9122L10.6251 11.0829V14.7414L12.942 17.0584C13.1861 17.3025 13.1861 17.6982 12.942 17.9423C12.6979 18.1863 12.3022 18.1863 12.0581 17.9423L10.6251 16.5092V18.3337C10.6251 18.6788 10.3452 18.9587 10.0001 18.9587C9.65489 18.9587 9.37507 18.6788 9.37507 18.3337V16.5092L7.94201 17.9423C7.69793 18.1863 7.3022 18.1863 7.05812 17.9423C6.81405 17.6982 6.81405 17.3025 7.05812 17.0584L9.37507 14.7414V11.0829L6.20656 12.9122L5.3585 16.0772C5.26916 16.4106 4.92645 16.6085 4.59303 16.5191C4.25962 16.4298 4.06175 16.0871 4.15109 15.7537L4.67563 13.7961L3.09561 14.7083C2.79667 14.8809 2.41443 14.7785 2.24184 14.4795C2.06925 14.1806 2.17167 13.7984 2.47061 13.6258L4.05063 12.7136L2.09303 12.189C1.75962 12.0997 1.56175 11.757 1.65109 11.4236C1.74043 11.0901 2.08314 10.8923 2.41656 10.9816L5.58156 11.8297L8.75007 10.0003L5.58172 8.17109L2.41672 9.01915C2.0833 9.10849 1.74059 8.91062 1.65125 8.57721C1.56192 8.24379 1.75978 7.90108 2.0932 7.81174L4.05079 7.28721L2.47077 6.37498C2.17184 6.20239 2.06941 5.82015 2.242 5.52122C2.41459 5.22228 2.79684 5.11986 3.09577 5.29245L4.67579 6.20467L4.15125 4.24708C4.06191 3.91366 4.25978 3.57095 4.5932 3.48162C4.92661 3.39228 5.26932 3.59014 5.35866 3.92356L6.20672 7.08856L9.37507 8.9178V5.25921L7.05812 2.94227C6.81405 2.69819 6.81405 2.30246 7.05812 2.05838C7.3022 1.81431 7.69793 1.81431 7.94201 2.05838L9.37507 3.49144V1.66699C9.37507 1.32181 9.65489 1.04199 10.0001 1.04199Z" fill="currentColor" />
    </symbol>
    <symbol id="headphones" width="100%" height="100%" viewBox="0 0 24 24">
      <path d="M22 17V12C22 6.47715 17.5228 2 12 2C6.47715 2 2 6.47715 2 12V18" fill="none" stroke="currentColor" stroke-width="1.5"/>
      <path d="M8 15.1871C8 14.6088 8 14.3196 7.93097 14.0899C7.77135 13.5588 7.35457 13.156 6.83579 13.0313C6.61143 12.9775 6.33578 13.0002 5.78447 13.0457C4.82772 13.1247 4.34935 13.1642 3.95934 13.3151C3.06004 13.6629 2.3739 14.4394 2.1131 15.4044C2 15.8229 2 16.3248 2 17.3285V17.514C2 18.5431 2 19.0577 2.12305 19.493C2.36454 20.3475 2.942 21.0543 3.71133 21.437C4.10333 21.632 4.58932 21.7123 5.56129 21.8728C6.20632 21.9793 6.52883 22.0326 6.78984 21.9788C7.30414 21.8729 7.72826 21.4938 7.90852 20.9791C8 20.7178 8 20.3763 8 19.6934V15.1871Z" fill="none" stroke="currentColor" stroke-width="1.5"/>
      <path d="M16 15.1871C16 14.6088 16 14.3196 16.069 14.0899C16.2286 13.5588 16.6454 13.156 17.1642 13.0313C17.3886 12.9775 17.6642 13.0002 18.2155 13.0457C19.1723 13.1247 19.6506 13.1642 20.0407 13.3151C20.94 13.6629 21.6261 14.4394 21.8869 15.4044C22 15.8229 22 16.3248 22 17.3285V17.514C22 18.5431 22 19.0577 21.877 19.493C21.6355 20.3475 21.058 21.0543 20.2887 21.437C19.8967 21.632 19.4107 21.7123 18.4387 21.8728C17.7937 21.9793 17.4712 22.0326 17.2102 21.9788C16.6959 21.8729 16.2717 21.4938 16.0915 20.9791C16 20.7178 16 20.3763 16 19.6934V15.1871Z" fill="none" stroke="currentColor" stroke-width="1.5"/>
      <path d="M12 6.5L12 11.5" fill="none" stroke="currentColor" stroke-width="1.5" stroke-linecap="round"/>
      <path d="M15 8L15 10" fill="none" stroke="currentColor" stroke-width="1.5" stroke-linecap="round"/>
      <path d="M9 8L9 10" fill="none" stroke="currentColor" stroke-width="1.5" stroke-linecap="round"/>
    </symbol>
    <symbol id="link-copy" width="100%" height="100%" viewBox="0 0 24 24">
      <path d="M10.0464 14C8.54044 12.4882 8.67609 9.90087 10.3494 8.22108L15.197 3.35462C16.8703 1.67483 19.4476 1.53865 20.9536 3.05046C22.4596 4.56228 22.3239 7.14956 20.6506 8.82935L18.2268 11.2626" fill="none" stroke="currentColor" stroke-width="1.5" stroke-linecap="round"/>
      <path d="M13.9536 10C15.4596 11.5118 15.3239 14.0991 13.6506 15.7789L11.2268 18.2121L8.80299 20.6454C7.12969 22.3252 4.55237 22.4613 3.0464 20.9495C1.54043 19.4377 1.67609 16.8504 3.34939 15.1706L5.77323 12.7373" fill="none" stroke="currentColor" stroke-width="1.5" stroke-linecap="round"/>
    </symbol>
  </defs>
</svg>