<svg width="32" height="32" viewBox="0 0 32 32" fill="none" xmlns="http://www.w3.org/2000/svg">
<path d="M27.9669 16.247L26.9815 16.0766L26.9815 16.0766L27.9669 16.247ZM27.0262 21.6867L26.0408 21.5163L26.0408 21.5163L27.0262 21.6867ZM9.25036 27.3028L8.25408 27.389L8.25408 27.389L9.25036 27.3028ZM8.16748 14.7793L9.16376 14.6931L9.16376 14.6931L8.16748 14.7793ZM18.6599 6.96198L19.6468 7.12366L19.6468 7.12366L18.6599 6.96198ZM17.7764 12.3547L18.7632 12.5164L18.7632 12.5164L17.7764 12.3547ZM8.93085 12.9034L8.27807 12.1459L8.27806 12.1459L8.93085 12.9034ZM10.8492 11.2503L11.502 12.0079L11.502 12.0079L10.8492 11.2503ZM14.0241 6.37841L13.0561 6.12731L13.0561 6.12731L14.0241 6.37841ZM14.6583 3.93327L15.6263 4.18436L15.6263 4.18436L14.6583 3.93327ZM16.8901 2.75255L16.5843 3.70463L16.5843 3.70463L16.8901 2.75255ZM17.0834 2.81465L17.3893 1.86257L17.3893 1.86257L17.0834 2.81465ZM13.1493 8.6169L14.0313 9.08807L14.0313 9.08807L13.1493 8.6169ZM18.5396 4.33011L17.5716 4.58121L17.5716 4.58121L18.5396 4.33011ZM15.5656 2.84327L15.1315 1.94241L15.1315 1.94241L15.5656 2.84327ZM5.29546 28.6277L4.29918 28.7139L4.29918 28.7139L5.29546 28.6277ZM4 13.6457L4.99628 13.5595C4.95015 13.026 4.49191 12.6235 3.95689 12.6466C3.42187 12.6697 3 13.1102 3 13.6457L4 13.6457ZM26.9815 16.0766L26.0408 21.5163L28.0115 21.8571L28.9523 16.4174L26.9815 16.0766ZM17.66 28.3334H11.4618V30.3334H17.66V28.3334ZM10.2466 27.2167L9.16376 14.6931L7.17119 14.8654L8.25408 27.389L10.2466 27.2167ZM26.0408 21.5163C25.365 25.4237 21.8417 28.3334 17.66 28.3334V30.3334C22.7617 30.3334 27.1611 26.7748 28.0115 21.8571L26.0408 21.5163ZM17.6731 6.80029L16.7895 12.193L18.7632 12.5164L19.6468 7.12366L17.6731 6.80029ZM9.58364 13.6609L11.502 12.0079L10.1964 10.4928L8.27807 12.1459L9.58364 13.6609ZM14.992 6.6295L15.6263 4.18436L13.6904 3.68217L13.0561 6.12731L14.992 6.6295ZM16.5843 3.70463L16.7776 3.76673L17.3893 1.86257L17.196 1.80047L16.5843 3.70463ZM14.0313 9.08807C14.4473 8.30938 14.7702 7.48461 14.992 6.6295L13.0561 6.12731C12.8743 6.82818 12.6093 7.50531 12.2672 8.14574L14.0313 9.08807ZM16.7776 3.76673C17.1861 3.89798 17.4762 4.21353 17.5716 4.58121L19.5075 4.07902C19.2336 3.023 18.4253 2.19539 17.3893 1.86257L16.7776 3.76673ZM15.6263 4.18436C15.673 4.00435 15.803 3.83892 15.9997 3.74414L15.1315 1.94241C14.4222 2.28421 13.8894 2.9151 13.6904 3.68217L15.6263 4.18436ZM15.9997 3.74414C16.1794 3.65756 16.3909 3.6425 16.5843 3.70463L17.196 1.80048C16.5163 1.58214 15.775 1.63235 15.1315 1.94241L15.9997 3.74414ZM18.8716 14.6457H25.7797V12.6457H18.8716V14.6457ZM6.29175 28.5416L4.99628 13.5595L3.00372 13.7318L4.29918 28.7139L6.29175 28.5416ZM5 28.6837V13.6457H3V28.6837H5ZM4.29918 28.7139C4.28159 28.5105 4.44194 28.3334 4.64894 28.3334V30.3334C5.61691 30.3334 6.37496 29.504 6.29175 28.5416L4.29918 28.7139ZM19.6468 7.12366C19.8128 6.11016 19.7654 5.07311 19.5075 4.07902L17.5716 4.58121C17.7596 5.30572 17.7941 6.06159 17.6731 6.80029L19.6468 7.12366ZM11.4618 28.3334C10.8299 28.3334 10.3014 27.8494 10.2466 27.2167L8.25408 27.389C8.39803 29.0537 9.79026 30.3334 11.4618 30.3334V28.3334ZM11.502 12.0079C12.4084 11.2268 13.3855 10.297 14.0313 9.08807L12.2672 8.14574C11.8054 9.01031 11.07 9.73998 10.1964 10.4928L11.502 12.0079ZM28.9523 16.4174C29.2927 14.4488 27.7788 12.6457 25.7797 12.6457V14.6457C26.5352 14.6457 27.111 15.328 26.9815 16.0766L28.9523 16.4174ZM4.64894 28.3334C4.8439 28.3334 5 28.4913 5 28.6837H3C3 29.5938 3.73719 30.3334 4.64894 30.3334V28.3334ZM16.7895 12.193C16.5792 13.4768 17.5688 14.6457 18.8716 14.6457V12.6457C18.8051 12.6457 18.7519 12.5854 18.7632 12.5164L16.7895 12.193ZM9.16376 14.6931C9.12987 14.3012 9.28633 13.9171 9.58364 13.6609L8.27806 12.1459C7.49363 12.8218 7.08199 13.8338 7.17119 14.8654L9.16376 14.6931Z" fill="url(#paint0_linear_1038_124)"/>
<path d="M27.9669 16.247L26.9815 16.0766L26.9815 16.0766L27.9669 16.247ZM27.0262 21.6867L26.0408 21.5163L26.0408 21.5163L27.0262 21.6867ZM9.25036 27.3028L8.25408 27.389L8.25408 27.389L9.25036 27.3028ZM8.16748 14.7793L9.16376 14.6931L9.16376 14.6931L8.16748 14.7793ZM18.6599 6.96198L19.6468 7.12366L19.6468 7.12366L18.6599 6.96198ZM17.7764 12.3547L18.7632 12.5164L18.7632 12.5164L17.7764 12.3547ZM8.93085 12.9034L8.27807 12.1459L8.27806 12.1459L8.93085 12.9034ZM10.8492 11.2503L11.502 12.0079L11.502 12.0079L10.8492 11.2503ZM14.0241 6.37841L13.0561 6.12731L13.0561 6.12731L14.0241 6.37841ZM14.6583 3.93327L15.6263 4.18436L15.6263 4.18436L14.6583 3.93327ZM16.8901 2.75255L16.5843 3.70463L16.5843 3.70463L16.8901 2.75255ZM17.0834 2.81465L17.3893 1.86257L17.3893 1.86257L17.0834 2.81465ZM13.1493 8.6169L14.0313 9.08807L14.0313 9.08807L13.1493 8.6169ZM18.5396 4.33011L17.5716 4.58121L17.5716 4.58121L18.5396 4.33011ZM15.5656 2.84327L15.1315 1.94241L15.1315 1.94241L15.5656 2.84327ZM5.29546 28.6277L4.29918 28.7139L4.29918 28.7139L5.29546 28.6277ZM4 13.6457L4.99628 13.5595C4.95015 13.026 4.49191 12.6235 3.95689 12.6466C3.42187 12.6697 3 13.1102 3 13.6457L4 13.6457ZM26.9815 16.0766L26.0408 21.5163L28.0115 21.8571L28.9523 16.4174L26.9815 16.0766ZM17.66 28.3334H11.4618V30.3334H17.66V28.3334ZM10.2466 27.2167L9.16376 14.6931L7.17119 14.8654L8.25408 27.389L10.2466 27.2167ZM26.0408 21.5163C25.365 25.4237 21.8417 28.3334 17.66 28.3334V30.3334C22.7617 30.3334 27.1611 26.7748 28.0115 21.8571L26.0408 21.5163ZM17.6731 6.80029L16.7895 12.193L18.7632 12.5164L19.6468 7.12366L17.6731 6.80029ZM9.58364 13.6609L11.502 12.0079L10.1964 10.4928L8.27807 12.1459L9.58364 13.6609ZM14.992 6.6295L15.6263 4.18436L13.6904 3.68217L13.0561 6.12731L14.992 6.6295ZM16.5843 3.70463L16.7776 3.76673L17.3893 1.86257L17.196 1.80047L16.5843 3.70463ZM14.0313 9.08807C14.4473 8.30938 14.7702 7.48461 14.992 6.6295L13.0561 6.12731C12.8743 6.82818 12.6093 7.50531 12.2672 8.14574L14.0313 9.08807ZM16.7776 3.76673C17.1861 3.89798 17.4762 4.21353 17.5716 4.58121L19.5075 4.07902C19.2336 3.023 18.4253 2.19539 17.3893 1.86257L16.7776 3.76673ZM15.6263 4.18436C15.673 4.00435 15.803 3.83892 15.9997 3.74414L15.1315 1.94241C14.4222 2.28421 13.8894 2.9151 13.6904 3.68217L15.6263 4.18436ZM15.9997 3.74414C16.1794 3.65756 16.3909 3.6425 16.5843 3.70463L17.196 1.80048C16.5163 1.58214 15.775 1.63235 15.1315 1.94241L15.9997 3.74414ZM18.8716 14.6457H25.7797V12.6457H18.8716V14.6457ZM6.29175 28.5416L4.99628 13.5595L3.00372 13.7318L4.29918 28.7139L6.29175 28.5416ZM5 28.6837V13.6457H3V28.6837H5ZM4.29918 28.7139C4.28159 28.5105 4.44194 28.3334 4.64894 28.3334V30.3334C5.61691 30.3334 6.37496 29.504 6.29175 28.5416L4.29918 28.7139ZM19.6468 7.12366C19.8128 6.11016 19.7654 5.07311 19.5075 4.07902L17.5716 4.58121C17.7596 5.30572 17.7941 6.06159 17.6731 6.80029L19.6468 7.12366ZM11.4618 28.3334C10.8299 28.3334 10.3014 27.8494 10.2466 27.2167L8.25408 27.389C8.39803 29.0537 9.79026 30.3334 11.4618 30.3334V28.3334ZM11.502 12.0079C12.4084 11.2268 13.3855 10.297 14.0313 9.08807L12.2672 8.14574C11.8054 9.01031 11.07 9.73998 10.1964 10.4928L11.502 12.0079ZM28.9523 16.4174C29.2927 14.4488 27.7788 12.6457 25.7797 12.6457V14.6457C26.5352 14.6457 27.111 15.328 26.9815 16.0766L28.9523 16.4174ZM4.64894 28.3334C4.8439 28.3334 5 28.4913 5 28.6837H3C3 29.5938 3.73719 30.3334 4.64894 30.3334V28.3334ZM16.7895 12.193C16.5792 13.4768 17.5688 14.6457 18.8716 14.6457V12.6457C18.8051 12.6457 18.7519 12.5854 18.7632 12.5164L16.7895 12.193ZM9.16376 14.6931C9.12987 14.3012 9.28633 13.9171 9.58364 13.6609L8.27806 12.1459C7.49363 12.8218 7.08199 13.8338 7.17119 14.8654L9.16376 14.6931Z" fill="url(#paint1_radial_1038_124)" fill-opacity="0.3"/>
<defs>
<linearGradient id="paint0_linear_1038_124" x1="9.03448" y1="2.66674" x2="30.4905" y2="4.8492" gradientUnits="userSpaceOnUse">
<stop stop-color="#0092D5"/>
<stop offset="1" stop-color="#5549DF"/>
</linearGradient>
<radialGradient id="paint1_radial_1038_124" cx="0" cy="0" r="1" gradientUnits="userSpaceOnUse" gradientTransform="translate(16 2.66675) rotate(90) scale(26.6667 24)">
<stop stop-color="white"/>
<stop offset="0.730539" stop-color="white" stop-opacity="0"/>
</radialGradient>
</defs>
</svg>
