<svg width="197" height="225" viewBox="0 0 197 225" fill="none" xmlns="http://www.w3.org/2000/svg">
<mask id="path-1-outside-1_277_252" maskUnits="userSpaceOnUse" x="0" y="0" width="197" height="225" fill="black">
<rect fill="white" width="197" height="225"/>
<path d="M93.4302 195.71V215.857C93.4302 218.691 95.7232 220.997 98.5438 220.997C101.363 220.997 103.657 218.691 103.657 215.857V195.62L114.418 206.427C115.414 207.428 116.681 207.978 117.986 207.978C119.291 207.978 120.56 207.428 121.557 206.427C123.626 204.349 123.626 201.329 121.556 199.25L103.657 181.274V166.653L127.38 190.48C129.367 192.48 132.523 192.48 134.518 190.48C136.588 188.401 136.588 185.381 134.517 183.302L103.657 152.307V134.863L104.653 134.58C108.326 133.543 111.713 131.584 114.447 128.919L115.188 128.195L128.01 135.614L128.157 136.161L139.369 177.892C140.131 180.729 142.744 182.241 145.572 181.481C146.934 181.116 148.044 180.292 148.697 179.158C149.35 178.025 149.507 176.65 149.141 175.287L142.78 143.783L155.178 150.956L161.763 175.475C162.526 178.313 165.142 179.82 167.967 179.064C169.331 178.7 170.44 177.875 171.092 176.742C171.746 175.609 171.904 174.234 171.537 172.871L167.935 158.337L185.347 168.41C186.53 169.094 187.91 169.275 189.237 168.92C190.563 168.565 191.668 167.722 192.346 166.543C193.026 165.364 193.203 163.983 192.847 162.656C192.489 161.326 191.642 160.218 190.461 159.536L172.971 149.416L187.692 145.482C189.055 145.118 190.164 144.293 190.817 143.16C191.471 142.027 191.628 140.653 191.26 139.288C190.501 136.452 187.89 134.944 185.058 135.7L160.572 142.242L147.937 134.933L180.39 126.261C181.752 125.896 182.862 125.072 183.515 123.938C184.167 122.805 184.326 121.43 183.958 120.067C183.197 117.23 180.592 115.721 177.756 116.477L135.536 127.76L120.454 119.034L120.707 118.03C121.191 116.116 121.436 114.211 121.436 112.368C121.436 110.527 121.191 108.622 120.707 106.707L120.454 105.703L133.285 98.2796L175.506 109.561C178.334 110.319 180.946 108.808 181.708 105.974C182.074 104.609 181.917 103.234 181.263 102.101C180.611 100.968 179.501 100.143 178.139 99.7799L147.731 89.5488L160.129 82.3765L184.615 88.9194C187.443 89.6767 190.056 88.166 190.818 85.3307C191.184 83.9673 191.027 82.5923 190.373 81.4589C189.721 80.3256 188.611 79.5011 187.248 79.1366L172.886 74.9948L190.3 64.9213C192.749 63.5036 193.595 60.3607 192.185 57.9131C190.774 55.4668 187.633 54.6294 185.186 56.0457L167.695 66.1645L171.656 51.4232C172.022 50.0598 171.865 48.6848 171.212 47.5514C170.56 46.4181 169.449 45.5936 168.087 45.2291C165.255 44.4706 162.646 45.9813 161.883 48.8179L155.296 73.3381L142.66 80.6486L151.391 48.1485C151.759 46.7851 151.6 45.4101 150.947 44.2767C150.295 43.1434 149.184 42.3189 147.823 41.9544C144.99 41.1946 142.38 42.7066 141.618 45.5445L130.262 87.8209L115.188 96.5414L114.447 95.819C111.714 93.1543 108.327 91.1964 104.653 90.1561L103.657 89.8744V75.0349L134.517 44.0389C136.588 41.9596 136.588 38.9408 134.517 36.8615C132.524 34.861 129.368 34.861 127.379 36.8615L103.334 58.1341V43.7895L121.231 25.8123C123.302 23.7329 123.302 20.7141 121.232 18.6361C120.235 17.6358 118.968 17.084 117.663 17.084C116.358 17.084 115.089 17.6358 114.093 18.6361L103.334 29.0288V8.87918C103.334 6.04516 101.039 3.73969 98.2201 3.73969C95.3995 3.73969 93.1065 6.04516 93.1065 8.87918V29.118L82.3441 18.3104C80.3541 16.3099 77.1982 16.3099 75.2082 18.3104C73.1383 20.3885 73.1383 23.4073 75.2082 25.4866L93.1065 43.4639V58.0837L69.3827 34.2575C67.3928 32.2583 64.2356 32.2583 62.2456 34.2575C60.1757 36.3368 60.1757 39.3556 62.2456 41.4362L93.1065 72.4309V89.8744L92.1108 90.1561C88.4365 91.1964 85.0498 93.1543 82.317 95.819L81.5754 96.5414L68.7521 89.1236L68.6064 88.5769L57.3951 46.8458C56.6329 44.0092 54.0265 42.4972 51.1905 43.2571C49.8286 43.6215 48.7194 44.4447 48.0669 45.5781C47.413 46.7114 47.2556 48.0864 47.6206 49.4511L53.9826 80.9549L41.5862 73.7813L34.9985 49.2624C34.2376 46.4258 31.6273 44.9177 28.7951 45.6724C27.4332 46.0368 26.3241 46.8613 25.6715 47.9947C25.0189 49.128 24.8603 50.503 25.2266 51.8677L28.8274 66.401L11.414 56.3275C10.2353 55.6451 8.85273 55.4629 7.52565 55.8183C6.19985 56.1724 5.09589 57.0163 4.41623 58.1948C3.0066 60.6425 3.85134 63.7854 6.30174 65.203L23.7924 75.3218L9.07069 79.2555C7.70878 79.6187 6.59966 80.4432 5.94708 81.5765C5.2945 82.7099 5.13586 84.0849 5.50213 85.4496C6.26434 88.2862 8.87466 89.7956 11.7055 89.0383L36.1914 82.4953L48.8265 89.8046L16.3729 98.4773C15.011 98.8417 13.9018 99.6662 13.2493 100.8C12.5967 101.933 12.4381 103.308 12.8043 104.671C13.5665 107.509 16.1807 109.017 19.0077 108.26L61.2255 96.9782L76.3071 105.703L76.0543 106.707C75.5706 108.627 75.3269 110.532 75.3269 112.368C75.3269 114.206 75.5706 116.111 76.0543 118.031L76.3071 119.034L63.476 126.458L21.2582 115.175C18.4273 114.417 15.817 115.927 15.0548 118.764C14.6886 120.129 14.8459 121.504 15.4998 122.637C16.1523 123.77 17.2615 124.593 18.6247 124.958L49.0315 135.189L36.6351 142.361L12.1492 135.818C9.31444 135.059 6.7067 136.571 5.94579 139.407C5.57952 140.771 5.73686 142.146 6.39073 143.279C7.04331 144.412 8.15243 145.237 9.51434 145.601L23.8763 149.743L6.46295 159.817C4.01384 161.233 3.1691 164.376 4.57744 166.823C5.2571 168.002 6.36106 168.846 7.68815 169.201C9.01523 169.555 10.3965 169.376 11.5765 168.692L29.0685 158.572L25.1066 173.315C24.7403 174.678 24.899 176.053 25.5516 177.186C26.2054 178.32 27.3146 179.144 28.6765 179.509C31.5073 180.266 34.1176 178.757 34.8798 175.92L41.4663 151.398L54.1039 144.09L45.3714 176.588C45.0051 177.953 45.1625 179.328 45.8164 180.461C46.4689 181.594 47.5781 182.419 48.9413 182.783C51.7657 183.538 54.3824 182.03 55.1433 179.193L66.5016 136.916L81.5767 128.195L82.317 128.919C85.0498 131.584 88.4365 133.541 92.1108 134.58L93.1065 134.863V149.703L62.2456 180.699C60.1757 182.778 60.1757 185.797 62.2456 187.876C64.2356 189.876 67.3928 189.876 69.3827 187.876L93.4302 166.604V180.948L75.532 198.926C73.462 201.005 73.462 204.024 75.532 206.103C77.5206 208.101 80.6765 208.101 82.6678 206.103L93.4302 195.71ZM98.5438 223.737C94.2156 223.737 90.6948 220.203 90.6948 215.857V202.156L84.5855 208.057C83.0921 209.556 81.1395 210.392 79.1018 210.393C77.0641 210.393 75.1089 209.557 73.5961 208.039C70.4596 204.89 70.4596 200.139 73.5948 196.99L90.6948 179.815V172.678L71.2554 189.87C69.807 191.331 67.8519 192.167 65.8142 192.167C63.7765 192.167 61.8213 191.331 60.3085 189.811C57.1746 186.663 57.1746 181.912 60.3085 178.763L90.371 148.57V136.914C86.9753 135.802 83.8285 133.982 81.1704 131.594L68.8488 138.722L57.7833 179.905C56.6316 184.202 52.5266 186.579 48.2358 185.43C46.1684 184.878 44.4661 183.599 43.4472 181.831C42.4296 180.063 42.1756 177.948 42.7314 175.876L49.7434 149.775L43.8135 153.206L37.5185 176.632C36.3668 180.928 32.2656 183.303 27.971 182.157C25.9023 181.604 24.2025 180.325 23.1837 178.558C22.1648 176.788 21.9095 174.674 22.4666 172.603L24.7081 164.259L12.9449 171.065C11.1316 172.113 9.01523 172.392 6.98269 171.849C4.95015 171.305 3.2555 170.008 2.21086 168.195C0.0467688 164.438 1.34033 159.615 5.09589 157.444L16.9365 150.593L8.78309 148.241C6.74152 147.696 5.04043 146.417 4.02158 144.649C3.00273 142.881 2.74866 140.767 3.30451 138.695C4.46007 134.399 8.56126 132.024 12.8533 133.171L36.2469 139.421L42.4142 135.853L17.8367 127.58C15.8506 127.053 14.1495 125.775 13.1306 124.007C12.1118 122.238 11.8577 120.123 12.4135 118.052C13.5704 113.756 17.6716 111.382 21.9637 112.527L63.0891 123.518L73.1667 117.687C72.7849 115.89 72.5915 114.105 72.5915 112.368C72.5915 110.633 72.7849 108.848 73.1667 107.05L60.8386 99.9182L19.7132 110.908C15.4262 112.053 11.3186 109.68 10.1643 105.383C9.60719 103.312 9.86255 101.198 10.8814 99.4297C11.899 97.6605 13.6001 96.3825 15.6687 95.8294L41.7332 88.8651L35.8032 85.434L12.4097 91.6849C8.12664 92.8325 4.01513 90.4585 2.86087 86.1603C2.30501 84.0888 2.56037 81.9745 3.57922 80.2067C4.59678 78.4388 6.29787 77.1607 8.36523 76.6076L16.6979 74.381L4.93338 67.5757C1.17911 65.4033 -0.115731 60.5804 2.04836 56.825C3.093 55.0106 4.78765 53.7131 6.82148 53.1704C8.85273 52.6276 10.9704 52.9054 12.7824 53.9548L24.623 60.804L22.5788 52.5539C22.0294 50.5082 22.2835 48.3927 23.3036 46.6235C24.3225 44.857 26.0223 43.5776 28.0896 43.0258C32.383 41.873 36.4868 44.2534 37.6385 48.5504L43.9334 71.976L50.1007 75.544L44.9613 50.0779C44.4248 48.0903 44.6789 45.9761 45.6977 44.2069C46.7166 42.4391 48.4176 41.1623 50.485 40.6092C54.7848 39.4603 58.8834 41.8394 60.0338 46.1338L71.1006 87.3169L81.1704 93.1426C83.8285 90.7558 86.9753 88.9362 90.371 87.8235V73.5642L60.3085 43.3708C57.1746 40.2215 57.1746 35.4709 60.3085 32.3229C61.8213 30.8031 63.7765 29.967 65.8142 29.967C67.8519 29.967 69.807 30.8031 71.3186 32.3229L90.371 51.4568V44.5972L73.2711 27.4225C70.1359 24.2731 70.1359 19.5239 73.2711 16.3746C74.7839 14.8561 76.7391 14.0187 78.7768 14.0187C80.8145 14.0187 82.7684 14.8561 84.2812 16.3746L90.371 22.491V8.87918C90.371 4.53445 93.8919 1 98.2201 1C102.547 1 106.069 4.53445 106.069 8.87918V22.5802L112.177 16.6808C113.669 15.1805 115.626 14.3443 117.662 14.3443C119.7 14.3443 121.655 15.1818 123.168 16.7002C126.303 19.8496 126.303 24.5988 123.166 27.7481L106.069 44.9229V52.059L125.507 34.8661C126.957 33.4071 128.912 32.571 130.95 32.571C132.986 32.571 134.941 33.4071 136.453 34.9256C139.589 38.0762 139.589 42.8255 136.454 45.9748L106.393 76.1682V87.8235C109.789 88.9362 112.935 90.7558 115.593 93.1426L127.914 86.0156L138.978 44.8324C140.132 40.5342 144.239 38.1602 148.528 39.3078C150.597 39.8596 152.298 41.139 153.317 42.9069C154.334 44.6747 154.588 46.7902 154.031 48.8618L147.02 74.9612L152.948 71.5314L159.243 48.1058C160.397 43.8102 164.503 41.4336 168.793 42.5812C170.861 43.1343 172.561 44.4124 173.58 46.1816C174.599 47.9494 174.853 50.0637 174.296 52.1352L172.056 60.4783L183.819 53.6731C187.576 51.4994 192.39 52.7891 194.553 56.5433C196.717 60.2987 195.422 65.1216 191.668 67.294L179.826 74.1445L187.979 76.4952C190.022 77.0418 191.723 78.3199 192.742 80.0891C193.76 81.8569 194.014 83.9712 193.458 86.044C192.305 90.3383 188.197 92.7162 183.909 91.5673L160.517 85.3152L154.348 88.8845L178.927 97.1565C180.913 97.6838 182.613 98.9632 183.632 100.731C184.649 102.5 184.905 104.614 184.348 106.686C183.196 110.983 179.091 113.356 174.8 112.209L133.673 101.22L123.596 107.05C123.978 108.844 124.171 110.629 124.171 112.368C124.171 114.109 123.978 115.894 123.596 117.687L135.924 124.821L177.051 113.83C181.347 112.678 185.447 115.059 186.598 119.354C187.155 121.426 186.901 123.54 185.884 125.308C184.864 127.077 183.162 128.355 181.095 128.908L155.031 135.873L160.959 139.304L184.353 133.052C188.644 131.903 192.749 134.279 193.9 138.576C194.458 140.648 194.203 142.762 193.186 144.53C192.167 146.299 190.466 147.577 188.397 148.13L180.065 150.357L191.829 157.162C193.641 158.21 194.94 159.908 195.487 161.944C196.035 163.979 195.76 166.098 194.714 167.913C193.671 169.726 191.975 171.023 189.941 171.567C187.91 172.109 185.792 171.831 183.98 170.783L172.138 163.934L174.184 172.184C174.733 174.23 174.479 176.344 173.461 178.112C172.443 179.881 170.742 181.159 168.673 181.712C164.386 182.856 160.277 180.484 159.124 176.189L152.83 152.762L146.661 149.194L151.801 174.659C152.338 176.646 152.084 178.76 151.065 180.528C150.046 182.297 148.346 183.576 146.278 184.129C141.98 185.271 137.882 182.898 136.729 178.604L125.663 137.421L115.593 131.594C112.934 133.982 109.787 135.802 106.393 136.914V151.174L136.454 181.366C139.589 184.516 139.589 189.266 136.454 192.415C134.941 193.933 132.986 194.771 130.95 194.771C128.912 194.771 126.957 193.933 125.444 192.416L106.393 173.28V180.141L123.493 197.314C126.627 200.465 126.627 205.214 123.493 208.363C121.979 209.882 120.023 210.719 117.987 210.719C115.949 210.718 113.994 209.882 112.481 208.363L106.393 202.247V215.857C106.393 220.203 102.871 223.737 98.5438 223.737Z"/>
</mask>
<path d="M93.4302 195.71V215.857C93.4302 218.691 95.7232 220.997 98.5438 220.997C101.363 220.997 103.657 218.691 103.657 215.857V195.62L114.418 206.427C115.414 207.428 116.681 207.978 117.986 207.978C119.291 207.978 120.56 207.428 121.557 206.427C123.626 204.349 123.626 201.329 121.556 199.25L103.657 181.274V166.653L127.38 190.48C129.367 192.48 132.523 192.48 134.518 190.48C136.588 188.401 136.588 185.381 134.517 183.302L103.657 152.307V134.863L104.653 134.58C108.326 133.543 111.713 131.584 114.447 128.919L115.188 128.195L128.01 135.614L128.157 136.161L139.369 177.892C140.131 180.729 142.744 182.241 145.572 181.481C146.934 181.116 148.044 180.292 148.697 179.158C149.35 178.025 149.507 176.65 149.141 175.287L142.78 143.783L155.178 150.956L161.763 175.475C162.526 178.313 165.142 179.82 167.967 179.064C169.331 178.7 170.44 177.875 171.092 176.742C171.746 175.609 171.904 174.234 171.537 172.871L167.935 158.337L185.347 168.41C186.53 169.094 187.91 169.275 189.237 168.92C190.563 168.565 191.668 167.722 192.346 166.543C193.026 165.364 193.203 163.983 192.847 162.656C192.489 161.326 191.642 160.218 190.461 159.536L172.971 149.416L187.692 145.482C189.055 145.118 190.164 144.293 190.817 143.16C191.471 142.027 191.628 140.653 191.26 139.288C190.501 136.452 187.89 134.944 185.058 135.7L160.572 142.242L147.937 134.933L180.39 126.261C181.752 125.896 182.862 125.072 183.515 123.938C184.167 122.805 184.326 121.43 183.958 120.067C183.197 117.23 180.592 115.721 177.756 116.477L135.536 127.76L120.454 119.034L120.707 118.03C121.191 116.116 121.436 114.211 121.436 112.368C121.436 110.527 121.191 108.622 120.707 106.707L120.454 105.703L133.285 98.2796L175.506 109.561C178.334 110.319 180.946 108.808 181.708 105.974C182.074 104.609 181.917 103.234 181.263 102.101C180.611 100.968 179.501 100.143 178.139 99.7799L147.731 89.5488L160.129 82.3765L184.615 88.9194C187.443 89.6767 190.056 88.166 190.818 85.3307C191.184 83.9673 191.027 82.5923 190.373 81.4589C189.721 80.3256 188.611 79.5011 187.248 79.1366L172.886 74.9948L190.3 64.9213C192.749 63.5036 193.595 60.3607 192.185 57.9131C190.774 55.4668 187.633 54.6294 185.186 56.0457L167.695 66.1645L171.656 51.4232C172.022 50.0598 171.865 48.6848 171.212 47.5514C170.56 46.4181 169.449 45.5936 168.087 45.2291C165.255 44.4706 162.646 45.9813 161.883 48.8179L155.296 73.3381L142.66 80.6486L151.391 48.1485C151.759 46.7851 151.6 45.4101 150.947 44.2767C150.295 43.1434 149.184 42.3189 147.823 41.9544C144.99 41.1946 142.38 42.7066 141.618 45.5445L130.262 87.8209L115.188 96.5414L114.447 95.819C111.714 93.1543 108.327 91.1964 104.653 90.1561L103.657 89.8744V75.0349L134.517 44.0389C136.588 41.9596 136.588 38.9408 134.517 36.8615C132.524 34.861 129.368 34.861 127.379 36.8615L103.334 58.1341V43.7895L121.231 25.8123C123.302 23.7329 123.302 20.7141 121.232 18.6361C120.235 17.6358 118.968 17.084 117.663 17.084C116.358 17.084 115.089 17.6358 114.093 18.6361L103.334 29.0288V8.87918C103.334 6.04516 101.039 3.73969 98.2201 3.73969C95.3995 3.73969 93.1065 6.04516 93.1065 8.87918V29.118L82.3441 18.3104C80.3541 16.3099 77.1982 16.3099 75.2082 18.3104C73.1383 20.3885 73.1383 23.4073 75.2082 25.4866L93.1065 43.4639V58.0837L69.3827 34.2575C67.3928 32.2583 64.2356 32.2583 62.2456 34.2575C60.1757 36.3368 60.1757 39.3556 62.2456 41.4362L93.1065 72.4309V89.8744L92.1108 90.1561C88.4365 91.1964 85.0498 93.1543 82.317 95.819L81.5754 96.5414L68.7521 89.1236L68.6064 88.5769L57.3951 46.8458C56.6329 44.0092 54.0265 42.4972 51.1905 43.2571C49.8286 43.6215 48.7194 44.4447 48.0669 45.5781C47.413 46.7114 47.2556 48.0864 47.6206 49.4511L53.9826 80.9549L41.5862 73.7813L34.9985 49.2624C34.2376 46.4258 31.6273 44.9177 28.7951 45.6724C27.4332 46.0368 26.3241 46.8613 25.6715 47.9947C25.0189 49.128 24.8603 50.503 25.2266 51.8677L28.8274 66.401L11.414 56.3275C10.2353 55.6451 8.85273 55.4629 7.52565 55.8183C6.19985 56.1724 5.09589 57.0163 4.41623 58.1948C3.0066 60.6425 3.85134 63.7854 6.30174 65.203L23.7924 75.3218L9.07069 79.2555C7.70878 79.6187 6.59966 80.4432 5.94708 81.5765C5.2945 82.7099 5.13586 84.0849 5.50213 85.4496C6.26434 88.2862 8.87466 89.7956 11.7055 89.0383L36.1914 82.4953L48.8265 89.8046L16.3729 98.4773C15.011 98.8417 13.9018 99.6662 13.2493 100.8C12.5967 101.933 12.4381 103.308 12.8043 104.671C13.5665 107.509 16.1807 109.017 19.0077 108.26L61.2255 96.9782L76.3071 105.703L76.0543 106.707C75.5706 108.627 75.3269 110.532 75.3269 112.368C75.3269 114.206 75.5706 116.111 76.0543 118.031L76.3071 119.034L63.476 126.458L21.2582 115.175C18.4273 114.417 15.817 115.927 15.0548 118.764C14.6886 120.129 14.8459 121.504 15.4998 122.637C16.1523 123.77 17.2615 124.593 18.6247 124.958L49.0315 135.189L36.6351 142.361L12.1492 135.818C9.31444 135.059 6.7067 136.571 5.94579 139.407C5.57952 140.771 5.73686 142.146 6.39073 143.279C7.04331 144.412 8.15243 145.237 9.51434 145.601L23.8763 149.743L6.46295 159.817C4.01384 161.233 3.1691 164.376 4.57744 166.823C5.2571 168.002 6.36106 168.846 7.68815 169.201C9.01523 169.555 10.3965 169.376 11.5765 168.692L29.0685 158.572L25.1066 173.315C24.7403 174.678 24.899 176.053 25.5516 177.186C26.2054 178.32 27.3146 179.144 28.6765 179.509C31.5073 180.266 34.1176 178.757 34.8798 175.92L41.4663 151.398L54.1039 144.09L45.3714 176.588C45.0051 177.953 45.1625 179.328 45.8164 180.461C46.4689 181.594 47.5781 182.419 48.9413 182.783C51.7657 183.538 54.3824 182.03 55.1433 179.193L66.5016 136.916L81.5767 128.195L82.317 128.919C85.0498 131.584 88.4365 133.541 92.1108 134.58L93.1065 134.863V149.703L62.2456 180.699C60.1757 182.778 60.1757 185.797 62.2456 187.876C64.2356 189.876 67.3928 189.876 69.3827 187.876L93.4302 166.604V180.948L75.532 198.926C73.462 201.005 73.462 204.024 75.532 206.103C77.5206 208.101 80.6765 208.101 82.6678 206.103L93.4302 195.71ZM98.5438 223.737C94.2156 223.737 90.6948 220.203 90.6948 215.857V202.156L84.5855 208.057C83.0921 209.556 81.1395 210.392 79.1018 210.393C77.0641 210.393 75.1089 209.557 73.5961 208.039C70.4596 204.89 70.4596 200.139 73.5948 196.99L90.6948 179.815V172.678L71.2554 189.87C69.807 191.331 67.8519 192.167 65.8142 192.167C63.7765 192.167 61.8213 191.331 60.3085 189.811C57.1746 186.663 57.1746 181.912 60.3085 178.763L90.371 148.57V136.914C86.9753 135.802 83.8285 133.982 81.1704 131.594L68.8488 138.722L57.7833 179.905C56.6316 184.202 52.5266 186.579 48.2358 185.43C46.1684 184.878 44.4661 183.599 43.4472 181.831C42.4296 180.063 42.1756 177.948 42.7314 175.876L49.7434 149.775L43.8135 153.206L37.5185 176.632C36.3668 180.928 32.2656 183.303 27.971 182.157C25.9023 181.604 24.2025 180.325 23.1837 178.558C22.1648 176.788 21.9095 174.674 22.4666 172.603L24.7081 164.259L12.9449 171.065C11.1316 172.113 9.01523 172.392 6.98269 171.849C4.95015 171.305 3.2555 170.008 2.21086 168.195C0.0467688 164.438 1.34033 159.615 5.09589 157.444L16.9365 150.593L8.78309 148.241C6.74152 147.696 5.04043 146.417 4.02158 144.649C3.00273 142.881 2.74866 140.767 3.30451 138.695C4.46007 134.399 8.56126 132.024 12.8533 133.171L36.2469 139.421L42.4142 135.853L17.8367 127.58C15.8506 127.053 14.1495 125.775 13.1306 124.007C12.1118 122.238 11.8577 120.123 12.4135 118.052C13.5704 113.756 17.6716 111.382 21.9637 112.527L63.0891 123.518L73.1667 117.687C72.7849 115.89 72.5915 114.105 72.5915 112.368C72.5915 110.633 72.7849 108.848 73.1667 107.05L60.8386 99.9182L19.7132 110.908C15.4262 112.053 11.3186 109.68 10.1643 105.383C9.60719 103.312 9.86255 101.198 10.8814 99.4297C11.899 97.6605 13.6001 96.3825 15.6687 95.8294L41.7332 88.8651L35.8032 85.434L12.4097 91.6849C8.12664 92.8325 4.01513 90.4585 2.86087 86.1603C2.30501 84.0888 2.56037 81.9745 3.57922 80.2067C4.59678 78.4388 6.29787 77.1607 8.36523 76.6076L16.6979 74.381L4.93338 67.5757C1.17911 65.4033 -0.115731 60.5804 2.04836 56.825C3.093 55.0106 4.78765 53.7131 6.82148 53.1704C8.85273 52.6276 10.9704 52.9054 12.7824 53.9548L24.623 60.804L22.5788 52.5539C22.0294 50.5082 22.2835 48.3927 23.3036 46.6235C24.3225 44.857 26.0223 43.5776 28.0896 43.0258C32.383 41.873 36.4868 44.2534 37.6385 48.5504L43.9334 71.976L50.1007 75.544L44.9613 50.0779C44.4248 48.0903 44.6789 45.9761 45.6977 44.2069C46.7166 42.4391 48.4176 41.1623 50.485 40.6092C54.7848 39.4603 58.8834 41.8394 60.0338 46.1338L71.1006 87.3169L81.1704 93.1426C83.8285 90.7558 86.9753 88.9362 90.371 87.8235V73.5642L60.3085 43.3708C57.1746 40.2215 57.1746 35.4709 60.3085 32.3229C61.8213 30.8031 63.7765 29.967 65.8142 29.967C67.8519 29.967 69.807 30.8031 71.3186 32.3229L90.371 51.4568V44.5972L73.2711 27.4225C70.1359 24.2731 70.1359 19.5239 73.2711 16.3746C74.7839 14.8561 76.7391 14.0187 78.7768 14.0187C80.8145 14.0187 82.7684 14.8561 84.2812 16.3746L90.371 22.491V8.87918C90.371 4.53445 93.8919 1 98.2201 1C102.547 1 106.069 4.53445 106.069 8.87918V22.5802L112.177 16.6808C113.669 15.1805 115.626 14.3443 117.662 14.3443C119.7 14.3443 121.655 15.1818 123.168 16.7002C126.303 19.8496 126.303 24.5988 123.166 27.7481L106.069 44.9229V52.059L125.507 34.8661C126.957 33.4071 128.912 32.571 130.95 32.571C132.986 32.571 134.941 33.4071 136.453 34.9256C139.589 38.0762 139.589 42.8255 136.454 45.9748L106.393 76.1682V87.8235C109.789 88.9362 112.935 90.7558 115.593 93.1426L127.914 86.0156L138.978 44.8324C140.132 40.5342 144.239 38.1602 148.528 39.3078C150.597 39.8596 152.298 41.139 153.317 42.9069C154.334 44.6747 154.588 46.7902 154.031 48.8618L147.02 74.9612L152.948 71.5314L159.243 48.1058C160.397 43.8102 164.503 41.4336 168.793 42.5812C170.861 43.1343 172.561 44.4124 173.58 46.1816C174.599 47.9494 174.853 50.0637 174.296 52.1352L172.056 60.4783L183.819 53.6731C187.576 51.4994 192.39 52.7891 194.553 56.5433C196.717 60.2987 195.422 65.1216 191.668 67.294L179.826 74.1445L187.979 76.4952C190.022 77.0418 191.723 78.3199 192.742 80.0891C193.76 81.8569 194.014 83.9712 193.458 86.044C192.305 90.3383 188.197 92.7162 183.909 91.5673L160.517 85.3152L154.348 88.8845L178.927 97.1565C180.913 97.6838 182.613 98.9632 183.632 100.731C184.649 102.5 184.905 104.614 184.348 106.686C183.196 110.983 179.091 113.356 174.8 112.209L133.673 101.22L123.596 107.05C123.978 108.844 124.171 110.629 124.171 112.368C124.171 114.109 123.978 115.894 123.596 117.687L135.924 124.821L177.051 113.83C181.347 112.678 185.447 115.059 186.598 119.354C187.155 121.426 186.901 123.54 185.884 125.308C184.864 127.077 183.162 128.355 181.095 128.908L155.031 135.873L160.959 139.304L184.353 133.052C188.644 131.903 192.749 134.279 193.9 138.576C194.458 140.648 194.203 142.762 193.186 144.53C192.167 146.299 190.466 147.577 188.397 148.13L180.065 150.357L191.829 157.162C193.641 158.21 194.94 159.908 195.487 161.944C196.035 163.979 195.76 166.098 194.714 167.913C193.671 169.726 191.975 171.023 189.941 171.567C187.91 172.109 185.792 171.831 183.98 170.783L172.138 163.934L174.184 172.184C174.733 174.23 174.479 176.344 173.461 178.112C172.443 179.881 170.742 181.159 168.673 181.712C164.386 182.856 160.277 180.484 159.124 176.189L152.83 152.762L146.661 149.194L151.801 174.659C152.338 176.646 152.084 178.76 151.065 180.528C150.046 182.297 148.346 183.576 146.278 184.129C141.98 185.271 137.882 182.898 136.729 178.604L125.663 137.421L115.593 131.594C112.934 133.982 109.787 135.802 106.393 136.914V151.174L136.454 181.366C139.589 184.516 139.589 189.266 136.454 192.415C134.941 193.933 132.986 194.771 130.95 194.771C128.912 194.771 126.957 193.933 125.444 192.416L106.393 173.28V180.141L123.493 197.314C126.627 200.465 126.627 205.214 123.493 208.363C121.979 209.882 120.023 210.719 117.987 210.719C115.949 210.718 113.994 209.882 112.481 208.363L106.393 202.247V215.857C106.393 220.203 102.871 223.737 98.5438 223.737Z" fill="url(#paint0_linear_277_252)"/>
<path d="M93.4302 195.71V215.857C93.4302 218.691 95.7232 220.997 98.5438 220.997C101.363 220.997 103.657 218.691 103.657 215.857V195.62L114.418 206.427C115.414 207.428 116.681 207.978 117.986 207.978C119.291 207.978 120.56 207.428 121.557 206.427C123.626 204.349 123.626 201.329 121.556 199.25L103.657 181.274V166.653L127.38 190.48C129.367 192.48 132.523 192.48 134.518 190.48C136.588 188.401 136.588 185.381 134.517 183.302L103.657 152.307V134.863L104.653 134.58C108.326 133.543 111.713 131.584 114.447 128.919L115.188 128.195L128.01 135.614L128.157 136.161L139.369 177.892C140.131 180.729 142.744 182.241 145.572 181.481C146.934 181.116 148.044 180.292 148.697 179.158C149.35 178.025 149.507 176.65 149.141 175.287L142.78 143.783L155.178 150.956L161.763 175.475C162.526 178.313 165.142 179.82 167.967 179.064C169.331 178.7 170.44 177.875 171.092 176.742C171.746 175.609 171.904 174.234 171.537 172.871L167.935 158.337L185.347 168.41C186.53 169.094 187.91 169.275 189.237 168.92C190.563 168.565 191.668 167.722 192.346 166.543C193.026 165.364 193.203 163.983 192.847 162.656C192.489 161.326 191.642 160.218 190.461 159.536L172.971 149.416L187.692 145.482C189.055 145.118 190.164 144.293 190.817 143.16C191.471 142.027 191.628 140.653 191.26 139.288C190.501 136.452 187.89 134.944 185.058 135.7L160.572 142.242L147.937 134.933L180.39 126.261C181.752 125.896 182.862 125.072 183.515 123.938C184.167 122.805 184.326 121.43 183.958 120.067C183.197 117.23 180.592 115.721 177.756 116.477L135.536 127.76L120.454 119.034L120.707 118.03C121.191 116.116 121.436 114.211 121.436 112.368C121.436 110.527 121.191 108.622 120.707 106.707L120.454 105.703L133.285 98.2796L175.506 109.561C178.334 110.319 180.946 108.808 181.708 105.974C182.074 104.609 181.917 103.234 181.263 102.101C180.611 100.968 179.501 100.143 178.139 99.7799L147.731 89.5488L160.129 82.3765L184.615 88.9194C187.443 89.6767 190.056 88.166 190.818 85.3307C191.184 83.9673 191.027 82.5923 190.373 81.4589C189.721 80.3256 188.611 79.5011 187.248 79.1366L172.886 74.9948L190.3 64.9213C192.749 63.5036 193.595 60.3607 192.185 57.9131C190.774 55.4668 187.633 54.6294 185.186 56.0457L167.695 66.1645L171.656 51.4232C172.022 50.0598 171.865 48.6848 171.212 47.5514C170.56 46.4181 169.449 45.5936 168.087 45.2291C165.255 44.4706 162.646 45.9813 161.883 48.8179L155.296 73.3381L142.66 80.6486L151.391 48.1485C151.759 46.7851 151.6 45.4101 150.947 44.2767C150.295 43.1434 149.184 42.3189 147.823 41.9544C144.99 41.1946 142.38 42.7066 141.618 45.5445L130.262 87.8209L115.188 96.5414L114.447 95.819C111.714 93.1543 108.327 91.1964 104.653 90.1561L103.657 89.8744V75.0349L134.517 44.0389C136.588 41.9596 136.588 38.9408 134.517 36.8615C132.524 34.861 129.368 34.861 127.379 36.8615L103.334 58.1341V43.7895L121.231 25.8123C123.302 23.7329 123.302 20.7141 121.232 18.6361C120.235 17.6358 118.968 17.084 117.663 17.084C116.358 17.084 115.089 17.6358 114.093 18.6361L103.334 29.0288V8.87918C103.334 6.04516 101.039 3.73969 98.2201 3.73969C95.3995 3.73969 93.1065 6.04516 93.1065 8.87918V29.118L82.3441 18.3104C80.3541 16.3099 77.1982 16.3099 75.2082 18.3104C73.1383 20.3885 73.1383 23.4073 75.2082 25.4866L93.1065 43.4639V58.0837L69.3827 34.2575C67.3928 32.2583 64.2356 32.2583 62.2456 34.2575C60.1757 36.3368 60.1757 39.3556 62.2456 41.4362L93.1065 72.4309V89.8744L92.1108 90.1561C88.4365 91.1964 85.0498 93.1543 82.317 95.819L81.5754 96.5414L68.7521 89.1236L68.6064 88.5769L57.3951 46.8458C56.6329 44.0092 54.0265 42.4972 51.1905 43.2571C49.8286 43.6215 48.7194 44.4447 48.0669 45.5781C47.413 46.7114 47.2556 48.0864 47.6206 49.4511L53.9826 80.9549L41.5862 73.7813L34.9985 49.2624C34.2376 46.4258 31.6273 44.9177 28.7951 45.6724C27.4332 46.0368 26.3241 46.8613 25.6715 47.9947C25.0189 49.128 24.8603 50.503 25.2266 51.8677L28.8274 66.401L11.414 56.3275C10.2353 55.6451 8.85273 55.4629 7.52565 55.8183C6.19985 56.1724 5.09589 57.0163 4.41623 58.1948C3.0066 60.6425 3.85134 63.7854 6.30174 65.203L23.7924 75.3218L9.07069 79.2555C7.70878 79.6187 6.59966 80.4432 5.94708 81.5765C5.2945 82.7099 5.13586 84.0849 5.50213 85.4496C6.26434 88.2862 8.87466 89.7956 11.7055 89.0383L36.1914 82.4953L48.8265 89.8046L16.3729 98.4773C15.011 98.8417 13.9018 99.6662 13.2493 100.8C12.5967 101.933 12.4381 103.308 12.8043 104.671C13.5665 107.509 16.1807 109.017 19.0077 108.26L61.2255 96.9782L76.3071 105.703L76.0543 106.707C75.5706 108.627 75.3269 110.532 75.3269 112.368C75.3269 114.206 75.5706 116.111 76.0543 118.031L76.3071 119.034L63.476 126.458L21.2582 115.175C18.4273 114.417 15.817 115.927 15.0548 118.764C14.6886 120.129 14.8459 121.504 15.4998 122.637C16.1523 123.77 17.2615 124.593 18.6247 124.958L49.0315 135.189L36.6351 142.361L12.1492 135.818C9.31444 135.059 6.7067 136.571 5.94579 139.407C5.57952 140.771 5.73686 142.146 6.39073 143.279C7.04331 144.412 8.15243 145.237 9.51434 145.601L23.8763 149.743L6.46295 159.817C4.01384 161.233 3.1691 164.376 4.57744 166.823C5.2571 168.002 6.36106 168.846 7.68815 169.201C9.01523 169.555 10.3965 169.376 11.5765 168.692L29.0685 158.572L25.1066 173.315C24.7403 174.678 24.899 176.053 25.5516 177.186C26.2054 178.32 27.3146 179.144 28.6765 179.509C31.5073 180.266 34.1176 178.757 34.8798 175.92L41.4663 151.398L54.1039 144.09L45.3714 176.588C45.0051 177.953 45.1625 179.328 45.8164 180.461C46.4689 181.594 47.5781 182.419 48.9413 182.783C51.7657 183.538 54.3824 182.03 55.1433 179.193L66.5016 136.916L81.5767 128.195L82.317 128.919C85.0498 131.584 88.4365 133.541 92.1108 134.58L93.1065 134.863V149.703L62.2456 180.699C60.1757 182.778 60.1757 185.797 62.2456 187.876C64.2356 189.876 67.3928 189.876 69.3827 187.876L93.4302 166.604V180.948L75.532 198.926C73.462 201.005 73.462 204.024 75.532 206.103C77.5206 208.101 80.6765 208.101 82.6678 206.103L93.4302 195.71ZM98.5438 223.737C94.2156 223.737 90.6948 220.203 90.6948 215.857V202.156L84.5855 208.057C83.0921 209.556 81.1395 210.392 79.1018 210.393C77.0641 210.393 75.1089 209.557 73.5961 208.039C70.4596 204.89 70.4596 200.139 73.5948 196.99L90.6948 179.815V172.678L71.2554 189.87C69.807 191.331 67.8519 192.167 65.8142 192.167C63.7765 192.167 61.8213 191.331 60.3085 189.811C57.1746 186.663 57.1746 181.912 60.3085 178.763L90.371 148.57V136.914C86.9753 135.802 83.8285 133.982 81.1704 131.594L68.8488 138.722L57.7833 179.905C56.6316 184.202 52.5266 186.579 48.2358 185.43C46.1684 184.878 44.4661 183.599 43.4472 181.831C42.4296 180.063 42.1756 177.948 42.7314 175.876L49.7434 149.775L43.8135 153.206L37.5185 176.632C36.3668 180.928 32.2656 183.303 27.971 182.157C25.9023 181.604 24.2025 180.325 23.1837 178.558C22.1648 176.788 21.9095 174.674 22.4666 172.603L24.7081 164.259L12.9449 171.065C11.1316 172.113 9.01523 172.392 6.98269 171.849C4.95015 171.305 3.2555 170.008 2.21086 168.195C0.0467688 164.438 1.34033 159.615 5.09589 157.444L16.9365 150.593L8.78309 148.241C6.74152 147.696 5.04043 146.417 4.02158 144.649C3.00273 142.881 2.74866 140.767 3.30451 138.695C4.46007 134.399 8.56126 132.024 12.8533 133.171L36.2469 139.421L42.4142 135.853L17.8367 127.58C15.8506 127.053 14.1495 125.775 13.1306 124.007C12.1118 122.238 11.8577 120.123 12.4135 118.052C13.5704 113.756 17.6716 111.382 21.9637 112.527L63.0891 123.518L73.1667 117.687C72.7849 115.89 72.5915 114.105 72.5915 112.368C72.5915 110.633 72.7849 108.848 73.1667 107.05L60.8386 99.9182L19.7132 110.908C15.4262 112.053 11.3186 109.68 10.1643 105.383C9.60719 103.312 9.86255 101.198 10.8814 99.4297C11.899 97.6605 13.6001 96.3825 15.6687 95.8294L41.7332 88.8651L35.8032 85.434L12.4097 91.6849C8.12664 92.8325 4.01513 90.4585 2.86087 86.1603C2.30501 84.0888 2.56037 81.9745 3.57922 80.2067C4.59678 78.4388 6.29787 77.1607 8.36523 76.6076L16.6979 74.381L4.93338 67.5757C1.17911 65.4033 -0.115731 60.5804 2.04836 56.825C3.093 55.0106 4.78765 53.7131 6.82148 53.1704C8.85273 52.6276 10.9704 52.9054 12.7824 53.9548L24.623 60.804L22.5788 52.5539C22.0294 50.5082 22.2835 48.3927 23.3036 46.6235C24.3225 44.857 26.0223 43.5776 28.0896 43.0258C32.383 41.873 36.4868 44.2534 37.6385 48.5504L43.9334 71.976L50.1007 75.544L44.9613 50.0779C44.4248 48.0903 44.6789 45.9761 45.6977 44.2069C46.7166 42.4391 48.4176 41.1623 50.485 40.6092C54.7848 39.4603 58.8834 41.8394 60.0338 46.1338L71.1006 87.3169L81.1704 93.1426C83.8285 90.7558 86.9753 88.9362 90.371 87.8235V73.5642L60.3085 43.3708C57.1746 40.2215 57.1746 35.4709 60.3085 32.3229C61.8213 30.8031 63.7765 29.967 65.8142 29.967C67.8519 29.967 69.807 30.8031 71.3186 32.3229L90.371 51.4568V44.5972L73.2711 27.4225C70.1359 24.2731 70.1359 19.5239 73.2711 16.3746C74.7839 14.8561 76.7391 14.0187 78.7768 14.0187C80.8145 14.0187 82.7684 14.8561 84.2812 16.3746L90.371 22.491V8.87918C90.371 4.53445 93.8919 1 98.2201 1C102.547 1 106.069 4.53445 106.069 8.87918V22.5802L112.177 16.6808C113.669 15.1805 115.626 14.3443 117.662 14.3443C119.7 14.3443 121.655 15.1818 123.168 16.7002C126.303 19.8496 126.303 24.5988 123.166 27.7481L106.069 44.9229V52.059L125.507 34.8661C126.957 33.4071 128.912 32.571 130.95 32.571C132.986 32.571 134.941 33.4071 136.453 34.9256C139.589 38.0762 139.589 42.8255 136.454 45.9748L106.393 76.1682V87.8235C109.789 88.9362 112.935 90.7558 115.593 93.1426L127.914 86.0156L138.978 44.8324C140.132 40.5342 144.239 38.1602 148.528 39.3078C150.597 39.8596 152.298 41.139 153.317 42.9069C154.334 44.6747 154.588 46.7902 154.031 48.8618L147.02 74.9612L152.948 71.5314L159.243 48.1058C160.397 43.8102 164.503 41.4336 168.793 42.5812C170.861 43.1343 172.561 44.4124 173.58 46.1816C174.599 47.9494 174.853 50.0637 174.296 52.1352L172.056 60.4783L183.819 53.6731C187.576 51.4994 192.39 52.7891 194.553 56.5433C196.717 60.2987 195.422 65.1216 191.668 67.294L179.826 74.1445L187.979 76.4952C190.022 77.0418 191.723 78.3199 192.742 80.0891C193.76 81.8569 194.014 83.9712 193.458 86.044C192.305 90.3383 188.197 92.7162 183.909 91.5673L160.517 85.3152L154.348 88.8845L178.927 97.1565C180.913 97.6838 182.613 98.9632 183.632 100.731C184.649 102.5 184.905 104.614 184.348 106.686C183.196 110.983 179.091 113.356 174.8 112.209L133.673 101.22L123.596 107.05C123.978 108.844 124.171 110.629 124.171 112.368C124.171 114.109 123.978 115.894 123.596 117.687L135.924 124.821L177.051 113.83C181.347 112.678 185.447 115.059 186.598 119.354C187.155 121.426 186.901 123.54 185.884 125.308C184.864 127.077 183.162 128.355 181.095 128.908L155.031 135.873L160.959 139.304L184.353 133.052C188.644 131.903 192.749 134.279 193.9 138.576C194.458 140.648 194.203 142.762 193.186 144.53C192.167 146.299 190.466 147.577 188.397 148.13L180.065 150.357L191.829 157.162C193.641 158.21 194.94 159.908 195.487 161.944C196.035 163.979 195.76 166.098 194.714 167.913C193.671 169.726 191.975 171.023 189.941 171.567C187.91 172.109 185.792 171.831 183.98 170.783L172.138 163.934L174.184 172.184C174.733 174.23 174.479 176.344 173.461 178.112C172.443 179.881 170.742 181.159 168.673 181.712C164.386 182.856 160.277 180.484 159.124 176.189L152.83 152.762L146.661 149.194L151.801 174.659C152.338 176.646 152.084 178.76 151.065 180.528C150.046 182.297 148.346 183.576 146.278 184.129C141.98 185.271 137.882 182.898 136.729 178.604L125.663 137.421L115.593 131.594C112.934 133.982 109.787 135.802 106.393 136.914V151.174L136.454 181.366C139.589 184.516 139.589 189.266 136.454 192.415C134.941 193.933 132.986 194.771 130.95 194.771C128.912 194.771 126.957 193.933 125.444 192.416L106.393 173.28V180.141L123.493 197.314C126.627 200.465 126.627 205.214 123.493 208.363C121.979 209.882 120.023 210.719 117.987 210.719C115.949 210.718 113.994 209.882 112.481 208.363L106.393 202.247V215.857C106.393 220.203 102.871 223.737 98.5438 223.737Z" stroke="url(#paint1_linear_277_252)" stroke-width="1.2" mask="url(#path-1-outside-1_277_252)"/>
<path d="M93.4302 195.71V215.857C93.4302 218.691 95.7232 220.997 98.5438 220.997C101.363 220.997 103.657 218.691 103.657 215.857V195.62L114.418 206.427C115.414 207.428 116.681 207.978 117.986 207.978C119.291 207.978 120.56 207.428 121.557 206.427C123.626 204.349 123.626 201.329 121.556 199.25L103.657 181.274V166.653L127.38 190.48C129.367 192.48 132.523 192.48 134.518 190.48C136.588 188.401 136.588 185.381 134.517 183.302L103.657 152.307V134.863L104.653 134.58C108.326 133.543 111.713 131.584 114.447 128.919L115.188 128.195L128.01 135.614L128.157 136.161L139.369 177.892C140.131 180.729 142.744 182.241 145.572 181.481C146.934 181.116 148.044 180.292 148.697 179.158C149.35 178.025 149.507 176.65 149.141 175.287L142.78 143.783L155.178 150.956L161.763 175.475C162.526 178.313 165.142 179.82 167.967 179.064C169.331 178.7 170.44 177.875 171.092 176.742C171.746 175.609 171.904 174.234 171.537 172.871L167.935 158.337L185.347 168.41C186.53 169.094 187.91 169.275 189.237 168.92C190.563 168.565 191.668 167.722 192.346 166.543C193.026 165.364 193.203 163.983 192.847 162.656C192.489 161.326 191.642 160.218 190.461 159.536L172.971 149.416L187.692 145.482C189.055 145.118 190.164 144.293 190.817 143.16C191.471 142.027 191.628 140.653 191.26 139.288C190.501 136.452 187.89 134.944 185.058 135.7L160.572 142.242L147.937 134.933L180.39 126.261C181.752 125.896 182.862 125.072 183.515 123.938C184.167 122.805 184.326 121.43 183.958 120.067C183.197 117.23 180.592 115.721 177.756 116.477L135.536 127.76L120.454 119.034L120.707 118.03C121.191 116.116 121.436 114.211 121.436 112.368C121.436 110.527 121.191 108.622 120.707 106.707L120.454 105.703L133.285 98.2796L175.506 109.561C178.334 110.319 180.946 108.808 181.708 105.974C182.074 104.609 181.917 103.234 181.263 102.101C180.611 100.968 179.501 100.143 178.139 99.7799L147.731 89.5488L160.129 82.3765L184.615 88.9194C187.443 89.6767 190.056 88.166 190.818 85.3307C191.184 83.9673 191.027 82.5923 190.373 81.4589C189.721 80.3256 188.611 79.5011 187.248 79.1366L172.886 74.9948L190.3 64.9213C192.749 63.5036 193.595 60.3607 192.185 57.9131C190.774 55.4668 187.633 54.6294 185.186 56.0457L167.695 66.1645L171.656 51.4232C172.022 50.0598 171.865 48.6848 171.212 47.5514C170.56 46.4181 169.449 45.5936 168.087 45.2291C165.255 44.4706 162.646 45.9813 161.883 48.8179L155.296 73.3381L142.66 80.6486L151.391 48.1485C151.759 46.7851 151.6 45.4101 150.947 44.2767C150.295 43.1434 149.184 42.3189 147.823 41.9544C144.99 41.1946 142.38 42.7066 141.618 45.5445L130.262 87.8209L115.188 96.5414L114.447 95.819C111.714 93.1543 108.327 91.1964 104.653 90.1561L103.657 89.8744V75.0349L134.517 44.0389C136.588 41.9596 136.588 38.9408 134.517 36.8615C132.524 34.861 129.368 34.861 127.379 36.8615L103.334 58.1341V43.7895L121.231 25.8123C123.302 23.7329 123.302 20.7141 121.232 18.6361C120.235 17.6358 118.968 17.084 117.663 17.084C116.358 17.084 115.089 17.6358 114.093 18.6361L103.334 29.0288V8.87918C103.334 6.04516 101.039 3.73969 98.2201 3.73969C95.3995 3.73969 93.1065 6.04516 93.1065 8.87918V29.118L82.3441 18.3104C80.3541 16.3099 77.1982 16.3099 75.2082 18.3104C73.1383 20.3885 73.1383 23.4073 75.2082 25.4866L93.1065 43.4639V58.0837L69.3827 34.2575C67.3928 32.2583 64.2356 32.2583 62.2456 34.2575C60.1757 36.3368 60.1757 39.3556 62.2456 41.4362L93.1065 72.4309V89.8744L92.1108 90.1561C88.4365 91.1964 85.0498 93.1543 82.317 95.819L81.5754 96.5414L68.7521 89.1236L68.6064 88.5769L57.3951 46.8458C56.6329 44.0092 54.0265 42.4972 51.1905 43.2571C49.8286 43.6215 48.7194 44.4447 48.0669 45.5781C47.413 46.7114 47.2556 48.0864 47.6206 49.4511L53.9826 80.9549L41.5862 73.7813L34.9985 49.2624C34.2376 46.4258 31.6273 44.9177 28.7951 45.6724C27.4332 46.0368 26.3241 46.8613 25.6715 47.9947C25.0189 49.128 24.8603 50.503 25.2266 51.8677L28.8274 66.401L11.414 56.3275C10.2353 55.6451 8.85273 55.4629 7.52565 55.8183C6.19985 56.1724 5.09589 57.0163 4.41623 58.1948C3.0066 60.6425 3.85134 63.7854 6.30174 65.203L23.7924 75.3218L9.07069 79.2555C7.70878 79.6187 6.59966 80.4432 5.94708 81.5765C5.2945 82.7099 5.13586 84.0849 5.50213 85.4496C6.26434 88.2862 8.87466 89.7956 11.7055 89.0383L36.1914 82.4953L48.8265 89.8046L16.3729 98.4773C15.011 98.8417 13.9018 99.6662 13.2493 100.8C12.5967 101.933 12.4381 103.308 12.8043 104.671C13.5665 107.509 16.1807 109.017 19.0077 108.26L61.2255 96.9782L76.3071 105.703L76.0543 106.707C75.5706 108.627 75.3269 110.532 75.3269 112.368C75.3269 114.206 75.5706 116.111 76.0543 118.031L76.3071 119.034L63.476 126.458L21.2582 115.175C18.4273 114.417 15.817 115.927 15.0548 118.764C14.6886 120.129 14.8459 121.504 15.4998 122.637C16.1523 123.77 17.2615 124.593 18.6247 124.958L49.0315 135.189L36.6351 142.361L12.1492 135.818C9.31444 135.059 6.7067 136.571 5.94579 139.407C5.57952 140.771 5.73686 142.146 6.39073 143.279C7.04331 144.412 8.15243 145.237 9.51434 145.601L23.8763 149.743L6.46295 159.817C4.01384 161.233 3.1691 164.376 4.57744 166.823C5.2571 168.002 6.36106 168.846 7.68815 169.201C9.01523 169.555 10.3965 169.376 11.5765 168.692L29.0685 158.572L25.1066 173.315C24.7403 174.678 24.899 176.053 25.5516 177.186C26.2054 178.32 27.3146 179.144 28.6765 179.509C31.5073 180.266 34.1176 178.757 34.8798 175.92L41.4663 151.398L54.1039 144.09L45.3714 176.588C45.0051 177.953 45.1625 179.328 45.8164 180.461C46.4689 181.594 47.5781 182.419 48.9413 182.783C51.7657 183.538 54.3824 182.03 55.1433 179.193L66.5016 136.916L81.5767 128.195L82.317 128.919C85.0498 131.584 88.4365 133.541 92.1108 134.58L93.1065 134.863V149.703L62.2456 180.699C60.1757 182.778 60.1757 185.797 62.2456 187.876C64.2356 189.876 67.3928 189.876 69.3827 187.876L93.4302 166.604V180.948L75.532 198.926C73.462 201.005 73.462 204.024 75.532 206.103C77.5206 208.101 80.6765 208.101 82.6678 206.103L93.4302 195.71ZM98.5438 223.737C94.2156 223.737 90.6948 220.203 90.6948 215.857V202.156L84.5855 208.057C83.0921 209.556 81.1395 210.392 79.1018 210.393C77.0641 210.393 75.1089 209.557 73.5961 208.039C70.4596 204.89 70.4596 200.139 73.5948 196.99L90.6948 179.815V172.678L71.2554 189.87C69.807 191.331 67.8519 192.167 65.8142 192.167C63.7765 192.167 61.8213 191.331 60.3085 189.811C57.1746 186.663 57.1746 181.912 60.3085 178.763L90.371 148.57V136.914C86.9753 135.802 83.8285 133.982 81.1704 131.594L68.8488 138.722L57.7833 179.905C56.6316 184.202 52.5266 186.579 48.2358 185.43C46.1684 184.878 44.4661 183.599 43.4472 181.831C42.4296 180.063 42.1756 177.948 42.7314 175.876L49.7434 149.775L43.8135 153.206L37.5185 176.632C36.3668 180.928 32.2656 183.303 27.971 182.157C25.9023 181.604 24.2025 180.325 23.1837 178.558C22.1648 176.788 21.9095 174.674 22.4666 172.603L24.7081 164.259L12.9449 171.065C11.1316 172.113 9.01523 172.392 6.98269 171.849C4.95015 171.305 3.2555 170.008 2.21086 168.195C0.0467688 164.438 1.34033 159.615 5.09589 157.444L16.9365 150.593L8.78309 148.241C6.74152 147.696 5.04043 146.417 4.02158 144.649C3.00273 142.881 2.74866 140.767 3.30451 138.695C4.46007 134.399 8.56126 132.024 12.8533 133.171L36.2469 139.421L42.4142 135.853L17.8367 127.58C15.8506 127.053 14.1495 125.775 13.1306 124.007C12.1118 122.238 11.8577 120.123 12.4135 118.052C13.5704 113.756 17.6716 111.382 21.9637 112.527L63.0891 123.518L73.1667 117.687C72.7849 115.89 72.5915 114.105 72.5915 112.368C72.5915 110.633 72.7849 108.848 73.1667 107.05L60.8386 99.9182L19.7132 110.908C15.4262 112.053 11.3186 109.68 10.1643 105.383C9.60719 103.312 9.86255 101.198 10.8814 99.4297C11.899 97.6605 13.6001 96.3825 15.6687 95.8294L41.7332 88.8651L35.8032 85.434L12.4097 91.6849C8.12664 92.8325 4.01513 90.4585 2.86087 86.1603C2.30501 84.0888 2.56037 81.9745 3.57922 80.2067C4.59678 78.4388 6.29787 77.1607 8.36523 76.6076L16.6979 74.381L4.93338 67.5757C1.17911 65.4033 -0.115731 60.5804 2.04836 56.825C3.093 55.0106 4.78765 53.7131 6.82148 53.1704C8.85273 52.6276 10.9704 52.9054 12.7824 53.9548L24.623 60.804L22.5788 52.5539C22.0294 50.5082 22.2835 48.3927 23.3036 46.6235C24.3225 44.857 26.0223 43.5776 28.0896 43.0258C32.383 41.873 36.4868 44.2534 37.6385 48.5504L43.9334 71.976L50.1007 75.544L44.9613 50.0779C44.4248 48.0903 44.6789 45.9761 45.6977 44.2069C46.7166 42.4391 48.4176 41.1623 50.485 40.6092C54.7848 39.4603 58.8834 41.8394 60.0338 46.1338L71.1006 87.3169L81.1704 93.1426C83.8285 90.7558 86.9753 88.9362 90.371 87.8235V73.5642L60.3085 43.3708C57.1746 40.2215 57.1746 35.4709 60.3085 32.3229C61.8213 30.8031 63.7765 29.967 65.8142 29.967C67.8519 29.967 69.807 30.8031 71.3186 32.3229L90.371 51.4568V44.5972L73.2711 27.4225C70.1359 24.2731 70.1359 19.5239 73.2711 16.3746C74.7839 14.8561 76.7391 14.0187 78.7768 14.0187C80.8145 14.0187 82.7684 14.8561 84.2812 16.3746L90.371 22.491V8.87918C90.371 4.53445 93.8919 1 98.2201 1C102.547 1 106.069 4.53445 106.069 8.87918V22.5802L112.177 16.6808C113.669 15.1805 115.626 14.3443 117.662 14.3443C119.7 14.3443 121.655 15.1818 123.168 16.7002C126.303 19.8496 126.303 24.5988 123.166 27.7481L106.069 44.9229V52.059L125.507 34.8661C126.957 33.4071 128.912 32.571 130.95 32.571C132.986 32.571 134.941 33.4071 136.453 34.9256C139.589 38.0762 139.589 42.8255 136.454 45.9748L106.393 76.1682V87.8235C109.789 88.9362 112.935 90.7558 115.593 93.1426L127.914 86.0156L138.978 44.8324C140.132 40.5342 144.239 38.1602 148.528 39.3078C150.597 39.8596 152.298 41.139 153.317 42.9069C154.334 44.6747 154.588 46.7902 154.031 48.8618L147.02 74.9612L152.948 71.5314L159.243 48.1058C160.397 43.8102 164.503 41.4336 168.793 42.5812C170.861 43.1343 172.561 44.4124 173.58 46.1816C174.599 47.9494 174.853 50.0637 174.296 52.1352L172.056 60.4783L183.819 53.6731C187.576 51.4994 192.39 52.7891 194.553 56.5433C196.717 60.2987 195.422 65.1216 191.668 67.294L179.826 74.1445L187.979 76.4952C190.022 77.0418 191.723 78.3199 192.742 80.0891C193.76 81.8569 194.014 83.9712 193.458 86.044C192.305 90.3383 188.197 92.7162 183.909 91.5673L160.517 85.3152L154.348 88.8845L178.927 97.1565C180.913 97.6838 182.613 98.9632 183.632 100.731C184.649 102.5 184.905 104.614 184.348 106.686C183.196 110.983 179.091 113.356 174.8 112.209L133.673 101.22L123.596 107.05C123.978 108.844 124.171 110.629 124.171 112.368C124.171 114.109 123.978 115.894 123.596 117.687L135.924 124.821L177.051 113.83C181.347 112.678 185.447 115.059 186.598 119.354C187.155 121.426 186.901 123.54 185.884 125.308C184.864 127.077 183.162 128.355 181.095 128.908L155.031 135.873L160.959 139.304L184.353 133.052C188.644 131.903 192.749 134.279 193.9 138.576C194.458 140.648 194.203 142.762 193.186 144.53C192.167 146.299 190.466 147.577 188.397 148.13L180.065 150.357L191.829 157.162C193.641 158.21 194.94 159.908 195.487 161.944C196.035 163.979 195.76 166.098 194.714 167.913C193.671 169.726 191.975 171.023 189.941 171.567C187.91 172.109 185.792 171.831 183.98 170.783L172.138 163.934L174.184 172.184C174.733 174.23 174.479 176.344 173.461 178.112C172.443 179.881 170.742 181.159 168.673 181.712C164.386 182.856 160.277 180.484 159.124 176.189L152.83 152.762L146.661 149.194L151.801 174.659C152.338 176.646 152.084 178.76 151.065 180.528C150.046 182.297 148.346 183.576 146.278 184.129C141.98 185.271 137.882 182.898 136.729 178.604L125.663 137.421L115.593 131.594C112.934 133.982 109.787 135.802 106.393 136.914V151.174L136.454 181.366C139.589 184.516 139.589 189.266 136.454 192.415C134.941 193.933 132.986 194.771 130.95 194.771C128.912 194.771 126.957 193.933 125.444 192.416L106.393 173.28V180.141L123.493 197.314C126.627 200.465 126.627 205.214 123.493 208.363C121.979 209.882 120.023 210.719 117.987 210.719C115.949 210.718 113.994 209.882 112.481 208.363L106.393 202.247V215.857C106.393 220.203 102.871 223.737 98.5438 223.737Z" stroke="url(#paint2_radial_277_252)" stroke-opacity="0.3" stroke-width="1.2" mask="url(#path-1-outside-1_277_252)"/>
<defs>
<linearGradient id="paint0_linear_277_252" x1="41.8554" y1="0.999955" x2="216.073" y2="18.2171" gradientUnits="userSpaceOnUse">
<stop stop-color="#1C9CC4"/>
<stop offset="1" stop-color="#363192"/>
</linearGradient>
<linearGradient id="paint1_linear_277_252" x1="41.8554" y1="0.999955" x2="216.073" y2="18.2171" gradientUnits="userSpaceOnUse">
<stop stop-color="#0092D5"/>
<stop offset="1" stop-color="#5549DF"/>
</linearGradient>
<radialGradient id="paint2_radial_277_252" cx="0" cy="0" r="1" gradientUnits="userSpaceOnUse" gradientTransform="translate(98.3813 0.999977) rotate(90) scale(222.737 194.763)">
<stop stop-color="white"/>
<stop offset="0.730539" stop-color="white" stop-opacity="0"/>
</radialGradient>
</defs>
</svg>
