<svg width="30" height="30" viewBox="0 0 30 30" fill="none" xmlns="http://www.w3.org/2000/svg">
<rect width="30" height="30" rx="15" fill="white"/>
<path fill-rule="evenodd" clip-rule="evenodd" d="M8.57184 14.42C12.2459 12.7534 14.6918 11.646 15.92 11.1087C19.4156 9.58466 20.1504 9.32151 20.6228 9.31055C20.7278 9.31055 20.9587 9.33248 21.1162 9.46405C21.2421 9.5737 21.2736 9.71624 21.2946 9.82588C21.3156 9.93553 21.3366 10.1658 21.3156 10.3412C21.1267 12.4245 20.3079 17.4791 19.888 19.8036C19.7095 20.7904 19.3631 21.1194 19.0272 21.1523C18.2924 21.2181 17.736 20.6479 17.0327 20.1655C15.92 19.4089 15.3006 18.9374 14.2194 18.1918C12.9702 17.3366 13.7785 16.8651 14.4923 16.0976C14.6813 15.9003 17.904 12.8302 17.967 12.5561C17.9775 12.5232 17.9775 12.3916 17.904 12.3258C17.8305 12.26 17.7255 12.2819 17.6416 12.3039C17.5261 12.3258 15.7625 13.5538 12.3299 15.977C11.826 16.3388 11.3746 16.5143 10.9652 16.5033C10.5139 16.4923 9.65307 16.2402 9.00224 16.0209C8.21493 15.7577 7.58509 15.6152 7.63758 15.1547C7.66907 14.9134 7.98399 14.6722 8.57184 14.42Z" fill="#13328A"/>
</svg>
