<svg width="52" height="52" viewBox="0 0 52 52" fill="none" xmlns="http://www.w3.org/2000/svg">
<rect width="52" height="52" rx="26" fill="#25A4E2"/>
<path fill-rule="evenodd" clip-rule="evenodd" d="M14.8581 24.9946C21.2265 22.1058 25.466 20.1863 27.5949 19.255C33.6539 16.6133 34.9276 16.1572 35.7464 16.1382C35.9284 16.1382 36.3287 16.1762 36.6016 16.4043C36.8199 16.5943 36.8745 16.8414 36.9109 17.0314C36.9473 17.2215 36.9837 17.6206 36.9473 17.9247C36.6198 21.5357 35.2006 30.2971 34.4727 34.3262C34.1634 36.0367 33.563 36.6068 32.9807 36.6638C31.707 36.7779 30.7427 35.7896 29.5236 34.9534C27.5949 33.642 26.5213 32.8248 24.6472 31.5324C22.482 30.05 23.883 29.2328 25.1203 27.9024C25.4478 27.5603 31.0338 22.2389 31.143 21.7637C31.1612 21.7067 31.1612 21.4787 31.0338 21.3646C30.9064 21.2506 30.7245 21.2886 30.5789 21.3266C30.3788 21.3646 27.3219 23.4932 21.372 27.6934C20.4987 28.3205 19.7163 28.6246 19.0066 28.6056C18.2242 28.5866 16.7322 28.1495 15.6041 27.7694C14.2394 27.3133 13.1477 27.0662 13.2387 26.268C13.2933 25.8499 13.8391 25.4317 14.8581 24.9946Z" fill="white"/>
</svg>
