<svg width="30" height="30" viewBox="0 0 30 30" fill="none" xmlns="http://www.w3.org/2000/svg">
<rect width="30" height="30" rx="8" fill="white"/>
<path fill-rule="evenodd" clip-rule="evenodd" d="M20.6091 9.38353C19.1207 7.9005 17.1413 7.08343 15.0325 7.08252C10.6872 7.08252 7.15057 10.602 7.14883 14.9279C7.1483 16.3106 7.51124 17.6603 8.20117 18.8503L7.08276 22.9159L11.262 21.8248C12.4134 22.4499 13.7099 22.7794 15.0293 22.7798H15.0325C19.3774 22.7798 22.9143 19.2599 22.9161 14.934C22.9169 12.8377 22.0975 10.8665 20.6091 9.38353ZM15.0325 21.4548H15.0299C13.8541 21.4543 12.7009 21.1399 11.6949 20.5458L11.4556 20.4045L8.9756 21.0519L9.63755 18.6455L9.48175 18.3987C8.82587 17.3605 8.47939 16.1605 8.47992 14.9282C8.48136 11.3328 11.4208 8.40763 15.0352 8.40763C16.7853 8.40823 18.4305 9.08739 19.6677 10.3201C20.9048 11.5527 21.5856 13.1911 21.5849 14.9336C21.5835 18.5294 18.6441 21.4548 15.0325 21.4548ZM18.6267 16.5707C18.4297 16.4726 17.4613 15.9983 17.2807 15.9329C17.1002 15.8676 16.9688 15.8348 16.8375 16.0311C16.7062 16.2274 16.3287 16.6689 16.2138 16.7998C16.0988 16.9305 15.9839 16.947 15.787 16.8488C15.59 16.7507 14.9553 16.5437 14.2029 15.8757C13.6173 15.3559 13.222 14.714 13.1071 14.5177C12.9922 14.3214 13.0948 14.2153 13.1935 14.1176C13.2821 14.0297 13.3905 13.8885 13.489 13.7741C13.5875 13.6597 13.6203 13.5778 13.686 13.447C13.7517 13.3162 13.7188 13.2017 13.6695 13.1036C13.6203 13.0054 13.2263 12.0405 13.0622 11.6479C12.9023 11.2657 12.7399 11.3174 12.619 11.3114C12.5042 11.3057 12.3728 11.3045 12.2414 11.3045C12.1101 11.3045 11.8967 11.3535 11.7161 11.5498C11.5356 11.7461 11.0267 12.2203 11.0267 13.1853C11.0267 14.1503 11.7325 15.0824 11.8311 15.2133C11.9295 15.3441 13.2201 17.3242 15.1961 18.1734C15.666 18.3754 16.0329 18.496 16.319 18.5864C16.791 18.7357 17.2204 18.7145 17.5597 18.6641C17.9382 18.6078 18.7251 18.1898 18.8893 17.7319C19.0534 17.2739 19.0534 16.8814 19.0042 16.7996C18.955 16.718 18.8237 16.6689 18.6267 16.5707Z" fill="#13328A"/>
</svg>
