<svg width="52" height="52" viewBox="0 0 52 52" fill="none" xmlns="http://www.w3.org/2000/svg">
<rect width="52" height="52" rx="16" fill="#14C83D"/>
<path fill-rule="evenodd" clip-rule="evenodd" d="M35.7223 16.2648C33.1424 13.6942 29.7115 12.2779 26.0561 12.2764C18.5242 12.2764 12.3941 18.3767 12.3911 25.8749C12.3902 28.2718 13.0193 30.6113 14.2152 32.6738L12.2766 39.7208L19.5205 37.8297C21.5164 38.9131 23.7636 39.4842 26.0506 39.485H26.0562C33.5873 39.485 39.7179 33.3839 39.7211 25.8855C39.7224 22.252 38.3022 18.8352 35.7223 16.2648ZM26.0562 37.1883H26.0516C24.0136 37.1875 22.0147 36.6426 20.271 35.6127L19.8562 35.3679L15.5575 36.49L16.7049 32.3189L16.4349 31.8911C15.298 30.0915 14.6974 28.0115 14.6984 25.8756C14.7009 19.6435 19.7958 14.5732 26.0608 14.5732C29.0943 14.5743 31.9461 15.7515 34.0904 17.8882C36.2348 20.0247 37.4149 22.8646 37.4137 25.8849C37.4112 32.1175 32.3162 37.1883 26.0562 37.1883ZM32.2861 28.7225C31.9447 28.5525 30.2661 27.7305 29.9531 27.617C29.6402 27.5038 29.4125 27.447 29.1849 27.7872C28.9573 28.1274 28.3028 28.8927 28.1037 29.1196C27.9045 29.3463 27.7053 29.3748 27.364 29.2045C27.0224 29.0346 25.9224 28.6757 24.6182 27.518C23.6032 26.617 22.9179 25.5043 22.7188 25.1639C22.5196 24.8237 22.6975 24.6399 22.8685 24.4705C23.0221 24.3181 23.21 24.0735 23.3807 23.8751C23.5515 23.6767 23.6083 23.5349 23.7222 23.3082C23.836 23.0814 23.7791 22.8829 23.6936 22.7129C23.6083 22.5427 22.9254 20.8701 22.6409 20.1897C22.3638 19.5273 22.0823 19.6169 21.8727 19.6064C21.6738 19.5966 21.446 19.5944 21.2183 19.5944C20.9907 19.5944 20.6208 19.6794 20.3078 20.0196C19.9949 20.3598 19.1128 21.1819 19.1128 22.8545C19.1128 24.5271 20.3362 26.1428 20.507 26.3697C20.6776 26.5964 22.9147 30.0286 26.3397 31.5006C27.1542 31.8508 27.7902 32.0597 28.2861 32.2165C29.1042 32.4751 29.8484 32.4385 30.4367 32.3511C31.0927 32.2535 32.4567 31.529 32.7413 30.7353C33.0258 29.9415 33.0258 29.2611 32.9404 29.1194C32.8551 28.9778 32.6275 28.8927 32.2861 28.7225Z" fill="white"/>
</svg>
